<svg width="128" height="128" viewBox="0 0 128 128" fill="none" xmlns="http://www.w3.org/2000/svg">
<rect width="128" height="128" fill="#E84142"/>
<path fill-rule="evenodd" clip-rule="evenodd" d="M45.3642 89.4688H32.9436C30.3337 89.4688 29.0445 89.4688 28.2584 88.966C27.4094 88.4155 26.8905 87.5036 26.8276 86.4972C26.7804 85.57 27.4251 84.4376 28.7143 82.1735L59.3823 28.117C60.6873 25.8215 61.3476 24.6738 62.1809 24.2493C63.077 23.7934 64.1462 23.7934 65.0424 24.2493C65.8757 24.6738 66.536 25.8215 67.8409 28.117L74.1456 39.1226L74.1778 39.1788C75.5872 41.6414 76.3019 42.8902 76.614 44.2008C76.9598 45.6316 76.9598 47.1409 76.614 48.5717C76.2996 49.8923 75.5921 51.1502 74.1613 53.65L58.0521 82.1264L58.0105 82.1994C56.5917 84.6823 55.8727 85.9407 54.8763 86.89C53.7914 87.928 52.4864 88.6822 51.0557 89.1075C49.7507 89.4688 48.2886 89.4688 45.3642 89.4688ZM76.7303 89.4688H94.5276C97.1532 89.4688 98.4742 89.4688 99.2607 88.9507C100.11 88.4001 100.644 87.4721 100.692 86.4665C100.737 85.5691 100.106 84.4809 98.8704 82.3484C98.8278 82.2758 98.7852 82.2019 98.7417 82.1268L89.8269 66.8762L89.7255 66.7045C88.4728 64.5861 87.8404 63.5163 87.0283 63.1028C86.1326 62.6468 85.0785 62.6468 84.1827 63.1028C83.3651 63.5273 82.7048 64.6436 81.3999 66.8919L72.5167 82.1425L72.4863 82.195C71.1859 84.4397 70.5361 85.5615 70.5829 86.4818C70.6458 87.4883 71.1646 88.4155 72.0136 88.966C72.7841 89.4688 74.1047 89.4688 76.7303 89.4688Z" fill="white"/>
</svg>
