<svg width="512" height="512" viewBox="0 0 512 512" fill="none" xmlns="http://www.w3.org/2000/svg">
<g clip-path="url(#clip0_2_28277)">
<path d="M81.1001 0H443.4V512H81.1001V0Z" fill="white"/>
<path d="M-100 0H81.1V512H-100V0ZM443.4 0H624.5V512H443.4V0ZM135.3 247.4L121.3 252.2L186.7 309.7C191.7 324.5 185 328.8 180.7 336.6L251.7 327.6L249.9 399.1L264.7 398.6L261.4 327.7L332.6 336.1C328.2 326.8 324.3 321.9 328.3 307.1L393.7 252.6L382.3 248.5C372.9 241.2 386.3 213.7 388.3 196.3C388.3 196.3 350.2 209.4 347.7 202.5L337.8 184L303.2 222C299.4 223 297.8 221.4 296.9 218.2L312.9 138.5L287.5 152.8C285.4 153.7 283.3 152.8 281.9 150.4L257.4 101.4L232.2 152.3C230.3 154.1 228.4 154.3 226.8 153.1L202.6 139.5L217.1 218.7C216 221.7 213.2 222.7 210 221L176.7 183.2C172.4 190.2 169.4 201.6 163.7 204.2C158 206.5 138.7 199.3 125.8 196.5C130.2 212.4 144 238.8 135.3 247.5V247.4Z" fill="#D52B1E"/>
</g>
<defs>
<clipPath id="clip0_2_28277">
<rect width="512" height="512" fill="white"/>
</clipPath>
</defs>
</svg>
