<svg width="24" height="24" viewBox="0 0 24 24" fill="none" xmlns="http://www.w3.org/2000/svg">
<path fill-rule="evenodd" clip-rule="evenodd" d="M12.7502 4.8C12.7502 4.38579 12.4145 4.05 12.0002 4.05C11.586 4.05 11.2502 4.38579 11.2502 4.8V6.46613C10.5261 6.51321 9.77524 6.67163 9.16264 7.05319C8.51638 7.45572 8.0579 8.08894 7.95387 8.96472C7.87121 9.66069 7.94782 10.2752 8.19335 10.8052C8.43979 11.3372 8.82852 11.7237 9.26971 12.0078C10.1062 12.5464 11.2246 12.7659 12.1398 12.9455L12.1481 12.9472L12.2299 12.9632C12.6838 13.0522 13.0997 13.1338 13.4785 13.2362C13.8815 13.3451 14.1916 13.4649 14.4161 13.6063C14.6297 13.7409 14.7414 13.8787 14.7986 14.0309C14.8585 14.1903 14.8919 14.4544 14.7836 14.8968C14.7019 15.2303 14.4742 15.4935 14.045 15.6966C13.5993 15.9076 12.9873 16.0239 12.2868 16.0461C10.8675 16.091 9.37602 15.7453 8.74991 15.4153C8.38346 15.2222 7.92985 15.3627 7.73674 15.7291C7.54362 16.0956 7.68414 16.5492 8.05058 16.7423C8.76219 17.1173 9.98751 17.4251 11.2502 17.5198V19.2C11.2502 19.6142 11.586 19.95 12.0002 19.95C12.4145 19.95 12.7502 19.6142 12.7502 19.2V17.5223C13.4266 17.4681 14.1038 17.3284 14.6868 17.0524C15.4061 16.7119 16.0238 16.1387 16.2406 15.2535C16.3973 14.6135 16.399 14.0253 16.2027 13.5031C16.0037 12.9739 15.6348 12.6012 15.2155 12.3371C14.8072 12.0799 14.3321 11.913 13.8699 11.7881C13.4378 11.6713 12.9724 11.5801 12.533 11.4941L12.437 11.4753C11.4477 11.2811 10.6332 11.1017 10.0817 10.7466C9.82762 10.583 9.65772 10.3977 9.55439 10.1747C9.45015 9.94969 9.38587 9.62606 9.4434 9.14165C9.49018 8.74782 9.6698 8.50447 9.95568 8.32641C10.2743 8.12795 10.7483 8.00166 11.3501 7.96281C12.5517 7.88523 13.9797 8.17246 14.8751 8.47364C15.2677 8.60568 15.693 8.39446 15.8251 8.00186C15.9571 7.60926 15.7459 7.18395 15.3533 7.0519C14.6777 6.82466 13.7334 6.59979 12.7502 6.50151V4.8Z" fill="#253D35"/>
</svg>
