<svg width="24" height="24" viewBox="0 0 24 24" fill="none" xmlns="http://www.w3.org/2000/svg">
<path fill-rule="evenodd" clip-rule="evenodd" d="M14.0768 5.07978C12.8624 4.80922 11.6086 4.96458 10.4787 5.51851C9.35128 6.07122 8.40751 6.99034 7.75151 8.14209C7.51574 8.55604 7.32014 8.9946 7.16631 9.45H5.7C5.28578 9.45 4.95 9.78578 4.95 10.2C4.95 10.6142 5.28578 10.95 5.7 10.95H6.81923C6.7738 11.2965 6.75078 11.6475 6.75078 12C6.75078 12.3525 6.7738 12.7035 6.81923 13.05H5.7C5.28578 13.05 4.95 13.3858 4.95 13.8C4.95 14.2142 5.28578 14.55 5.7 14.55H7.16631C7.32014 15.0054 7.51573 15.444 7.75151 15.8579C8.40751 17.0097 9.35128 17.9288 10.4787 18.4815C11.6086 19.0354 12.8624 19.1908 14.0768 18.9202C15.2894 18.6501 16.3886 17.9722 17.2445 16.9938C17.5172 16.6821 17.4856 16.2082 17.1738 15.9355C16.8621 15.6628 16.3882 15.6944 16.1155 16.0062C15.4524 16.7642 14.6269 17.2609 13.7506 17.4561C12.8761 17.651 11.9697 17.5419 11.139 17.1346C10.3059 16.7262 9.5759 16.0302 9.05491 15.1155C8.95115 14.9334 8.85684 14.7445 8.77232 14.55H12.9C13.3142 14.55 13.65 14.2142 13.65 13.8C13.65 13.3858 13.3142 13.05 12.9 13.05H8.33505C8.27935 12.7062 8.25078 12.3547 8.25078 12C8.25078 11.6453 8.27935 11.2938 8.33505 10.95H12.9C13.3142 10.95 13.65 10.6142 13.65 10.2C13.65 9.78578 13.3142 9.45 12.9 9.45H8.77232C8.85684 9.25551 8.95116 9.06664 9.05491 8.88447C9.5759 7.96976 10.3059 7.27381 11.139 6.86537C11.9697 6.45813 12.8761 6.34904 13.7506 6.54388C14.6269 6.73912 15.4524 7.23578 16.1155 7.99382C16.3882 8.30558 16.8621 8.33721 17.1738 8.06448C17.4856 7.79175 17.5172 7.31793 17.2445 7.00618C16.3886 6.02781 15.2894 5.34993 14.0768 5.07978Z" fill="#253D35"/>
</svg>
