<?xml version="1.0" encoding="iso-8859-1"?>
<!-- Generator: Adobe Illustrator 19.0.0, SVG Export Plug-In . SVG Version: 6.00 Build 0)  -->
<!-- License: CC0. Made by SVG Repo: https://www.svgrepo.com/svg/225672/european-union -->
<svg version="1.1" id="Layer_1" xmlns="http://www.w3.org/2000/svg" xmlns:xlink="http://www.w3.org/1999/xlink" x="0px" y="0px"
	 viewBox="0 0 512 512" style="enable-background:new 0 0 512 512;" xml:space="preserve">
<rect x="7.286" y="7.286" style="fill:#103B9B;" width="497.43" height="497.43"/>
<g>
	<circle style="fill:#FFE000;" cx="256" cy="156.51" r="16.581"/>
	<circle style="fill:#FFE000;" cx="206.26" cy="169.84" r="16.581"/>
	<circle style="fill:#FFE000;" cx="169.84" cy="206.26" r="16.581"/>
	<circle style="fill:#FFE000;" cx="156.51" cy="256" r="16.581"/>
	<circle style="fill:#FFE000;" cx="169.84" cy="305.74" r="16.581"/>
	<circle style="fill:#FFE000;" cx="206.26" cy="342.16" r="16.581"/>
	<circle style="fill:#FFE000;" cx="256" cy="355.49" r="16.581"/>
	<circle style="fill:#FFE000;" cx="305.74" cy="342.16" r="16.581"/>
	<circle style="fill:#FFE000;" cx="342.16" cy="305.74" r="16.581"/>
	<circle style="fill:#FFE000;" cx="355.49" cy="256" r="16.581"/>
	<circle style="fill:#FFE000;" cx="342.16" cy="206.26" r="16.581"/>
	<circle style="fill:#FFE000;" cx="305.74" cy="169.84" r="16.581"/>
</g>
<path d="M504.714,512H7.286C3.262,512,0,508.738,0,504.714v-99.486c0-4.025,3.262-7.286,7.286-7.286s7.287,3.262,7.287,7.286v92.199
	h482.854V14.573H14.573v340.913c0,4.025-3.262,7.286-7.287,7.286S0,359.51,0,355.486V7.286C0,3.262,3.262,0,7.286,0h497.427
	C508.738,0,512,3.262,512,7.286v497.427C512,508.738,508.738,512,504.714,512z"/>
</svg>
