<svg width="30" height="20" viewBox="0 0 30 20" fill="none" xmlns="http://www.w3.org/2000/svg">
<rect width="30" height="20" fill="#F5F5F5"/>
<rect width="1876" height="988" transform="translate(-1160 -276)" fill="white"/>
<path d="M30 0H0V20H30V0Z" fill="#0052B4"/>
<path d="M14.9998 4.37476L15.299 5.29555H16.2672L15.4839 5.86466L15.7831 6.78545L14.9998 6.2164L14.2165 6.78545L14.5157 5.86466L13.7324 5.29555H14.7006L14.9998 4.37476Z" fill="#FFDA44"/>
<path d="M11.0224 6.02226L11.8851 6.46177L12.5697 5.77722L12.4181 6.73346L13.2808 7.17303L12.3246 7.32449L12.1731 8.28079L11.7335 7.41812L10.7773 7.56953L11.462 6.88493L11.0224 6.02226Z" fill="#FFDA44"/>
<path d="M9.375 9.99967L10.2958 9.70049L10.2959 8.73236L10.8649 9.51563L11.7857 9.21646L11.2166 9.99967L11.7857 10.7829L10.8649 10.4838L10.2959 11.267V10.2989L9.375 9.99967Z" fill="#FFDA44"/>
<path d="M11.0224 13.9772L11.4618 13.1144L10.7773 12.4299L11.7337 12.5814L12.1731 11.7187L12.3246 12.675L13.2808 12.8264L12.4182 13.266L12.5697 14.2221L11.8851 13.5376L11.0224 13.9772Z" fill="#FFDA44"/>
<path d="M14.9998 15.6246L14.7006 14.7038H13.7324L14.5158 14.1348L14.2165 13.214L14.9998 13.783L15.7831 13.214L15.4839 14.1348L16.2672 14.7038H15.299L14.9998 15.6246Z" fill="#FFDA44"/>
<path d="M18.9772 13.9772L18.1145 13.5377L17.4299 14.2223L17.5814 13.2659L16.7188 12.8264L17.6749 12.675L17.8265 11.7187L18.266 12.5814L19.2222 12.4299L18.5376 13.1145L18.9772 13.9772Z" fill="#FFDA44"/>
<path d="M20.6256 9.99967L19.7048 10.2989V11.267L19.1357 10.4837L18.2148 10.7829L18.784 9.99967L18.2148 9.21646L19.1357 9.51557L19.7047 8.73236L19.7048 9.70055L20.6256 9.99967Z" fill="#FFDA44"/>
<path d="M18.9772 6.02226L18.5377 6.88493L19.2223 7.56953L18.2659 7.41801L17.8265 8.28073L17.6749 7.32449L16.7188 7.17303L17.5814 6.73346L17.4299 5.77722L18.1145 6.46182L18.9772 6.02226Z" fill="#FFDA44"/>
</svg>
