<svg width="98" height="98" viewBox="0 0 98 98" fill="none" xmlns="http://www.w3.org/2000/svg">
<g filter="url(#filter0_dd_1401_3710)">
<rect width="84" height="84" transform="translate(6.85742 2.28613)" fill="#003399"/>
<path fill-rule="evenodd" clip-rule="evenodd" d="M48.1498 16.5254L49.1083 18.5745L51.2234 18.8719L49.7031 20.4583L50.0667 22.7057L48.1498 21.6481L46.2329 22.7057L46.5965 20.4583L45.0762 18.8719L47.1914 18.5745L48.1498 16.5254Z" fill="#FFCC00"/>
<path d="M48.1498 16.5254L49.1083 18.5745L51.2234 18.8719L49.7031 20.4583L50.0667 22.7057L48.1498 21.6481L46.2329 22.7057L46.5965 20.4583L45.0762 18.8719L47.1914 18.5745L48.1498 16.5254Z" stroke="#FFCC00" stroke-width="1.65249" stroke-linecap="round" stroke-linejoin="round"/>
<path fill-rule="evenodd" clip-rule="evenodd" d="M60.4779 19.5986L61.4364 21.6477L63.5846 21.9782L62.0313 23.5316L62.3948 25.779L60.4779 24.7214L58.5941 25.779L58.9576 23.5316L57.4043 21.9782L59.5525 21.6477L60.4779 19.5986Z" fill="#FFCC00"/>
<path d="M60.4779 19.5986L61.4364 21.6477L63.5846 21.9782L62.0313 23.5316L62.3948 25.779L60.4779 24.7214L58.5941 25.779L58.9576 23.5316L57.4043 21.9782L59.5525 21.6477L60.4779 19.5986Z" stroke="#FFCC00" stroke-width="1.65249" stroke-linecap="round" stroke-linejoin="round"/>
<path fill-rule="evenodd" clip-rule="evenodd" d="M35.8293 19.5986L36.7547 21.6477L38.903 21.9782L37.3496 23.5316L37.7132 25.779L35.8293 24.7214L33.9124 25.779L34.276 23.5316L32.7227 21.9782L34.8709 21.6477L35.8293 19.5986Z" fill="#FFCC00"/>
<path d="M35.8293 19.5986L36.7547 21.6477L38.903 21.9782L37.3496 23.5316L37.7132 25.779L35.8293 24.7214L33.9124 25.779L34.276 23.5316L32.7227 21.9782L34.8709 21.6477L35.8293 19.5986Z" stroke="#FFCC00" stroke-width="1.65249" stroke-linecap="round" stroke-linejoin="round"/>
<path fill-rule="evenodd" clip-rule="evenodd" d="M69.7357 28.8545L70.6942 30.9036L72.8424 31.2341L71.2891 32.7874L71.6526 35.0348L69.7357 33.9772L67.8519 35.0348L68.2154 32.7874L66.6621 31.2341L68.8103 30.9036L69.7357 28.8545Z" fill="#FFCC00"/>
<path d="M69.7357 28.8545L70.6942 30.9036L72.8424 31.2341L71.2891 32.7874L71.6526 35.0348L69.7357 33.9772L67.8519 35.0348L68.2154 32.7874L66.6621 31.2341L68.8103 30.9036L69.7357 28.8545Z" stroke="#FFCC00" stroke-width="1.65249" stroke-linecap="round" stroke-linejoin="round"/>
<path fill-rule="evenodd" clip-rule="evenodd" d="M26.5715 28.8545L27.4969 30.9036L29.6452 31.2341L28.0918 32.7874L28.4554 35.0348L26.5715 33.9772L24.6546 35.0348L25.0182 32.7874L23.4648 31.2341L25.6131 30.9036L26.5715 28.8545Z" fill="#FFCC00"/>
<path d="M26.5715 28.8545L27.4969 30.9036L29.6452 31.2341L28.0918 32.7874L28.4554 35.0348L26.5715 33.9772L24.6546 35.0348L25.0182 32.7874L23.4648 31.2341L25.6131 30.9036L26.5715 28.8545Z" stroke="#FFCC00" stroke-width="1.65249" stroke-linecap="round" stroke-linejoin="round"/>
<path fill-rule="evenodd" clip-rule="evenodd" d="M69.7357 53.542L70.6942 55.558L72.8424 55.8885L71.2891 57.4749L71.6526 59.7223L69.7357 58.6647L67.8519 59.7223L68.2154 57.4749L66.6621 55.8885L68.8103 55.558L69.7357 53.542Z" fill="#FFCC00"/>
<path d="M69.7357 53.542L70.6942 55.558L72.8424 55.8885L71.2891 57.4749L71.6526 59.7223L69.7357 58.6647L67.8519 59.7223L68.2154 57.4749L66.6621 55.8885L68.8103 55.558L69.7357 53.542Z" stroke="#FFCC00" stroke-width="1.65249" stroke-linecap="round" stroke-linejoin="round"/>
<path fill-rule="evenodd" clip-rule="evenodd" d="M26.5715 53.542L27.4969 55.558L29.6452 55.8885L28.0918 57.4749L28.4554 59.7223L26.5715 58.6647L24.6546 59.7223L25.0182 57.4749L23.4648 55.8885L25.6131 55.558L26.5715 53.542Z" fill="#FFCC00"/>
<path d="M26.5715 53.542L27.4969 55.558L29.6452 55.8885L28.0918 57.4749L28.4554 59.7223L26.5715 58.6647L24.6546 59.7223L25.0182 57.4749L23.4648 55.8885L25.6131 55.558L26.5715 53.542Z" stroke="#FFCC00" stroke-width="1.65249" stroke-linecap="round" stroke-linejoin="round"/>
<path fill-rule="evenodd" clip-rule="evenodd" d="M60.4779 62.7959L61.4364 64.8119L63.5846 65.1424L62.0313 66.7288L62.3948 68.9762L60.4779 67.9186L58.5941 68.9762L58.9576 66.7288L57.4043 65.1424L59.5525 64.8119L60.4779 62.7959Z" fill="#FFCC00"/>
<path d="M60.4779 62.7959L61.4364 64.8119L63.5846 65.1424L62.0313 66.7288L62.3948 68.9762L60.4779 67.9186L58.5941 68.9762L58.9576 66.7288L57.4043 65.1424L59.5525 64.8119L60.4779 62.7959Z" stroke="#FFCC00" stroke-width="1.65249" stroke-linecap="round" stroke-linejoin="round"/>
<path fill-rule="evenodd" clip-rule="evenodd" d="M35.8293 62.7959L36.7547 64.8119L38.903 65.1424L37.3496 66.7288L37.7132 68.9762L35.8293 67.9186L33.9124 68.9762L34.276 66.7288L32.7227 65.1424L34.8709 64.8119L35.8293 62.7959Z" fill="#FFCC00"/>
<path d="M35.8293 62.7959L36.7547 64.8119L38.903 65.1424L37.3496 66.7288L37.7132 68.9762L35.8293 67.9186L33.9124 68.9762L34.276 66.7288L32.7227 65.1424L34.8709 64.8119L35.8293 62.7959Z" stroke="#FFCC00" stroke-width="1.65249" stroke-linecap="round" stroke-linejoin="round"/>
<path fill-rule="evenodd" clip-rule="evenodd" d="M74.2629 41.2129L75.1883 43.2289L77.3366 43.5594L75.7832 45.1458L76.1468 47.3602L74.2629 46.3026L72.346 47.3602L72.7096 45.1458L71.1562 43.5594L73.3045 43.2289L74.2629 41.2129Z" fill="#FFCC00"/>
<path d="M74.2629 41.2129L75.1883 43.2289L77.3366 43.5594L75.7832 45.1458L76.1468 47.3602L74.2629 46.3026L72.346 47.3602L72.7096 45.1458L71.1562 43.5594L73.3045 43.2289L74.2629 41.2129Z" stroke="#FFCC00" stroke-width="1.65249" stroke-linecap="round" stroke-linejoin="round"/>
<path fill-rule="evenodd" clip-rule="evenodd" d="M23.4836 41.2129L24.4421 43.2289L26.5573 43.5594L25.0039 45.1458L25.3675 47.3602L23.4836 46.3026L21.5667 47.3602L21.9303 45.1458L20.377 43.5594L22.5252 43.2289L23.4836 41.2129Z" fill="#FFCC00"/>
<path d="M23.4836 41.2129L24.4421 43.2289L26.5573 43.5594L25.0039 45.1458L25.3675 47.3602L23.4836 46.3026L21.5667 47.3602L21.9303 45.1458L20.377 43.5594L22.5252 43.2289L23.4836 41.2129Z" stroke="#FFCC00" stroke-width="1.65249" stroke-linecap="round" stroke-linejoin="round"/>
<path fill-rule="evenodd" clip-rule="evenodd" d="M48.1498 65.8672L49.1083 67.9163L51.2234 68.2468L49.7031 69.8332L50.0667 72.0475L48.1498 70.9899L46.2329 72.0475L46.5965 69.8332L45.0762 68.2468L47.1914 67.9163L48.1498 65.8672Z" fill="#FFCC00"/>
<path d="M48.1498 65.8672L49.1083 67.9163L51.2234 68.2468L49.7031 69.8332L50.0667 72.0475L48.1498 70.9899L46.2329 72.0475L46.5965 69.8332L45.0762 68.2468L47.1914 67.9163L48.1498 65.8672Z" stroke="#FFCC00" stroke-width="1.65249" stroke-linecap="round" stroke-linejoin="round"/>
</g>
<defs>
<filter id="filter0_dd_1401_3710" x="0.000279427" y="0.000418663" width="97.7143" height="97.7143" filterUnits="userSpaceOnUse" color-interpolation-filters="sRGB">
<feFlood flood-opacity="0" result="BackgroundImageFix"/>
<feColorMatrix in="SourceAlpha" type="matrix" values="0 0 0 0 0 0 0 0 0 0 0 0 0 0 0 0 0 0 127 0" result="hardAlpha"/>
<feOffset dy="4.57143"/>
<feGaussianBlur stdDeviation="3.42857"/>
<feComposite in2="hardAlpha" operator="out"/>
<feColorMatrix type="matrix" values="0 0 0 0 0.258824 0 0 0 0 0.278431 0 0 0 0 0.298039 0 0 0 0.08 0"/>
<feBlend mode="normal" in2="BackgroundImageFix" result="effect1_dropShadow_1401_3710"/>
<feColorMatrix in="SourceAlpha" type="matrix" values="0 0 0 0 0 0 0 0 0 0 0 0 0 0 0 0 0 0 127 0" result="hardAlpha"/>
<feOffset/>
<feGaussianBlur stdDeviation="0.285714"/>
<feComposite in2="hardAlpha" operator="out"/>
<feColorMatrix type="matrix" values="0 0 0 0 0.258824 0 0 0 0 0.278431 0 0 0 0 0.298039 0 0 0 0.32 0"/>
<feBlend mode="normal" in2="effect1_dropShadow_1401_3710" result="effect2_dropShadow_1401_3710"/>
<feBlend mode="normal" in="SourceGraphic" in2="effect2_dropShadow_1401_3710" result="shape"/>
</filter>
</defs>
</svg>
