<svg width="40" height="40" viewBox="0 0 40 40" fill="none" xmlns="http://www.w3.org/2000/svg">
<g clip-path="url(#clip0_2867_616)">
<path d="M20 40C31 40 40 31 40 20C40 9 31 0 20 0C9 0 0 9 0 20C0 31 9 40 20 40Z" fill="url(#paint0_linear_2867_616)"/>
<path d="M12.7797 20.9332L12.0425 21.9283C11.8681 22.2734 12.1191 22.6815 12.5058 22.6815H14.9183C15.6812 25.8352 17.878 27.9859 20.8214 27.9414C22.9111 27.9414 24.4864 26.9024 25.5382 24.8336C25.6721 24.5703 25.5547 24.2471 25.2849 24.1266L24.1342 23.6125C23.8808 23.4993 23.5822 23.6054 23.4594 23.8541C22.9162 24.9564 22.0137 25.6588 20.8214 25.6588C19.742 25.6588 18.876 25.1302 18.2126 24.0622C17.9532 23.6487 17.7469 23.1873 17.5899 22.6818H20.6798C20.8756 22.6818 21.0548 22.5715 21.1432 22.3968L21.8804 21.4017C22.0548 21.0563 21.8037 20.6486 21.417 20.6486H17.2422C17.2303 20.4345 17.2229 20.2163 17.2229 19.9911C17.2206 19.768 17.2269 19.5497 17.2385 19.3346H20.6798C20.8756 19.3346 21.0548 19.2243 21.1432 19.0496L21.8804 18.0545C22.0548 17.7094 21.8037 17.3013 21.417 17.3013H17.5862C18.1464 15.4744 19.3162 14.2776 20.8214 14.3012C21.9681 14.3012 22.8587 14.929 23.4297 15.9574C23.5577 16.188 23.8458 16.2763 24.0869 16.1697L25.2435 15.6591C25.5202 15.5368 25.6379 15.2023 25.4915 14.9375C24.424 13.0095 22.8672 12.0409 20.8214 12.0409C18.9546 12.0409 17.4591 12.7829 16.3235 14.2562C15.6598 15.1239 15.1976 16.1418 14.9235 17.3013H13.2433C13.0475 17.3013 12.8683 17.4116 12.78 17.5863L12.0427 18.5814C11.8683 18.9268 12.1194 19.3346 12.5061 19.3346H14.6459C14.6357 19.5506 14.6257 19.7672 14.6257 19.9911C14.6228 20.2131 14.6283 20.432 14.6377 20.6486H13.2436C13.0478 20.6486 12.868 20.7585 12.7797 20.9332Z" fill="white"/>
<path d="M6.61143 19.1431C7.03033 12.4544 12.4151 7.05284 19.1024 6.61428C22.6177 6.38374 25.8681 7.51933 28.3812 9.53717C28.6251 9.73294 28.9745 9.72411 29.2079 9.5158L30.1936 8.6364C30.4859 8.37565 30.48 7.91344 30.1779 7.66381C27.2464 5.24103 23.4404 3.84042 19.3113 4.01453C11.1219 4.35991 4.45794 10.9472 4.02308 19.1325C3.835 22.673 4.80588 25.9823 6.58892 28.7162C6.80236 29.0437 7.25973 29.1004 7.55154 28.8402L8.5361 27.9616C8.76891 27.7539 8.81907 27.4085 8.65236 27.1449C7.20245 24.851 6.42677 22.0908 6.61143 19.1431Z" fill="white"/>
<path d="M33.4114 11.284C33.198 10.9569 32.7406 10.8999 32.4488 11.1601L31.4642 12.0386C31.2314 12.2464 31.1813 12.5918 31.348 12.8553C32.7979 15.1493 33.5736 17.9098 33.3886 20.8575C32.9694 27.5459 27.5847 32.9472 20.8974 33.3857C17.3821 33.6163 14.132 32.4807 11.6186 30.4628C11.3747 30.2671 11.0253 30.2759 10.7919 30.4842L9.8065 31.3636C9.51412 31.6243 9.52011 32.0866 9.82217 32.3362C12.7539 34.7593 16.5599 36.1596 20.6894 35.9855C28.8787 35.6398 35.5427 29.0522 35.977 20.8669C36.1648 17.3267 35.1942 14.0174 33.4114 11.284Z" fill="white"/>
<path d="M39.5 20C39.5 23.8567 38.3563 27.6269 36.2137 30.8336C34.071 34.0404 31.0255 36.5397 27.4623 38.0156C23.8992 39.4916 19.9784 39.8777 16.1957 39.1253C12.4131 38.3729 8.93855 36.5157 6.21143 33.7886C3.4843 31.0615 1.62711 27.5869 0.874696 23.8043C0.122284 20.0216 0.508449 16.1008 1.98436 12.5377C3.46027 8.97451 5.95963 5.92903 9.16639 3.78634C12.3731 1.64365 16.1433 0.5 20 0.5C25.1717 0.5 30.1316 2.55446 33.7886 6.21142C37.4455 9.86838 39.5 14.8283 39.5 20Z" stroke="black" stroke-opacity="0.02"/>
</g>
<defs>
<linearGradient id="paint0_linear_2867_616" x1="44.6686" y1="44.6686" x2="16.3846" y2="16.3846" gradientUnits="userSpaceOnUse">
<stop stop-color="#8656EF"/>
<stop offset="0.97" stop-color="#1AA3FF"/>
</linearGradient>
<clipPath id="clip0_2867_616">
<rect width="40" height="40" fill="white"/>
</clipPath>
</defs>
</svg>
