<svg xmlns="http://www.w3.org/2000/svg" fill="none" viewBox="0 0 16 16" id="Matic--Streamline-Cryptocurrency" height="16" width="16">
  <desc>
    Matic Streamline Icon: https://streamlinehq.com
  </desc>
  <path fill="#6f41d8" d="M8 16c4.4183 0 8 -3.5817 8 -8 0 -4.41828 -3.5817 -8 -8 -8C3.58172 0 0 3.58172 0 8c0 4.4183 3.58172 8 8 8Z" stroke-width="0.5"></path>
  <path fill="#ffffff" d="M10.54605 6.3465c-0.1845 -0.1075 -0.424 -0.1075 -0.627 0l-1.4395 0.827 -0.9775 0.539 -1.4395 0.8265c-0.1845 0.108 -0.424 0.108 -0.627 0l-1.14402 -0.647c-0.1845 -0.1075 -0.3135 -0.305 -0.3135 -0.521V6.095c0 -0.2155 0.1105 -0.413 0.3135 -0.521L5.41655 4.945c0.185 -0.108 0.425 -0.108 0.628 0l1.125 0.629c0.185 0.108 0.314 0.3055 0.314 0.521v0.827l0.9775 -0.5575v-0.8265c0.00105 -0.10735 -0.02765 -0.2129 -0.083 -0.3049 -0.05535 -0.09195 -0.13515 -0.1668 -0.2305 -0.2161l-2.085 -1.186c-0.1845 -0.108 -0.424 -0.108 -0.627 0l-2.12202 1.186c-0.095355 0.0493 -0.175145 0.12415 -0.230495 0.2161 -0.05535 0.092 -0.084085 0.19755 -0.083005 0.3049v2.39c0 0.216 0.1105 0.4135 0.3135 0.5215l2.12202 1.186c0.1845 0.1075 0.4245 0.1075 0.627 0l1.4395 -0.809 0.9775 -0.557 1.4395 -0.8085c0.1845 -0.108 0.424 -0.108 0.627 0l1.1255 0.629c0.185 0.1075 0.3135 0.305 0.3135 0.521v1.276c0 0.2155 -0.11 0.413 -0.3135 0.521l-1.125 0.647c-0.185 0.108 -0.425 0.108 -0.6275 0l-1.1255 -0.629c-0.185 -0.108 -0.314 -0.3055 -0.314 -0.521v-0.827l-0.9775 0.5575v0.8265c0 0.2155 0.1105 0.4135 0.3135 0.521l2.122 1.186c0.1845 0.108 0.424 0.108 0.627 0l2.122 -1.186c0.1845 -0.1075 0.3135 -0.305 0.3135 -0.521v-2.39c0.00105 -0.10735 -0.02765 -0.2129 -0.083 -0.30485 -0.05535 -0.092 -0.13515 -0.16685 -0.2305 -0.21615l-2.14 -1.2045h-0.0005Z" stroke-width="0.5"></path>
</svg>