<svg xmlns="http://www.w3.org/2000/svg" fill="none" viewBox="0 0 16 16" id="Sol--Streamline-Cryptocurrency" height="16" width="16">
  <desc>
    Sol Streamline Icon: https://streamlinehq.com
  </desc>
  <path fill="#66f9a1" d="M8 16c4.4183 0 8 -3.5817 8 -8 0 -4.41828 -3.5817 -8 -8 -8C3.58172 0 0 3.58172 0 8c0 4.4183 3.58172 8 8 8Z" stroke-width="0.5"></path>
  <path fill="#ffffff" d="M4.962485 9.8435c0.055265 -0.05455 0.129865 -0.0851 0.207515 -0.085h7.183c0.02895 -0.0004 0.05735 0.0079 0.08155 0.0238 0.02425 0.0159 0.0431 0.0387 0.05425 0.06545 0.01115 0.0267 0.014 0.0562 0.00825 0.08455 -0.00575 0.0284 -0.0199 0.0544 -0.04055 0.0747l-1.419 1.4075c-0.0552 0.0547 -0.1298 0.08545 -0.2075 0.0855H3.646985c-0.028955 0.00025 -0.05733 -0.00815 -0.081485 -0.0241 -0.024155 -0.016 -0.042995 -0.0388 -0.05411 -0.06555 -0.011115 -0.02675 -0.014 -0.0562 -0.00828 -0.08455 0.005715 -0.0284 0.019775 -0.05445 0.040375 -0.0748l1.419 -1.4075Zm0 -5.2585c0.055265 -0.05454 0.129865 -0.085085 0.207515 -0.085h7.183c0.1305 0 0.196 0.157 0.1035 0.249l-1.419 1.4075c-0.0553 0.05455 -0.12985 0.0851 -0.2075 0.085H3.646985c-0.028855 0.00015 -0.0571 -0.0083 -0.081145 -0.02425 -0.02405 -0.01595 -0.04281 -0.03865 -0.053905 -0.0653s-0.014015 -0.05595 -0.0084 -0.0843c0.00562 -0.0283 0.019525 -0.05425 0.03995 -0.07465l1.419 -1.408ZM11.0375 7.1975c-0.0553 -0.05455 -0.12985 -0.0851 -0.2075 -0.085H3.646985c-0.028955 -0.00025 -0.05733 0.00815 -0.081485 0.0241 -0.024155 0.016 -0.042995 0.0388 -0.05411 0.06555 -0.011115 0.02675 -0.014 0.0562 -0.00828 0.08455 0.005715 0.0284 0.019775 0.05445 0.040375 0.0748l1.419 1.4075c0.055015 0.0545 0.130015 0.085 0.207515 0.085h7.183c0.02895 0.00025 0.0573 -0.00815 0.08145 -0.0241 0.0242 -0.016 0.043 -0.0388 0.05415 -0.06555 0.0111 -0.02675 0.014 -0.0562 0.00825 -0.08455 -0.0057 -0.0284 -0.01975 -0.05445 -0.04035 -0.0748l-1.419 -1.4075Z" stroke-width="0.5"></path>
</svg>