<svg width="128" height="128" viewBox="0 0 128 128" fill="none" xmlns="http://www.w3.org/2000/svg">
<rect width="128" height="128" fill="black"/>
<path d="M100.945 83.1413L88.6206 96.2784C88.3527 96.5638 88.0285 96.7913 87.6683 96.9468C87.3081 97.1022 86.9195 97.1824 86.5267 97.1822H28.1007C27.822 97.1822 27.5493 97.1012 27.3161 96.9493C27.083 96.7974 26.8996 96.5811 26.7885 96.3269C26.6774 96.0729 26.6434 95.792 26.6906 95.5189C26.7379 95.2459 26.8644 94.9925 27.0546 94.79L39.3888 81.6529C39.656 81.3683 39.9791 81.1413 40.3382 80.9857C40.6973 80.8303 41.0846 80.7497 41.4762 80.7491H99.8991C100.178 80.7491 100.451 80.8301 100.684 80.982C100.917 81.1339 101.1 81.3502 101.211 81.6044C101.322 81.8584 101.356 82.1393 101.309 82.4124C101.262 82.6854 101.135 82.9388 100.945 83.1413ZM88.6206 56.6872C88.3527 56.4019 88.0285 56.1744 87.6683 56.0188C87.3081 55.8634 86.9195 55.7832 86.5267 55.7834H28.1007C27.822 55.7834 27.5493 55.8644 27.3161 56.0163C27.083 56.1682 26.8996 56.3845 26.7885 56.6387C26.6774 56.8928 26.6434 57.1737 26.6906 57.4467C26.7379 57.7197 26.8644 57.9731 27.0546 58.1757L39.3888 71.3127C39.656 71.5974 39.9791 71.8243 40.3382 71.9799C40.6973 72.1353 41.0846 72.2159 41.4762 72.2165H99.8991C100.178 72.2165 100.451 72.1355 100.684 71.9836C100.917 71.8317 101.1 71.6154 101.211 71.3612C101.322 71.1072 101.356 70.8263 101.309 70.5533C101.262 70.2802 101.135 70.0268 100.945 69.8243L88.6206 56.6872ZM28.1007 47.2508H86.5267C86.9195 47.251 87.3081 47.1709 87.6683 47.0154C88.0285 46.8599 88.3527 46.6324 88.6206 46.347L100.945 33.21C101.135 33.0075 101.262 32.7541 101.309 32.481C101.356 32.2079 101.322 31.9271 101.211 31.673C101.1 31.4189 100.917 31.2026 100.684 31.0506C100.451 30.8987 100.178 30.8178 99.8991 30.8177H41.4762C41.0846 30.8184 40.6973 30.899 40.3382 31.0544C39.9791 31.2099 39.656 31.437 39.3888 31.7216L27.0578 44.8586C26.8678 45.0609 26.7413 45.314 26.694 45.5868C26.6466 45.8596 26.6803 46.1402 26.791 46.3941C26.9018 46.6482 27.0847 46.8645 27.3173 47.0167C27.55 47.1688 27.8222 47.2502 28.1007 47.2508Z" fill="url(#paint0_linear_1_855)"/>
<defs>
<linearGradient id="paint0_linear_1_855" x1="32.9721" y1="98.7638" x2="93.8204" y2="29.7473" gradientUnits="userSpaceOnUse">
<stop offset="0.08" stop-color="#9945FF"/>
<stop offset="0.3" stop-color="#8752F3"/>
<stop offset="0.5" stop-color="#5497D5"/>
<stop offset="0.6" stop-color="#43B4CA"/>
<stop offset="0.72" stop-color="#28E0B9"/>
<stop offset="0.97" stop-color="#19FB9B"/>
</linearGradient>
</defs>
</svg>
