<svg xmlns="http://www.w3.org/2000/svg" viewBox="0 0 16 16" width="16" height="16">
  <circle cx="8" cy="8" r="8" fill="#22C55E"/>
  <path d="M8 3.5C8.55 3.5 9 3.95 9 4.5V5H10V6H9V6.5C9.83 6.83 10.5 7.58 10.5 8.5C10.5 9.6 9.6 10.5 8.5 10.5H8V11H10V12H9V12.5C9 13.05 8.55 13.5 8 13.5C7.45 13.5 7 13.05 7 12.5V12H6V11H7V10.5C6.17 10.17 5.5 9.42 5.5 8.5V8H6.5V8.5C6.5 9.05 6.95 9.5 7.5 9.5H8.5C9.05 9.5 9.5 9.05 9.5 8.5C9.5 7.95 9.05 7.5 8.5 7.5H7.5C6.4 7.5 5.5 6.6 5.5 5.5C5.5 4.58 6.17 3.83 7 3.5V3.5C7 2.95 7.45 2.5 8 2.5C8.55 2.5 9 2.95 9 3.5H8V3.5ZM7 5.5C7 6.05 7.45 6.5 8 6.5H8.5C8.78 6.5 9 6.28 9 6V5.5C9 4.95 8.55 4.5 8 4.5H7.5C7.22 4.5 7 4.72 7 5V5.5Z" fill="#FFFFFF"/>
</svg>
