<svg width="512" height="512" viewBox="0 0 512 512" fill="none" xmlns="http://www.w3.org/2000/svg">
<g clip-path="url(#clip0_2_39096)">
<path fill-rule="evenodd" clip-rule="evenodd" d="M0 0H972.81V39.385H0V0ZM0 78.77H972.81V118.155H0V78.77ZM0 157.54H972.81V196.925H0V157.54ZM0 236.31H972.81V275.695H0V236.31ZM0 315.08H972.81V354.465H0V315.08ZM0 393.85H972.81V433.235H0V393.85ZM0 472.62H972.81V512.005H0V472.62Z" fill="#BD3D44"/>
<path fill-rule="evenodd" clip-rule="evenodd" d="M0 39.3848H972.81V78.7698H0V39.3848ZM0 118.155H972.81V157.54H0V118.155ZM0 196.925H972.81V236.31H0V196.925ZM0 275.695H972.81V315.08H0V275.695ZM0 354.465H972.81V393.85H0V354.465ZM0 433.235H972.81V472.62H0V433.235Z" fill="white"/>
<path fill-rule="evenodd" clip-rule="evenodd" d="M0 0H389.124V275.695H0V0Z" fill="#192F5D"/>
<path fill-rule="evenodd" clip-rule="evenodd" d="M32.2956 11.8154L36.2341 22.8432H47.2619L38.2033 29.5387L41.748 40.1726L32.2956 33.4772L23.6309 40.1726L27.1755 29.5387L17.7231 22.8432H29.5386L32.2956 11.8154ZM97.2809 11.8154L100.826 22.8432H112.247L102.795 29.5387L106.733 40.1726L97.2809 33.4772L87.8284 40.1726L91.7669 29.5387L82.3145 22.8432H93.7362L97.2809 11.8154ZM162.266 11.8154L165.811 22.8432H177.232L167.78 29.5387L171.718 40.1726L162.266 33.4772L152.814 40.1726L156.752 29.5387L147.3 22.8432H158.721L162.266 11.8154ZM226.857 11.8154L230.796 22.8432H241.824L232.765 29.5387L236.31 40.1726L226.857 33.4772L217.799 40.1726L221.344 29.5387L211.891 22.8432H223.707L226.857 11.8154ZM291.843 11.8154L295.387 22.8432H306.809L297.357 29.5387L301.295 40.1726L291.449 33.4772L282.39 40.1726L285.935 29.5387L276.483 22.8432H287.904L291.843 11.8154ZM356.828 11.8154L360.373 22.8432H371.794L362.342 29.5387L366.28 40.1726L356.828 33.4772L347.376 40.1726L351.314 29.5387L341.862 22.8432H353.283L356.828 11.8154ZM64.9851 39.3849L68.5298 50.4127H79.9514L70.499 57.1082L74.4375 67.7421L64.9851 61.0467L55.5327 67.7421L59.4712 57.1082L50.0188 50.4127H61.4405L64.9851 39.3849ZM129.577 39.3849L133.515 50.4127H144.543L135.484 57.1082L139.029 67.7421L129.577 61.0467L120.518 67.7421L124.063 57.1082L114.61 50.4127H126.426L129.577 39.3849ZM194.562 39.3849L198.106 50.4127H209.528L200.076 57.1082L204.014 67.7421L194.562 61.0467L185.109 67.7421L189.048 57.1082L179.595 50.4127H191.017L194.562 39.3849ZM259.547 39.3849L263.092 50.4127H274.513L265.061 57.1082L268.999 67.7421L259.547 61.0467L250.095 67.7421L254.033 57.1082L244.581 50.4127H256.002L259.547 39.3849ZM324.138 39.3849L328.077 50.4127H338.711L329.652 57.1082L333.197 67.7421L323.745 61.0467L314.686 67.7421L318.231 57.1082L308.778 50.4127H320.594L324.138 39.3849ZM32.6894 66.9544L35.8402 77.9822H47.6557L38.2033 84.6777L41.748 95.3116L32.2956 88.6162L23.6309 95.3116L27.1755 84.6777L17.7231 77.9822H29.5386L32.6894 66.9544ZM97.2809 66.9544L100.826 77.9822H112.247L103.189 84.6777L106.733 95.3116L97.2809 88.6162L88.2223 95.3116L91.7669 84.6777L82.3145 77.9822H93.7362L97.2809 66.9544ZM162.266 66.9544L165.811 77.9822H177.232L167.78 84.6777L171.718 95.3116L162.266 88.6162L152.814 95.3116L156.752 84.6777L147.3 77.9822H158.721L162.266 66.9544ZM226.857 66.9544L230.796 77.9822H241.824L232.765 84.6777L236.31 95.3116L226.857 88.6162L217.799 95.3116L221.344 84.6777L211.891 77.9822H223.707L226.857 66.9544ZM291.843 66.9544L295.387 77.9822H306.809L297.75 84.6777L301.295 95.3116L291.843 88.6162L282.784 95.3116L286.329 84.6777L276.876 77.9822H288.298L291.843 66.9544ZM356.828 66.9544L360.373 77.9822H371.794L362.342 84.6777L366.28 95.3116L356.828 88.6162L347.376 95.3116L351.314 84.6777L341.862 77.9822H353.283L356.828 66.9544ZM64.9851 94.5239L68.5298 105.552H79.9514L70.499 112.247L74.4375 122.881L64.9851 116.186L55.5327 122.881L59.4712 112.247L50.0188 105.552H61.4405L64.9851 94.5239ZM129.577 94.5239L133.515 105.552H144.543L135.484 112.247L139.029 122.881L129.577 116.186L120.518 122.881L124.063 112.247L114.61 105.552H126.426L129.577 94.5239ZM194.562 94.5239L198.106 105.552H209.528L200.47 112.247L204.014 122.881L194.562 116.186L185.503 122.881L189.048 112.247L179.595 105.552H191.017L194.562 94.5239ZM259.547 94.5239L263.092 105.552H274.513L265.061 112.247L268.999 122.881L259.547 116.186L250.095 122.881L254.033 112.247L244.581 105.552H256.002L259.547 94.5239ZM324.138 94.5239L328.077 105.552H338.711L329.652 112.247L333.197 122.881L323.745 116.186L314.686 122.881L318.231 112.247L308.778 105.552H320.594L324.138 94.5239ZM32.6894 122.093L35.8402 133.121H47.6557L38.2033 139.817L41.748 150.451L32.2956 143.755L23.6309 150.451L27.1755 139.817L17.7231 133.121H29.5386L32.6894 122.093ZM97.2809 122.093L100.826 133.121H112.247L103.189 139.817L106.733 150.451L97.2809 143.755L88.2223 150.451L91.7669 139.817L82.3145 133.121H93.7362L97.2809 122.093ZM162.266 122.093L165.811 133.121H177.232L167.78 139.817L171.718 150.451L162.266 143.755L152.814 150.451L156.752 139.817L147.3 133.121H158.721L162.266 122.093ZM226.857 122.093L230.796 133.121H241.824L232.765 139.817L236.31 150.451L226.857 143.755L217.799 150.451L221.344 139.817L211.891 133.121H223.707L226.857 122.093ZM291.843 122.093L295.387 133.121H306.809L297.75 139.817L301.295 150.451L291.843 143.755L282.784 150.451L286.329 139.817L276.876 133.121H288.298L291.843 122.093ZM356.828 122.093L360.373 133.121H371.794L362.342 139.817L366.28 150.451L356.828 143.755L347.376 150.451L351.314 139.817L341.862 133.121H353.283L356.828 122.093ZM64.9851 149.663L68.5298 160.691H79.9514L70.499 167.386L74.4375 178.02L64.9851 171.325L55.5327 178.02L59.4712 167.386L50.0188 160.691H61.4405L64.9851 149.663ZM129.577 149.663L133.515 160.691H144.543L135.484 167.386L139.029 178.02L129.577 171.325L120.518 178.02L124.063 167.386L114.61 160.691H126.426L129.577 149.663ZM194.562 149.663L198.106 160.691H209.528L200.47 167.386L204.014 178.02L194.562 171.325L185.503 178.02L189.048 167.386L179.595 160.691H191.017L194.562 149.663ZM259.547 149.663L263.092 160.691H274.513L265.061 167.386L268.999 178.02L259.547 171.325L250.095 178.02L254.033 167.386L244.581 160.691H256.002L259.547 149.663ZM324.138 149.663L328.077 160.691H338.711L329.652 167.386L333.197 178.02L323.745 171.325L314.686 178.02L318.231 167.386L308.778 160.691H320.594L324.138 149.663ZM32.6894 177.232L35.8402 188.26H47.6557L38.2033 194.956L41.748 205.59L32.2956 198.894L23.6309 205.59L27.1755 194.956L17.7231 188.26H29.5386L32.6894 177.232ZM97.2809 177.232L100.826 188.26H112.247L103.189 194.956L106.733 205.59L97.2809 198.894L88.2223 205.59L91.7669 194.956L82.3145 188.26H93.7362L97.2809 177.232ZM162.266 177.232L165.811 188.26H177.232L167.78 194.956L171.718 205.59L162.266 198.894L152.814 205.59L156.752 194.956L147.3 188.26H158.721L162.266 177.232ZM226.857 177.232L230.796 188.26H241.824L232.765 194.956L236.31 205.59L226.857 198.894L217.799 205.59L221.344 194.956L211.891 188.26H223.707L226.857 177.232ZM291.843 177.232L295.387 188.26H306.809L297.75 194.956L301.295 205.59L291.843 198.894L282.784 205.59L286.329 194.956L276.876 188.26H288.298L291.843 177.232ZM356.828 177.232L360.373 188.26H371.794L362.342 194.956L366.28 205.59L356.828 198.894L347.376 205.59L351.314 194.956L341.862 188.26H353.283L356.828 177.232ZM64.9851 204.802L68.5298 215.83H79.9514L70.499 222.525L74.4375 233.159L64.9851 226.464L55.5327 233.159L59.4712 222.525L50.0188 215.83H61.4405L64.9851 204.802ZM129.577 204.802L133.515 215.83H144.543L135.484 222.525L139.029 233.159L129.577 226.464L120.518 233.159L124.063 222.525L114.61 215.83H126.426L129.577 204.802ZM194.562 204.802L198.106 215.83H209.528L200.47 222.525L204.014 233.159L194.562 226.464L185.503 233.159L189.048 222.525L179.595 215.83H191.017L194.562 204.802ZM259.547 204.802L263.092 215.83H274.513L265.061 222.525L268.999 233.159L259.547 226.464L250.095 233.159L254.033 222.525L244.581 215.83H256.002L259.547 204.802ZM324.138 204.802L328.077 215.83H338.711L329.652 222.525L333.197 233.159L323.745 226.464L314.686 233.159L318.231 222.525L308.778 215.83H320.594L324.138 204.802ZM32.6894 232.371L35.8402 243.399H47.6557L38.2033 250.095L41.748 260.729L32.2956 254.033L23.6309 260.729L27.1755 250.095L17.7231 243.399H29.5386L32.6894 232.371ZM97.2809 232.371L100.826 243.399H112.247L103.189 250.095L106.733 260.729L97.2809 254.033L88.2223 260.729L91.7669 250.095L82.3145 243.399H93.7362L97.2809 232.371ZM162.266 232.371L165.811 243.399H177.232L167.78 250.095L171.718 260.729L162.266 254.033L152.814 260.729L156.752 250.095L147.3 243.399H158.721L162.266 232.371ZM226.857 232.371L230.796 243.399H241.824L232.765 250.095L236.31 260.729L226.857 254.033L217.799 260.729L221.344 250.095L211.891 243.399H223.707L226.857 232.371ZM291.843 232.371L295.387 243.399H306.809L297.75 250.095L301.295 260.729L291.843 254.033L282.784 260.729L286.329 250.095L276.876 243.399H288.298L291.843 232.371ZM356.828 232.371L360.373 243.399H371.794L362.342 250.095L366.28 260.729L356.828 254.033L347.376 260.729L351.314 250.095L341.862 243.399H353.283L356.828 232.371Z" fill="white"/>
</g>
<defs>
<clipPath id="clip0_2_39096">
<rect width="512" height="512" fill="white"/>
</clipPath>
</defs>
</svg>
