<svg xmlns="http://www.w3.org/2000/svg" fill="none" viewBox="0 0 16 16" id="Usdc--Streamline-Cryptocurrency" height="16" width="16">
  <desc>
    Usdc Streamline Icon: https://streamlinehq.com
  </desc>
  <path fill="#3e73c4" d="M8 16c4.4183 0 8 -3.5817 8 -8 0 -4.41828 -3.5817 -8 -8 -8C3.58172 0 0 3.58172 0 8c0 4.4183 3.58172 8 8 8Z" stroke-width="0.5"></path>
  <path fill="#ffffff" d="M10.01105 9.062c0 -1.062 -0.64 -1.426 -1.92 -1.578 -0.914 -0.1215 -1.0965 -0.364 -1.0965 -0.789 0 -0.425 0.305 -0.698 0.914 -0.698 0.5485 0 0.8535 0.182 1.0055 0.6375 0.0158 0.04405 0.04475 0.0822 0.08295 0.10925 0.03815 0.0271 0.0837 0.04185 0.13055 0.04225h0.4875c0.02815 0.00075 0.05615 -0.0042 0.08235 -0.0146 0.02615 -0.0104 0.04995 -0.02605 0.0699 -0.0459 0.01995 -0.01985 0.0357 -0.0436 0.0462 -0.0697 0.01055 -0.02615 0.01565 -0.05415 0.01505 -0.0823v-0.03c-0.0596 -0.32955 -0.22635 -0.6302 -0.47435 -0.85525 -0.248 -0.22505 -0.5634 -0.36185 -0.89715 -0.38925V4.571005c0 -0.1215 -0.0915 -0.2125 -0.2435 -0.243h-0.4575c-0.1215 0 -0.213 0.091 -0.2435 0.243V5.269c-0.9145 0.121 -1.493 0.728 -1.493 1.487 0 1.001 0.609 1.3955 1.889 1.5475 0.8535 0.1515 1.1275 0.334 1.1275 0.8195 0 0.485 -0.4265 0.819 -1.0055 0.819 -0.7925 0 -1.0665 -0.3335 -1.158 -0.789 -0.03 -0.121 -0.122 -0.182 -0.2135 -0.182h-0.518c-0.02815 -0.0007 -0.0561 0.00435 -0.0822 0.0148 -0.02615 0.0104 -0.04985 0.02605 -0.0698 0.0459 -0.0199 0.01985 -0.03555 0.04355 -0.04605 0.06965 -0.0105 0.0261 -0.0156 0.05405 -0.01495 0.08215v0.03c0.1215 0.759 0.6095 1.305 1.615 1.457v0.7285c0 0.121 0.0915 0.2125 0.2435 0.2425h0.4575c0.1215 0 0.213 -0.091 0.2435 -0.2425V10.67c0.9145 -0.1515 1.5235 -0.789 1.5235 -1.6085v0.0005Z" stroke-width="0.5"></path>
  <path fill="#ffffff" d="M6.446 12.2485c-2.37698 -0.85 -3.59598 -3.49 -2.71198 -5.8265 0.457 -1.275 1.46248 -2.2455 2.71198 -2.701 0.122 -0.0605 0.1825 -0.1515 0.1825 -0.3035v-0.425c0 -0.121 -0.0605 -0.212 -0.1825 -0.2425 -0.0305 0 -0.0915 0 -0.122 0.03 -0.68575 0.21416 -1.3224 0.561865 -1.87327 1.023085 -0.550855 0.461225 -1.00503 1.026855 -1.336385 1.664315 -0.331355 0.6375 -0.53334 1.3342 -0.59432 2.05005 -0.06098 0.71585 0.020245 1.4367 0.238995 2.12105 0.548 1.7 1.8585 3.005 3.56498 3.551 0.122 0.0605 0.244 0 0.274 -0.1215 0.0305 -0.03 0.0305 -0.061 0.0305 -0.1215v-0.425c0 -0.091 -0.091 -0.212 -0.1825 -0.273Zm3.23 -9.468c-0.122 -0.061 -0.244 0 -0.274 0.121 -0.0305 0.0305 -0.0305 0.061 -0.0305 0.1215v0.425c0 0.1215 0.091 0.2425 0.1825 0.3035 2.377 0.85 3.596 3.49 2.712 5.8265 -0.457 1.275 -1.4625 2.2455 -2.712 2.701 -0.122 0.0605 -0.1825 0.1515 -0.1825 0.3035v0.425c0 0.121 0.0605 0.212 0.1825 0.2425 0.0305 0 0.0915 0 0.122 -0.03 0.6858 -0.21415 1.32245 -0.56185 1.8733 -1.0231 0.55085 -0.4612 1.00505 -1.02685 1.3364 -1.6643 0.33135 -0.6375 0.53335 -1.3342 0.5943 -2.05005 0.061 -0.71585 -0.02025 -1.4367 -0.239 -2.12105 -0.548 -1.73 -1.889 -3.035 -3.565 -3.581Z" stroke-width="0.5"></path>
</svg>