<svg xmlns="http://www.w3.org/2000/svg" fill="none" viewBox="0 0 16 16" id="Usdt--Streamline-Cryptocurrency" height="16" width="16">
  <desc>
    Usdt Streamline Icon: https://streamlinehq.com
  </desc>
  <path fill="#26a17b" d="M8 16c4.4183 0 8 -3.5817 8 -8 0 -4.41828 -3.5817 -8 -8 -8C3.58172 0 0 3.58172 0 8c0 4.4183 3.58172 8 8 8Z" stroke-width="0.5"></path>
  <path fill="#ffffff" fill-rule="evenodd" d="M8.961 8.6915v-0.001c-0.055 0.004 -0.3385 0.021 -0.971 0.021 -0.505 0 -0.8605 -0.015 -0.9855 -0.021v0.0015c-1.944 -0.0855 -3.394975 -0.424 -3.394975 -0.829 0 -0.4045 1.450975 -0.743 3.394975 -0.83v1.322c0.127 0.009 0.491 0.0305 0.994 0.0305 0.6035 0 0.906 -0.025 0.9625 -0.03v-1.3215c1.94 0.0865 3.3875 0.425 3.3875 0.829 0 0.405 -1.4475 0.7425 -3.3875 0.8285Zm0 -1.795v-1.183h2.707V3.909485H4.297525V5.7135H7.0045v1.1825c-2.199975 0.101 -3.854475 0.537 -3.854475 1.059 0 0.522 1.6545 0.9575 3.854475 1.059v3.791h1.9565v-3.792c2.1965 -0.101 3.847 -0.5365 3.847 -1.058 0 -0.5215 -1.6505 -0.957 -3.847 -1.0585Z" clip-rule="evenodd" stroke-width="0.5"></path>
</svg>