<svg xmlns="http://www.w3.org/2000/svg" viewBox="0 0 24 24">
  <defs>
    <linearGradient id="g2fa" x1="12" y1="4.5" x2="12" y2="19.5" gradientUnits="userSpaceOnUse">
      <stop offset="0" stop-color="#7CA6FF"/>
      <stop offset="1" stop-color="#2F5BFF"/>
    </linearGradient>
  </defs>

  <!-- shield -->
  <path fill="url(#g2fa)" d="M12 4.6c.2 0 .4.05.6.14l5.4 2.5c.5.23.8.74.8 1.29v4.3c0 3.8-2.3 6.7-6.2 8.1-.25.09-.53.09-.78 0-3.9-1.4-6.2-4.3-6.2-8.1V8.53c0-.55.3-1.06.8-1.29l5.4-2.5c.2-.09.4-.14.6-.14Z"/>

  <!-- "2" mark -->
  <path fill="#FFFFFF" fill-opacity=".92" d="M10.0 15.8c0-.5.4-.9.9-.9h3.2c.5 0 .9.4.9.9s-.4.9-.9.9h-3.2c-.5 0-.9-.4-.9-.9Zm.2-4.2c0-1.5 1.2-2.7 2.7-2.7h.3c1.5 0 2.7 1.2 2.7 2.7 0 .8-.35 1.45-.95 2.05l-1.35 1.25c-.25.23-.6.35-.95.35H10.8c-.5 0-.9-.4-.9-.9s.4-.9.9-.9h1.45l.95-.9c.35-.33.5-.55.5-.97 0-.5-.4-.9-.9-.9h-.3c-.5 0-.9.4-.9.9 0 .5-.4.9-.9.9s-.9-.4-.9-.9Z"/>
</svg>
