<svg xmlns="http://www.w3.org/2000/svg" viewBox="0 0 24 24">
  <defs>
    <linearGradient id="gBioPro" x1="12" y1="5" x2="12" y2="19" gradientUnits="userSpaceOnUse">
      <stop offset="0" stop-color="#FF66A6"/>
      <stop offset="1" stop-color="#FF2D7A"/>
    </linearGradient>
  </defs>

  <!-- FaceID corners (thick, clean) -->
  <path d="M8.3 7.2H7.4A2.4 2.4 0 0 0 5.0 9.6v.9"
        fill="none" stroke="url(#gBioPro)" stroke-width="3.6" stroke-linecap="round"/>
  <path d="M15.7 7.2h.9A2.4 2.4 0 0 1 19.0 9.6v.9"
        fill="none" stroke="url(#gBioPro)" stroke-width="3.6" stroke-linecap="round"/>
  <path d="M8.3 16.8H7.4A2.4 2.4 0 0 1 5.0 14.4v-.9"
        fill="none" stroke="url(#gBioPro)" stroke-width="3.6" stroke-linecap="round"/>
  <path d="M15.7 16.8h.9A2.4 2.4 0 0 0 19.0 14.4v-.9"
        fill="none" stroke="url(#gBioPro)" stroke-width="3.6" stroke-linecap="round"/>

  <!-- minimal face (small, not noisy) -->
  <circle cx="10.2" cy="11.3" r="0.85" fill="#FFFFFF" fill-opacity=".92"/>
  <circle cx="13.8" cy="11.3" r="0.85" fill="#FFFFFF" fill-opacity=".92"/>
  <path d="M10.4 14.1c.55.65 1.18.95 1.6.95s1.05-.30 1.60-.95"
        fill="none" stroke="#FFFFFF" stroke-opacity=".92" stroke-width="1.6" stroke-linecap="round"/>
</svg>
