<svg xmlns="http://www.w3.org/2000/svg" viewBox="0 0 24 24" fill="none">
  <path d="M7.1 9.2h9.8c.6 0 1.1.5 1.1 1.1v1.5c0 3.6-2.8 6.5-6 6.5s-6-2.9-6-6.5v-1.5c0-.6.5-1.1 1.1-1.1Z" fill="#FAD6EB" stroke="#C11574" stroke-width="1.8"/>
  <path d="M9.3 7.9v-.9c0-.6.5-1.1 1.1-1.1h3.2c.6 0 1.1.5 1.1 1.1v.9" stroke="#EE46BC" stroke-width="1.8" stroke-linecap="round"/>
  <path d="M6.8 9.7H5.7c-.9 0-1.6.7-1.6 1.6v.9c0 1.9 1.3 3.5 3 3.9" stroke="#EE46BC" stroke-width="1.7" stroke-linecap="round"/>
  <path d="M17.2 9.7h1.1c.9 0 1.6.7 1.6 1.6v.9c0 1.9-1.3 3.5-3 3.9" stroke="#C11574" stroke-width="1.7" stroke-linecap="round"/>
  <circle cx="12" cy="12.7" r="2.3" fill="#F4D3E8" stroke="#C11574" stroke-width="1.4"/>
  <path d="M12 11.3v2.8" stroke="#C11574" stroke-width="1.4" stroke-linecap="round"/>
  <path d="m10.8 12.6 1.2-.9 1.2.9" stroke="#C11574" stroke-width="1.4" stroke-linecap="round" stroke-linejoin="round"/>
  <rect x="8.7" y="17.6" width="6.6" height="1.5" rx="0.75" fill="#EE46BC" fill-opacity="0.35"/>
</svg>
