<svg xmlns="http://www.w3.org/2000/svg" viewBox="0 0 24 24">
  <defs>
    <linearGradient id="gInv" x1="7" y1="18" x2="18" y2="6" gradientUnits="userSpaceOnUse">
      <stop offset="0" stop-color="#7B6CFF"/>
      <stop offset="1" stop-color="#4C7DFF"/>
    </linearGradient>
  </defs>

  <!-- chart panel -->
  <path fill="url(#gInv)" d="M5.4 6.2c0-1.3.9-2.2 2.2-2.2h8.8c1.3 0 2.2.9 2.2 2.2v11.6c0 1.3-.9 2.2-2.2 2.2H7.6c-1.3 0-2.2-.9-2.2-2.2V6.2Z"/>

  <!-- candles (white cuts) -->
  <path fill="#FFFFFF" fill-opacity=".92" d="M8.2 10.2c0-.5.4-.9.9-.9h.6c.5 0 .9.4.9.9v4.6c0 .5-.4.9-.9.9h-.6c-.5 0-.9-.4-.9-.9v-4.6Z"/>
  <path fill="#FFFFFF" fill-opacity=".92" d="M11.3 8.6c0-.5.4-.9.9-.9h.6c.5 0 .9.4.9.9v6.2c0 .5-.4.9-.9.9h-.6c-.5 0-.9-.4-.9-.9V8.6Z"/>
  <path fill="#FFFFFF" fill-opacity=".92" d="M14.4 11.1c0-.5.4-.9.9-.9h.6c.5 0 .9.4.9.9v3.7c0 .5-.4.9-.9.9h-.6c-.5 0-.9-.4-.9-.9v-3.7Z"/>

  <!-- upward line (subtle, same gradient) -->
  <path fill="url(#gInv)" fill-opacity=".35" d="M7.9 15.2c.33-.33.87-.33 1.2 0l1.2 1.2 2.0-2.0c.33-.33.87-.33 1.2 0l.9.9 1.7-1.7c.33-.33.87-.33 1.2 0 .33.33.33.87 0 1.2l-2.3 2.3c-.33.33-.87.33-1.2 0l-.9-.9-2.0 2.0c-.33.33-.87.33-1.2 0l-1.8-1.8c-.33-.33-.33-.87 0-1.2Z"/>
</svg>
