<svg xmlns="http://www.w3.org/2000/svg" viewBox="0 0 24 24">
  <defs>
    <linearGradient id="gDoc" x1="12" y1="4.5" x2="12" y2="19.5" gradientUnits="userSpaceOnUse">
      <stop offset="0" stop-color="#7CA6FF"/>
      <stop offset="1" stop-color="#2F5BFF"/>
    </linearGradient>
  </defs>

  <path fill="url(#gDoc)" d="M6.2 4.6h8.2l3.4 3.4v12.2c0 1.1-.9 2-2 2H6.2c-1.1 0-2-.9-2-2V6.6c0-1.1.9-2 2-2Z"/>
  <path fill="#FFFFFF" fill-opacity=".92" d="M14.4 4.6V8.0h3.4L14.4 4.6Z"/>
  <path fill="#FFFFFF" fill-opacity=".28" d="M7.3 11.0h8.6c.5 0 .9.4.9.9s-.4.9-.9.9H7.3c-.5 0-.9-.4-.9-.9s.4-.9.9-.9ZM7.3 14.2h7.2c.5 0 .9.4.9.9s-.4.9-.9.9H7.3c-.5 0-.9-.4-.9-.9s.4-.9.9-.9Z"/>
</svg>
