<svg xmlns="http://www.w3.org/2000/svg" viewBox="0 0 24 24">
  <defs>
    <linearGradient id="gBell" x1="12" y1="4.5" x2="12" y2="19.5" gradientUnits="userSpaceOnUse">
      <stop offset="0" stop-color="#FF7A7A"/>
      <stop offset="1" stop-color="#FF3B3B"/>
    </linearGradient>
  </defs>

  <path fill="url(#gBell)" d="M12 4.3c3.2 0 5.8 2.6 5.8 5.8v2.5c0 .9.3 1.7.9 2.4l.9 1.0c.5.6.1 1.5-.7 1.5H5.2c-.8 0-1.2-.9-.7-1.5l.9-1.0c.6-.7.9-1.5.9-2.4v-2.5c0-3.2 2.6-5.8 5.8-5.8Z"/>
  <path fill="url(#gBell)" d="M9.5 17.6c0-.6.5-1.1 1.1-1.1h2.8c.6 0 1.1.5 1.1 1.1a2.5 2.5 0 0 1-5 0Z"/>
</svg>
