<svg xmlns="http://www.w3.org/2000/svg" viewBox="0 0 24 24">
  <defs>
    <linearGradient id="gGift" x1="12" y1="5" x2="12" y2="19" gradientUnits="userSpaceOnUse">
      <stop offset="0" stop-color="#4AE3A7"/>
      <stop offset="1" stop-color="#1FBF7F"/>
    </linearGradient>
  </defs>

  <path fill="url(#gGift)" d="M5.2 10.2h13.6c.7 0 1.2.5 1.2 1.2v7.0c0 1.3-.9 2.2-2.2 2.2H6.2c-1.3 0-2.2-.9-2.2-2.2v-7c0-.7.5-1.2 1.2-1.2Z"/>
  <path fill="url(#gGift)" d="M4.2 8.0c0-1.1.9-2 2-2h11.6c1.1 0 2 .9 2 2v1.8H4.2V8Z"/>
  <path fill="#FFFFFF" fill-opacity=".92" d="M11.2 6.1c-.7-.9-.5-2.1.5-2.7.9-.6 2.2-.3 2.8.6.4.6.4 1.3.1 1.9-.3.6-1 .9-1.7.9h-1.7Z"/>
  <path fill="#FFFFFF" fill-opacity=".92" d="M12.8 6.1c.7-.9.5-2.1-.5-2.7-.9-.6-2.2-.3-2.8.6-.4.6-.4 1.3-.1 1.9.3.6 1 .9 1.7.9h1.7Z"/>
  <path fill="#FFFFFF" fill-opacity=".28" d="M11.3 8.0h1.4v12.6h-1.4V8Z"/>
</svg>
