<svg xmlns="http://www.w3.org/2000/svg" viewBox="0 0 24 24">
  <defs>
    <linearGradient id="gPin" x1="12" y1="4.5" x2="12" y2="19.5" gradientUnits="userSpaceOnUse">
      <stop offset="0" stop-color="#7CA6FF"/>
      <stop offset="1" stop-color="#2F5BFF"/>
    </linearGradient>
  </defs>

  <!-- keypad body -->
  <path fill="url(#gPin)" d="M7.0 4.8h10.0c1.3 0 2.2.9 2.2 2.2v10.0c0 1.3-.9 2.2-2.2 2.2H7.0c-1.3 0-2.2-.9-2.2-2.2V7.0c0-1.3.9-2.2 2.2-2.2Z"/>

  <!-- dots -->
  <circle cx="9.2" cy="9.2" r="1.0" fill="#FFFFFF" fill-opacity=".92"/>
  <circle cx="12.0" cy="9.2" r="1.0" fill="#FFFFFF" fill-opacity=".92"/>
  <circle cx="14.8" cy="9.2" r="1.0" fill="#FFFFFF" fill-opacity=".92"/>

  <circle cx="9.2" cy="12.1" r="1.0" fill="#FFFFFF" fill-opacity=".92"/>
  <circle cx="12.0" cy="12.1" r="1.0" fill="#FFFFFF" fill-opacity=".92"/>
  <circle cx="14.8" cy="12.1" r="1.0" fill="#FFFFFF" fill-opacity=".92"/>

  <circle cx="9.2" cy="15.0" r="1.0" fill="#FFFFFF" fill-opacity=".92"/>
  <circle cx="12.0" cy="15.0" r="1.0" fill="#FFFFFF" fill-opacity=".92"/>
  <circle cx="14.8" cy="15.0" r="1.0" fill="#FFFFFF" fill-opacity=".92"/>
</svg>
