<svg xmlns="http://www.w3.org/2000/svg" viewBox="0 0 24 24">
  <defs>
    <linearGradient id="gLimit" x1="12" y1="4.5" x2="12" y2="19.5" gradientUnits="userSpaceOnUse">
      <stop offset="0" stop-color="#7CA6FF"/>
      <stop offset="1" stop-color="#2F5BFF"/>
    </linearGradient>
  </defs>

  <!-- center dial -->
  <circle cx="12" cy="12.3" r="5.6" fill="url(#gLimit)"/>

  <!-- dots around (Fuse vibe) -->
  <circle cx="12" cy="4.6" r="0.9" fill="#7CA6FF" fill-opacity=".85"/>
  <circle cx="16.8" cy="5.9" r="0.9" fill="#7CA6FF" fill-opacity=".75"/>
  <circle cx="19.4" cy="10.2" r="0.9" fill="#7CA6FF" fill-opacity=".65"/>
  <circle cx="18.4" cy="15.1" r="0.9" fill="#7CA6FF" fill-opacity=".55"/>
  <circle cx="14.4" cy="18.7" r="0.9" fill="#7CA6FF" fill-opacity=".45"/>
  <circle cx="9.6" cy="18.7" r="0.9" fill="#7CA6FF" fill-opacity=".45"/>
  <circle cx="5.6" cy="15.1" r="0.9" fill="#7CA6FF" fill-opacity=".55"/>
  <circle cx="4.6" cy="10.2" r="0.9" fill="#7CA6FF" fill-opacity=".65"/>

  <!-- needle -->
  <path d="M13 12.3c0 .4-.3.7-.7.7-.1 0-.3 0-.4-.1l-2.9 2.3c-.4.3-1 .2-1.3-.2-.3-.4-.2-1 .2-1.3l2.7-2.0c0-.1-.1-.3-.1-.4 0-.4.3-.7.7-.7h1.1c.4 0 .7.3.7.7Z" fill="#FFFFFF" fill-opacity=".92"/>
</svg>