<svg width="48" height="48" viewBox="0 0 48 48" fill="none" xmlns="http://www.w3.org/2000/svg">
<g clip-path="url(#clip0_3_448)">
<path d="M22.7021 23.7828V29.3684H20.9287V15.5714H25.6296C26.7636 15.5473 27.8594 15.9775 28.6737 16.7657C29.4981 17.5076 29.9625 18.5693 29.9444 19.6771C29.9686 20.793 29.5041 21.8627 28.6737 22.6066C27.8514 23.3908 26.836 23.7828 25.6296 23.7808L22.7021 23.7828ZM22.7021 17.2704V22.0879H25.6739C26.3333 22.108 26.9687 21.8486 27.4271 21.3741C28.3581 20.4693 28.3802 18.9794 27.4734 18.0485C27.4573 18.0324 27.4432 18.0163 27.4271 18.0023C26.9747 17.5177 26.3354 17.2523 25.6739 17.2704H22.7021ZM34.0301 19.6208C35.341 19.6208 36.3745 19.9707 37.1325 20.6704C37.8905 21.3701 38.2685 22.3312 38.2685 23.5496V29.3684H36.5735V28.0575H36.4971C35.7632 29.1372 34.7861 29.676 33.5676 29.676C32.5281 29.676 31.6575 29.3684 30.9578 28.7511C30.2782 28.1781 29.8922 27.3296 29.9083 26.4389C29.9083 25.4617 30.2782 24.6856 31.0161 24.1086C31.754 23.5315 32.7392 23.242 33.9738 23.242C35.0253 23.242 35.8939 23.435 36.5735 23.819V23.4129C36.5775 22.8057 36.3081 22.2306 35.8417 21.8446C35.3732 21.4224 34.7619 21.1911 34.1306 21.1992C33.1414 21.1992 32.3572 21.6174 31.7802 22.4518L30.2199 21.4686C31.0764 20.2361 32.3472 19.6208 34.0301 19.6208ZM31.7359 26.4791C31.7339 26.9375 31.9531 27.3678 32.323 27.6352C32.7151 27.9429 33.2017 28.1077 33.7003 28.0977C34.4483 28.0957 35.1661 27.7981 35.6949 27.2693C36.282 26.7164 36.5755 26.0689 36.5755 25.323C36.0226 24.8827 35.2525 24.6615 34.2633 24.6615C33.5435 24.6615 32.9423 24.8344 32.4618 25.1823C31.9772 25.5361 31.7359 25.9644 31.7359 26.4791ZM48 19.9285L42.0827 33.5304H40.253L42.4486 28.7712L38.556 19.9285H40.4822L43.2951 26.7103H43.3333L46.0698 19.9285H48Z" fill="black"/>
<path d="M15.5382 22.5765C15.5382 22.0356 15.494 21.4968 15.4015 20.9639H7.92595V24.0161H12.2066C12.0297 25.0013 11.4586 25.8719 10.6242 26.4248V28.4073H13.1797C14.6757 27.03 15.5382 24.9892 15.5382 22.5765Z" fill="black"/>
<path d="M7.92594 30.3235C10.0653 30.3235 11.8668 29.6217 13.1797 28.4093L10.6242 26.4268C9.91245 26.9094 8.99761 27.1849 7.92594 27.1849C5.859 27.1849 4.10371 25.7915 3.47639 23.9135H0.844467V25.9564C2.18959 28.6345 4.93009 30.3235 7.92594 30.3235Z" fill="black"/>
<path d="M3.47639 23.9136C3.14463 22.9304 3.14463 21.8627 3.47639 20.8795V18.8367H0.844461C-0.281497 21.0766 -0.281497 23.7165 0.844461 25.9564L3.47639 23.9136Z" fill="black"/>
<path d="M7.92594 17.6082C9.05592 17.5901 10.1477 18.0163 10.966 18.7965L13.23 16.5345C11.7944 15.1874 9.89436 14.4475 7.92594 14.4696C4.93009 14.4696 2.18958 16.1605 0.844467 18.8367L3.47639 20.8795C4.10371 19.0015 5.859 17.6082 7.92594 17.6082Z" fill="black"/>
</g>
<defs>
<clipPath id="clip0_3_448">
<rect width="48" height="48" fill="white"/>
</clipPath>
</defs>
</svg>
