<svg width="48" height="48" viewBox="0 0 48 48" fill="none" xmlns="http://www.w3.org/2000/svg">
<path d="M48 15.6L12.884 30.552C9.97199 31.784 7.52599 32.402 5.54799 32.402C3.30799 32.402 1.68199 31.618 0.673994 30.048C0.0399939 29.04 -0.146006 27.762 0.113994 26.212C0.373994 24.662 1.06599 23.012 2.18599 21.256C3.11999 19.836 4.64999 17.97 6.77999 15.656C6.05752 16.7933 5.52774 18.0421 5.21199 19.352C4.65199 21.742 5.15599 23.496 6.72399 24.616C7.46999 25.138 8.49599 25.4 9.80399 25.4C10.848 25.4 12.024 25.232 13.332 24.896L48 15.6Z" fill="black"/>
</svg>
