<svg width="48" height="48" viewBox="0 0 48 48" fill="none" xmlns="http://www.w3.org/2000/svg">
<g clip-path="url(#clip0_3_426)">
<path d="M26.414 10.56C26.204 10.522 25.19 10.352 24 10.352C22.81 10.352 21.796 10.522 21.586 10.56C21.466 10.58 21.418 10.464 21.51 10.394C21.594 10.334 24 8.50199 24 8.50199L26.488 10.394C26.582 10.464 26.536 10.582 26.414 10.56ZM22.258 22.45C22.258 22.45 22.13 22.496 22.098 22.608C22.602 22.994 22.948 23.876 24 23.876C25.052 23.876 25.4 22.996 25.902 22.606C25.87 22.494 25.742 22.45 25.742 22.45C25.742 22.45 25.082 22.604 24 22.604C22.916 22.604 22.258 22.45 22.258 22.45ZM24 20.966C23.708 20.966 23.644 20.856 23.444 20.856C23.256 20.856 22.886 21.008 22.806 21.148C22.8111 21.2191 22.8408 21.2863 22.89 21.338C23.314 21.4 23.508 21.638 24 21.638C24.494 21.638 24.686 21.4 25.112 21.338C25.1599 21.2857 25.1888 21.2187 25.194 21.148C25.114 21.008 24.746 20.858 24.556 20.856C24.356 20.856 24.292 20.966 24 20.966ZM47.974 25.506C47.9437 26.0763 47.893 26.6453 47.822 27.212C45.102 27.662 44.132 25.24 41.348 25.362C41.514 25.952 41.648 26.554 41.754 27.168C44.05 27.168 44.974 29.314 47.53 28.998C47.396 29.654 47.234 30.302 47.046 30.938C45.026 31.138 44.316 29.13 41.978 29.186C41.998 29.518 42.008 29.854 42.008 30.194L41.998 30.754L46.538 32.486C46.3004 33.129 46.0355 33.7616 45.744 34.382C44.38 34.308 43.91 32.558 41.834 32.696C41.7718 33.1421 41.6931 33.5857 41.598 34.026C43.4 33.9 43.788 35.56 45.078 35.694C44.7493 36.2932 44.3957 36.8784 44.018 37.448C43.254 37.038 42.59 35.802 41.138 35.726C41.2883 35.2651 41.4191 34.798 41.53 34.326C40.242 34.326 38.77 33.826 37.538 32.702C37.938 30.422 34.402 28.104 34.402 26.436C34.402 24.624 35.318 23.622 35.318 21.18C35.318 19.366 34.438 17.4 33.11 16.056C32.8632 15.8041 32.5872 15.5825 32.288 15.396C33.508 16.904 34.444 18.694 34.444 20.766C34.444 23.066 33.374 24.28 33.374 26.404C33.374 28.526 36.48 30.364 36.48 32.552C36.48 33.412 36.204 34.252 35.296 35.906C36.69 37.298 38.506 38.058 39.676 38.058C40.056 38.058 40.262 37.942 40.398 37.644C40.5154 37.386 40.6268 37.1252 40.732 36.862C41.992 36.91 42.572 38.056 43.27 38.514C42.886 39.03 42.484 39.526 42.062 40.006C41.594 39.488 40.964 38.616 40.042 38.374C39.8779 38.6943 39.7045 39.0098 39.522 39.32C40.314 39.536 40.856 40.336 41.276 40.862C40.823 41.3315 40.3513 41.7825 39.862 42.214C39.556 41.736 39.078 41.132 38.542 40.806C38.3451 41.072 38.1403 41.3321 37.928 41.586C38.382 41.896 38.784 42.45 39.046 42.902C38.48 43.356 37.894 43.788 37.286 44.192C36.986 41.752 33.658 40.082 34.556 37.252C34.262 37.752 33.91 38.374 33.91 39.126C33.91 41.174 36.09 42.798 36.266 44.834C35.814 45.104 35.35 45.358 34.88 45.6C34.8 43.362 32.492 40.914 32.492 39.08C32.492 37.03 35.176 34.97 35.176 32.552C35.176 30.132 32.078 28.454 32.078 26.33C32.078 24.206 33.396 22.984 33.396 20.26C33.396 18.266 32.448 16.248 30.984 14.96C30.7358 14.7356 30.4603 14.5435 30.164 14.388C31.544 16.044 32.344 17.548 32.344 19.826C32.344 22.386 30.834 23.806 30.834 26.314C30.834 28.822 33.874 30.214 33.874 32.554C33.874 34.89 31.046 36.858 31.046 39.26C31.046 41.444 33.538 43.624 33.576 46.214C33.0291 46.4524 32.4734 46.6698 31.91 46.866C32.228 44.248 29.42 41.548 29.42 39.412C29.42 37.078 32.354 35.07 32.354 32.552C32.354 30.032 29.372 28.862 29.372 26.276C29.372 23.692 31.202 22.262 31.202 19.406C31.196 18.3491 30.9495 17.3074 30.4809 16.36C30.0124 15.4126 29.3343 14.5843 28.498 13.938L28.396 13.862C28.244 13.75 28.12 13.884 28.228 14.018C29.364 15.438 29.972 16.872 29.972 18.998C29.972 21.608 27.868 23.73 27.868 26.262C27.868 29.248 30.692 30.102 30.692 32.552C30.692 35.002 27.664 36.962 27.664 39.562C27.664 41.974 30.53 44.652 30.038 47.436C29.4604 47.5863 28.8774 47.7144 28.29 47.82C28.828 44.354 26.016 41.864 26.016 39.596C26.016 37.14 29.152 34.952 29.152 32.552C29.152 30.29 26.902 29.55 26.606 27.234C26.566 26.918 26.312 26.684 25.962 26.742C25.504 26.826 24.918 27.126 23.998 27.126C23.078 27.126 22.492 26.826 22.034 26.742C21.686 26.684 21.432 26.918 21.392 27.234C21.096 29.55 18.844 30.288 18.844 32.554C18.844 34.952 21.98 37.14 21.98 39.594C21.98 41.864 19.17 44.354 19.706 47.82C19.1188 47.7135 18.5357 47.5855 17.958 47.436C17.466 44.652 20.332 41.976 20.332 39.562C20.332 36.962 17.304 35.002 17.304 32.552C17.304 30.102 20.128 29.248 20.128 26.262C20.128 23.73 18.026 21.61 18.026 18.996C18.026 16.872 18.632 15.436 19.77 14.016C19.876 13.884 19.752 13.75 19.6 13.862L19.5 13.938C18.6641 14.5837 17.9864 15.4113 17.5182 16.3581C17.05 17.3048 16.8037 18.3458 16.798 19.402C16.798 22.258 18.628 23.688 18.628 26.274C18.628 28.858 15.644 30.03 15.644 32.55C15.644 35.066 18.578 37.074 18.578 39.41C18.578 41.546 15.772 44.246 16.09 46.864C15.5267 46.6676 14.971 46.4501 14.424 46.212C14.462 43.62 16.954 41.44 16.954 39.256C16.954 36.856 14.126 34.886 14.126 32.55C14.126 30.212 17.164 28.818 17.164 26.31C17.164 23.804 15.656 22.382 15.656 19.822C15.656 17.542 16.456 16.042 17.836 14.386C17.5392 14.5399 17.2636 14.7315 17.016 14.956C16.2702 15.6253 15.6709 16.4417 15.2558 17.3538C14.8407 18.2659 14.6188 19.254 14.604 20.256C14.604 22.98 15.922 24.202 15.922 26.326C15.922 28.452 12.824 30.126 12.824 32.548C12.824 34.968 15.508 37.028 15.508 39.076C15.508 40.912 13.198 43.36 13.12 45.596C12.6496 45.3561 12.1873 45.1007 11.734 44.83C11.908 42.796 14.09 41.17 14.09 39.122C14.09 38.372 13.738 37.748 13.444 37.25C14.34 40.078 11.012 41.75 10.712 44.188C10.1063 43.7846 9.51899 43.3542 8.95199 42.898C9.21399 42.448 9.61598 41.892 10.072 41.584C9.8585 41.3298 9.65307 41.0691 9.45599 40.802C8.91999 41.128 8.44199 41.734 8.13599 42.21C7.64687 41.779 7.17516 41.3286 6.72199 40.86C7.14199 40.332 7.68599 39.532 8.47799 39.316C8.2946 39.0059 8.12053 38.6905 7.95599 38.37C7.03599 38.614 6.40399 39.486 5.93599 40.004C5.51449 39.5227 5.11217 39.025 4.72999 38.512C5.42999 38.052 6.00599 36.906 7.26799 36.858C7.37399 37.12 7.48399 37.382 7.60199 37.638C7.73799 37.938 7.94199 38.054 8.32199 38.054C9.49399 38.054 11.308 37.294 12.702 35.902C11.796 34.25 11.522 33.41 11.522 32.548C11.522 30.36 14.626 28.524 14.626 26.4C14.626 24.278 13.556 23.064 13.556 20.764C13.556 18.69 14.492 16.902 15.712 15.392C15.412 15.5784 15.1354 15.8 14.888 16.052C13.562 17.4 12.68 19.366 12.68 21.178C12.68 23.62 13.598 24.624 13.598 26.436C13.598 28.104 10.062 30.422 10.462 32.7C9.22799 33.824 7.75599 34.326 6.46799 34.326C6.57971 34.7976 6.70981 35.2646 6.85799 35.726C5.40799 35.802 4.74599 37.038 3.97799 37.446C3.60007 36.8772 3.24642 36.2927 2.91799 35.694C4.20999 35.558 4.59799 33.9 6.40199 34.026C6.30694 33.5857 6.22822 33.1421 6.16599 32.696C4.08999 32.556 3.61799 34.308 2.25399 34.382C1.96313 33.7616 1.69889 33.129 1.46199 32.486L5.99999 30.752L5.98999 30.192C5.98999 29.852 5.99999 29.516 6.01799 29.182C3.68199 29.128 2.96999 31.134 0.949986 30.936C0.762681 30.2962 0.601878 29.649 0.467986 28.996C3.01999 29.31 3.94799 27.164 6.24399 27.166C6.34663 26.5566 6.48148 25.9531 6.64799 25.358C3.86399 25.238 2.89199 27.658 0.175986 27.208C0.104628 26.642 0.0539276 26.0737 0.0239858 25.504C3.18399 25.856 4.36599 23.26 7.24399 23.578C7.51348 22.8935 7.82749 22.2274 8.18399 21.584C4.57799 20.95 3.35399 23.966 -0.00201416 23.504C0.361986 10.56 10.968 0.179993 24 0.179993C37.032 0.179993 47.638 10.56 48 23.506C44.642 23.97 43.42 20.954 39.814 21.586C40.168 22.226 40.484 22.894 40.754 23.58C43.63 23.262 44.814 25.86 47.974 25.506ZM13.68 15.436C11.912 14.714 9.77199 14.88 7.94399 16.056C7.65999 14.354 6.73799 12.842 5.42399 11.932C5.24199 11.806 5.05399 11.924 5.06999 12.136C5.34799 15.728 3.24599 18.848 0.663986 21.592C3.32599 22.392 5.59199 18.964 9.04399 20.16C10.2853 18.3134 11.857 16.7118 13.68 15.436ZM24 13.262C21.772 13.262 19.904 14.522 19.416 16.152C19.376 16.276 19.428 16.358 19.572 16.292C19.972 16.112 20.43 16.026 20.926 16.026C21.834 16.026 22.636 16.36 23.11 16.94C23.318 17.632 23.336 18.634 23.1 19.204C22.726 19.12 22.59 18.832 22.224 18.832C21.86 18.832 21.576 19.088 20.956 19.088C20.336 19.088 20.264 18.796 19.856 18.796C19.376 18.796 19.288 19.29 19.288 19.846C19.288 22.33 21.572 25.746 24 25.746C26.426 25.746 28.708 22.33 28.708 19.846C28.708 19.288 28.594 18.812 28.094 18.746C27.799 18.9886 27.4232 19.1108 27.042 19.088C26.422 19.088 26.252 18.832 25.886 18.832C25.446 18.832 25.49 19.762 24.966 19.812C24.616 18.974 24.6 17.898 24.89 16.94C25.364 16.36 26.164 16.026 27.074 16.026C27.57 16.026 28.028 16.114 28.426 16.292C28.57 16.358 28.62 16.276 28.584 16.152C28.096 14.524 26.228 13.262 24 13.262ZM27.548 16.826C27.014 16.826 26.388 16.99 25.994 17.428C25.9512 17.5644 25.9569 17.7113 26.01 17.844C26.98 17.512 27.834 17.498 28.248 17.96C28.468 17.76 28.538 17.58 28.538 17.372C28.538 17.05 28.21 16.826 27.548 16.826ZM19.752 17.96C20.22 17.492 21.206 17.512 22.228 17.89C22.274 17.382 21.362 16.824 20.452 16.824C19.79 16.824 19.462 17.048 19.462 17.372C19.462 17.58 19.532 17.762 19.752 17.96ZM35.112 9.55399C33.352 9.67999 31.826 10.284 30.588 11.29C31.0913 9.85776 31.7762 8.49598 32.626 7.23799C30.386 7.47599 28.512 8.29599 27.146 9.69599L26.074 6.88999L28.45 4.79399L25.27 4.56799L24 1.60999L22.73 4.56999L19.55 4.79399L21.924 6.89199L20.856 9.69599C19.488 8.29599 17.616 7.47599 15.376 7.23799C16.2235 8.49671 16.907 9.85836 17.41 11.29C16.174 10.284 14.646 9.67999 12.886 9.55399C13.942 10.912 14.878 12.358 15.57 13.914C15.65 14.09 15.818 14.148 15.998 14.056C18.4838 12.8211 21.2224 12.1802 23.998 12.184C26.874 12.184 29.588 12.86 32 14.056C32.182 14.148 32.35 14.09 32.428 13.916C33.122 12.358 34.058 10.912 35.114 9.55599L35.112 9.55399ZM38.956 20.162C42.408 18.966 44.676 22.392 47.336 21.594C44.754 18.85 42.654 15.73 42.932 12.136C42.948 11.926 42.758 11.806 42.578 11.932C41.264 12.844 40.34 14.356 40.058 16.056C38.23 14.882 36.09 14.716 34.322 15.438C36.144 16.7143 37.715 18.3157 38.956 20.162Z" fill="black"/>
</g>
<defs>
<clipPath id="clip0_3_426">
<rect width="48" height="48" fill="white"/>
</clipPath>
</defs>
</svg>
