<svg width="48" height="48" viewBox="0 0 48 48" fill="none" xmlns="http://www.w3.org/2000/svg">
<path d="M0 14.4V33.6H48V14.4H0ZM24.004 32.64C10.616 32.64 0.96 28.72 0.96 24C0.96 19.28 10.622 15.36 24.004 15.36C37.384 15.36 47.04 19.28 47.04 24C47.04 28.72 37.392 32.64 24.004 32.64ZM23.554 20.516H31.906V22.444C31.7 22.35 31.5 22.35 31.294 22.35H27.778V23.27H31.156V24.734H27.778V25.648H31.294C31.5 25.648 31.7 25.648 31.906 25.548V27.482H23.554C23.658 27.28 23.658 27.086 23.658 26.884V21.12C23.658 20.918 23.658 20.724 23.554 20.516ZM9.402 21.12V26.882C9.402 27.084 9.402 27.278 9.506 27.48H4.8C4.904 27.278 4.904 27.084 4.904 26.882V21.12C4.904 20.918 4.904 20.724 4.8 20.522H9.506C9.402 20.724 9.402 20.918 9.402 21.12ZM22.296 26.882C22.448 27.096 22.612 27.298 22.806 27.48H17.61C17.61 27.278 17.41 26.868 17.19 26.546C16.97 26.224 15.78 24.458 15.78 24.458V26.882C15.78 27.084 15.78 27.278 15.884 27.48H11.556C11.66 27.278 11.66 27.084 11.66 26.882V21.12C11.66 20.918 11.66 20.724 11.556 20.522H15.884C15.78 20.724 15.78 20.918 15.78 21.12V23.638C15.78 23.638 17.162 21.878 17.48 21.468C17.72 21.16 18.016 20.722 18.016 20.522H22.53C22.22 20.724 21.876 21.086 21.594 21.422L19.942 23.39C19.942 23.39 22.02 26.486 22.296 26.882ZM43.388 20.872C43.388 20.7786 43.3513 20.689 43.2859 20.6224C43.2204 20.5558 43.1314 20.5176 43.038 20.516H42.618V21.618H42.784V21.228H43.024L43.244 21.618H43.43L43.19 21.194C43.249 21.1632 43.2986 21.1171 43.3335 21.0604C43.3684 21.0037 43.3872 20.9386 43.388 20.872ZM43.01 21.074H42.782V20.692H43.03C43.14 20.692 43.216 20.786 43.216 20.894C43.216 21 43.12 21.08 43.01 21.074ZM42.968 20.16H42.906C42.7883 20.1618 42.6722 20.187 42.5644 20.234C42.4565 20.2811 42.3591 20.3491 42.2778 20.4342C42.1965 20.5192 42.1329 20.6196 42.0907 20.7294C42.0485 20.8393 42.0285 20.9564 42.032 21.074C42.032 21.088 42.032 21.108 42.026 21.12C42.0359 21.3662 42.1429 21.5984 42.3235 21.7659C42.5041 21.9335 42.7438 22.0227 42.99 22.014C43.1119 22.0124 43.2322 21.9869 43.3442 21.9388C43.4562 21.8907 43.5576 21.821 43.6427 21.7337C43.7278 21.6464 43.7948 21.5432 43.84 21.43C43.8852 21.3169 43.9076 21.1959 43.906 21.074V21.04C43.9024 20.9206 43.8752 20.803 43.8261 20.6941C43.777 20.5852 43.7068 20.487 43.6197 20.4053C43.5325 20.3235 43.4301 20.2598 43.3183 20.2177C43.2065 20.1756 43.0874 20.156 42.968 20.16ZM42.968 21.806C42.7717 21.8076 42.5827 21.7316 42.4422 21.5945C42.3018 21.4573 42.2212 21.2703 42.218 21.074V21.02C42.2226 20.9262 42.2457 20.8342 42.2859 20.7493C42.3261 20.6645 42.3827 20.5884 42.4523 20.5254C42.522 20.4624 42.6034 20.4138 42.6919 20.3823C42.7804 20.3508 42.8742 20.3371 42.968 20.342C43.38 20.342 43.718 20.672 43.718 21.074C43.718 21.476 43.382 21.806 42.968 21.806ZM41.214 21.128C41.138 20.926 41.028 20.732 41.084 20.53H35.05C35.078 20.732 35.002 20.926 34.926 21.128L32.786 26.89C32.7193 27.1091 32.6091 27.3125 32.462 27.488H36.032C36.004 27.286 36.08 27.092 36.148 26.89C36.216 26.688 36.292 26.494 36.292 26.494L36.334 26.386H38.942L38.984 26.486C39.08 26.722 39.15 26.882 39.15 26.882C39.232 27.084 39.308 27.278 39.288 27.48H43.814C43.6612 27.3062 43.5461 27.1025 43.476 26.882C42.7263 24.9623 41.9723 23.0443 41.214 21.128ZM36.88 24.914C37.19 24.074 37.458 23.37 37.478 23.302C37.534 23.154 37.574 23 37.602 22.846C37.636 23 37.684 23.154 37.74 23.302L38.372 24.914H36.88Z" fill="black"/>
</svg>
