<svg width="48" height="48" viewBox="0 0 48 48" fill="none" xmlns="http://www.w3.org/2000/svg">
<path d="M47.9907 19.8656C47.9853 19.8478 47.9799 19.8299 47.9728 19.812C43.735 19.8138 39.499 19.812 35.263 19.8138C35.2523 19.8263 35.2451 19.8388 35.2433 19.8549C35.2433 23.141 35.2433 26.4253 35.2415 29.7115C35.2683 29.8868 35.3649 30.046 35.4938 30.1659C35.4991 30.1676 35.5117 30.1694 35.517 30.1712C35.5832 30.2409 35.678 30.275 35.7675 30.3072C35.8336 30.3036 35.898 30.3322 35.9642 30.325H41.2235C41.2735 30.3233 41.3254 30.3322 41.3737 30.3125C41.3755 30.3054 41.3773 30.2929 41.3791 30.2857C41.3809 30.2768 41.3826 30.2571 41.3844 30.2464C41.4971 29.6167 41.6062 28.9852 41.7261 28.3556L41.7369 28.2751C41.2503 28.2732 40.7619 28.2751 40.2754 28.2732C40.1573 28.2697 40.0357 28.2732 39.9176 28.2589C39.7155 28.25 39.5116 28.2571 39.3094 28.2375C39.059 28.2375 38.8103 28.2142 38.5599 28.2142C38.3631 28.1945 38.1646 28.2017 37.966 28.1927C37.8372 28.1767 37.7048 28.1838 37.5743 28.1784C37.3614 28.1552 37.1449 28.1713 36.9321 28.148C36.7067 28.1499 36.4813 28.1301 36.2559 28.1248C36.2577 28.123 36.2595 28.1158 36.2595 28.114C36.3346 28.1158 36.4079 28.1105 36.4831 28.1087C36.6494 28.0872 36.8176 28.1015 36.9839 28.0782C37.1575 28.0782 37.3292 28.055 37.5027 28.055C37.6566 28.0335 37.8122 28.0461 37.966 28.0246C38.1467 28.0246 38.3238 28.0013 38.5045 27.9995C38.6529 27.9799 38.8032 27.9906 38.9517 27.9709C39.1252 27.9727 39.2969 27.9459 39.4705 27.9477C39.6404 27.928 39.8139 27.9333 39.9838 27.9154C39.9678 27.8493 39.9552 27.7831 39.9409 27.7169C39.9284 27.6757 39.8783 27.6847 39.8461 27.6793C39.4579 27.6238 39.0715 27.5684 38.6851 27.5147C38.7102 27.495 38.7442 27.504 38.7728 27.5004C39.0733 27.4771 39.3721 27.4503 39.6726 27.4289C39.7406 27.4253 39.8068 27.4128 39.8747 27.411C39.8443 27.318 39.8264 27.216 39.7853 27.1301C39.1431 27.0317 38.5009 26.9441 37.8605 26.8385C38.0268 26.8117 38.195 26.7992 38.3614 26.7813L38.3757 26.7759C38.907 26.7204 39.44 26.6578 39.9713 26.606C40.6457 26.6024 41.3183 26.6042 41.9927 26.606C42.0142 26.6024 42.0518 26.6131 42.0553 26.5827C42.1108 26.2929 42.1645 26.0032 42.2199 25.7133C42.2968 25.3109 42.4184 24.9137 42.6063 24.547C42.9014 23.9567 43.3683 23.4558 43.9371 23.1231C44.4684 22.8118 45.0838 22.6616 45.6956 22.633C45.8942 22.6151 46.0945 22.6204 46.2913 22.6455C46.4201 22.6759 46.5525 22.7117 46.6544 22.7993C46.7385 22.8673 46.7886 22.9675 46.8262 23.0677C46.9085 23.3056 46.955 23.5524 46.9943 23.8011C46.9961 23.9013 47.014 24.014 46.9603 24.1052C46.9103 24.1946 46.8101 24.2376 46.7153 24.2644C46.37 24.3538 46.0087 24.2697 45.6634 24.3538C45.379 24.4147 45.1143 24.5721 44.9336 24.7993C44.7207 25.064 44.608 25.3931 44.5454 25.7223C44.4971 26.0157 44.4363 26.309 44.388 26.6042C44.7279 26.606 45.0695 26.6024 45.4112 26.606C45.5471 26.606 45.6867 26.6811 45.7421 26.8099C45.8137 26.9745 45.7976 27.1606 45.7743 27.3341C45.7457 27.5291 45.6992 27.7222 45.6115 27.9011C45.5382 28.0532 45.4166 28.1927 45.2502 28.2464C45.1643 28.2804 45.0713 28.2732 44.9801 28.2732C44.6795 28.2732 44.379 28.2768 44.0785 28.2732C44.0302 28.4933 43.998 28.7186 43.9551 28.9422C43.8764 29.3769 43.7995 29.8134 43.7207 30.2499C43.7189 30.2642 43.7172 30.2946 43.7172 30.3107C43.8585 30.3179 43.9998 30.3107 44.1411 30.3143C45.1894 30.3143 46.2394 30.3125 47.2895 30.3143C47.4022 30.3179 47.5167 30.291 47.6151 30.2356C47.6741 30.2141 47.7099 30.1622 47.7617 30.1336C47.8118 30.105 47.8261 30.046 47.8691 30.0084C47.9156 29.9261 47.9639 29.8403 47.9675 29.7436C47.9728 29.7436 47.9871 29.7418 47.9943 29.7401C47.9889 26.4486 47.9943 23.1571 47.9907 19.8656Z" fill="black" stroke="black" stroke-width="0.00280253"/>
<path d="M36.9105 17.7012C37.0626 17.6529 37.2218 17.6851 37.3775 17.6744C40.2987 17.6762 43.2199 17.6744 46.141 17.6744C46.3145 17.6672 46.4666 17.7656 46.6276 17.8157C46.7564 17.8676 46.8905 17.9087 47.0193 17.9642C47.0462 17.9749 47.0659 17.9981 47.0855 18.0178C47.0837 18.254 47.0855 18.4919 47.0855 18.7298C47.0873 18.7924 47.0765 18.8568 47.098 18.9176C47.1356 18.923 47.1553 18.9516 47.1803 18.9749C47.2984 19.0285 47.3985 19.1162 47.5059 19.1877C47.6669 19.3022 47.8386 19.4024 47.996 19.5205C48.0032 19.567 47.9978 19.6153 47.9835 19.6582C47.9674 19.7083 47.9781 19.762 47.9728 19.812C43.735 19.8138 39.499 19.812 35.263 19.8138C35.254 19.7548 35.2701 19.6958 35.2451 19.6403C35.2415 19.5938 35.2254 19.533 35.2701 19.5008C35.449 19.3756 35.6386 19.2629 35.8139 19.1305C35.9231 19.0607 36.0286 18.9892 36.1341 18.9176C36.1556 18.8818 36.1484 18.8371 36.1484 18.7978C36.1484 18.5384 36.1484 18.279 36.1502 18.0196C36.211 17.9409 36.3166 17.932 36.4006 17.8926C36.5707 17.8282 36.7424 17.7656 36.9105 17.7012ZM36.9213 17.7316C36.6923 17.8193 36.4615 17.9033 36.2326 17.991C36.2022 17.9964 36.186 18.0232 36.17 18.0464C36.1717 18.0608 36.1735 18.0858 36.1735 18.1001C36.1717 18.3148 36.1735 18.5294 36.1717 18.7441C36.1735 18.7978 36.1663 18.8514 36.186 18.8997C36.1628 18.923 36.1378 18.9462 36.1091 18.9641C35.8497 19.1323 35.5993 19.3147 35.3399 19.4811C35.2952 19.5079 35.2451 19.5437 35.2594 19.6027C35.2505 19.6349 35.2666 19.6618 35.3005 19.6528C35.8622 19.6493 36.4222 19.6564 36.9839 19.6475C37.8193 19.6475 38.6529 19.6493 39.4883 19.6475L39.5008 19.6421C39.5384 19.651 39.5759 19.6475 39.6153 19.6475C41.1286 19.6475 42.642 19.6493 44.1571 19.6475C44.633 19.6493 45.1106 19.6475 45.5882 19.6475C46.3753 19.6475 47.1642 19.6546 47.9513 19.651C47.9746 19.6457 47.9817 19.6296 47.9728 19.601C47.9709 19.5723 47.9817 19.533 47.9513 19.5151C47.8261 19.4561 47.7187 19.3648 47.5989 19.2933C47.556 19.2575 47.5005 19.2378 47.4683 19.1895C47.3449 19.1198 47.2304 19.0339 47.1087 18.957C47.0855 18.9427 47.0676 18.9194 47.0479 18.8997C47.0587 18.8622 47.0622 18.821 47.0622 18.7817C47.0605 18.5545 47.0622 18.3273 47.0604 18.1001C47.0658 18.0643 47.064 18.0232 47.0318 17.9999C46.8171 17.923 46.6043 17.8407 46.3914 17.762C46.3252 17.7298 46.2519 17.7119 46.1803 17.7012H37.0375C36.9982 17.703 36.9606 17.7227 36.9213 17.7316Z" fill="black" stroke="black" stroke-width="0.00280253"/>
<path d="M36.1735 18.1001C36.331 18.1663 36.4991 18.2039 36.6583 18.2682C36.7442 18.3022 36.771 18.3953 36.8086 18.4704C36.771 18.508 36.7263 18.5384 36.6815 18.567C36.517 18.6779 36.3488 18.7852 36.186 18.8997C36.1663 18.8514 36.1735 18.7977 36.1717 18.7441C36.1735 18.5294 36.1717 18.3148 36.1735 18.1001ZM46.5757 18.2682C46.7349 18.2056 46.9012 18.1627 47.0605 18.1001C47.0623 18.3273 47.0605 18.5545 47.0623 18.7816C47.0623 18.821 47.0587 18.8621 47.048 18.8997C46.9084 18.8031 46.7671 18.7119 46.6276 18.6171C46.5596 18.567 46.4845 18.5294 46.4237 18.4686C46.4612 18.3935 46.4898 18.3022 46.5757 18.2682Z" fill="black" stroke="black" stroke-width="0.00280253"/>
<path d="M36.6816 18.567C36.7263 18.5384 36.771 18.508 36.8086 18.4704L36.8211 18.4829C36.8336 18.5759 36.8247 18.6708 36.8282 18.7638C36.8229 19.0428 36.8336 19.3237 36.8211 19.6027C36.3005 19.6027 35.78 19.5992 35.2594 19.6027C35.2451 19.5437 35.2952 19.5079 35.3399 19.4811C35.5993 19.3147 35.8497 19.1323 36.1091 18.9641C36.1378 18.9462 36.1628 18.923 36.186 18.8997C36.3488 18.7852 36.517 18.6779 36.6816 18.567ZM46.4057 18.5312C46.4057 18.508 46.4111 18.4883 46.4236 18.4686C46.4844 18.5294 46.5596 18.567 46.6275 18.6171C46.7671 18.7119 46.9084 18.8031 47.0479 18.8997C47.0676 18.9194 47.0855 18.9427 47.1087 18.957C47.2304 19.0339 47.3448 19.1198 47.4683 19.1895C47.5005 19.2378 47.5559 19.2575 47.5989 19.2933C47.7187 19.3648 47.8261 19.4561 47.9513 19.5151C47.9817 19.533 47.971 19.5723 47.9727 19.601C47.4522 19.6027 46.9334 19.5992 46.4129 19.6027C46.4039 19.5312 46.4093 19.4596 46.4075 19.3899C46.4075 19.1037 46.404 18.8174 46.4057 18.5312Z" fill="black" stroke="black" stroke-width="0.00280253"/>
<path d="M47.9728 19.601C47.4522 19.6028 46.9334 19.5992 46.4129 19.6028C46.404 19.5312 46.4093 19.4596 46.4076 19.3899C46.4076 19.1037 46.404 18.8174 46.4057 18.5312C46.4057 18.508 46.4111 18.4883 46.4236 18.4686C46.4612 18.3935 46.4898 18.3023 46.5757 18.2683C46.7349 18.2057 46.9012 18.1627 47.0605 18.1001C47.0659 18.0643 47.0641 18.0232 47.0318 17.9999C46.8172 17.923 46.6043 17.8407 46.3914 17.762C46.3252 17.7298 46.2519 17.7119 46.1803 17.7012H37.0375C36.9982 17.703 36.9606 17.7227 36.9212 17.7316C36.6923 17.8193 36.4615 17.9033 36.2325 17.991C36.2021 17.9964 36.186 18.0232 36.1699 18.0465C36.1717 18.0608 36.1735 18.0858 36.1735 18.1001C36.3309 18.1663 36.499 18.2039 36.6583 18.2683C36.7441 18.3023 36.771 18.3953 36.8085 18.4704L36.821 18.4829C36.8336 18.576 36.8246 18.6708 36.8282 18.7638C36.8228 19.0428 36.8336 19.3237 36.821 19.6028C36.3005 19.6028 35.78 19.5992 35.2594 19.6028C35.2504 19.635 35.2665 19.6618 35.3005 19.6528C35.8622 19.6493 36.4221 19.6564 36.9839 19.6475C37.8192 19.6475 38.6529 19.6493 39.4882 19.6475L39.5008 19.6421C39.5383 19.6511 39.5759 19.6475 39.6152 19.6475C41.1286 19.6475 42.642 19.6493 44.1571 19.6475C44.6329 19.6493 45.1106 19.6475 45.5882 19.6475C46.3753 19.6475 47.1642 19.6546 47.9513 19.6511C47.9746 19.6457 47.9817 19.6296 47.9728 19.601ZM38.669 18.533C38.7048 18.4328 38.8013 18.3649 38.9033 18.3416C39.1001 18.2951 39.3201 18.4704 39.304 18.6761C39.3058 18.8783 39.0929 19.0428 38.898 18.9963C38.8193 18.9695 38.7441 18.9284 38.6958 18.8586C38.6332 18.7638 38.6189 18.6368 38.669 18.533ZM44.0069 18.4543C44.0892 18.3631 44.2198 18.3112 44.3414 18.3434C44.4327 18.3702 44.5221 18.4293 44.5615 18.5187C44.6402 18.6725 44.5794 18.8801 44.4255 18.9606C44.2895 19.0357 44.1178 18.9999 44.0141 18.8908C43.9085 18.7709 43.9013 18.5742 44.0069 18.4543Z" fill="black" stroke="black" stroke-width="0.00280253"/>
<path d="M43.9371 23.1232C44.4684 22.812 45.0838 22.6617 45.6956 22.6331C45.8942 22.6152 46.0945 22.6206 46.2913 22.6456C46.4201 22.676 46.5524 22.7118 46.6544 22.7994C46.6025 22.803 46.5524 22.7798 46.5006 22.7726C46.3539 22.744 46.2018 22.7547 46.0534 22.7511C45.6222 22.7511 45.1876 22.7851 44.7708 22.9032C44.5525 22.9694 44.3343 23.0463 44.1357 23.1608C43.7923 23.3504 43.4828 23.6008 43.2323 23.9014C42.7851 24.4148 42.5222 25.0659 42.3952 25.7296C42.3343 26.0855 42.2645 26.4397 42.2091 26.7975C42.1197 26.8064 42.0284 26.8011 41.939 26.8011C41.5455 26.7993 41.1519 26.7975 40.7584 26.794C40.6743 26.7975 40.592 26.7779 40.5079 26.7832C39.7924 26.7868 39.0768 26.7814 38.3613 26.7814L38.3756 26.776C38.9069 26.7205 39.44 26.6579 39.9713 26.6061C40.6456 26.6025 41.3183 26.6043 41.9927 26.6061C42.0141 26.6025 42.0517 26.6132 42.0553 26.5828C42.1107 26.293 42.1644 26.0033 42.2198 25.7134C42.2968 25.311 42.4184 24.9138 42.6062 24.5471C42.9014 23.9568 43.3683 23.4559 43.9371 23.1232Z" fill="black" stroke="black" stroke-width="0.00280253"/>
<path d="M44.3879 26.6043C44.7278 26.6061 45.0695 26.6025 45.4111 26.6061C45.5471 26.6061 45.6866 26.6812 45.7421 26.81C45.6133 26.8189 45.4845 26.8118 45.3557 26.8154C45.0176 26.8118 44.6795 26.8172 44.3414 26.8118C44.3539 26.742 44.3664 26.6705 44.3879 26.6043ZM41.7494 28.2804C41.7995 28.2715 41.8496 28.2715 41.8978 28.2822C41.7726 28.9405 41.6599 29.6024 41.5383 30.2607C41.5258 30.3305 41.4381 30.3055 41.3898 30.3001C41.388 30.2876 41.3862 30.2607 41.3844 30.2464C41.4971 29.6167 41.6062 28.9853 41.7261 28.3556C41.7351 28.3305 41.7422 28.3055 41.7494 28.2804Z" fill="black" stroke="black" stroke-width="0.00280253"/>
<path d="M44.5444 20.4372C44.5301 20.4103 44.5283 20.3781 44.5283 20.3477L44.514 20.3495C44.4925 20.2708 44.4264 20.1957 44.3405 20.1921C44.2761 20.1867 44.1956 20.1885 44.158 20.2493C44.0865 20.3459 44.1204 20.4694 44.1169 20.5785C44.1169 20.5856 44.1187 20.5981 44.1187 20.6053C44.1187 20.6786 44.1097 20.7502 44.0972 20.8218C44.0865 20.8432 44.0811 20.8665 44.0811 20.8915C44.0507 21.0597 43.9899 21.226 43.9076 21.3781C43.8915 21.3996 43.879 21.4228 43.8737 21.4479C43.82 21.5409 43.7556 21.6267 43.6894 21.7126C43.6786 21.7215 43.6697 21.7323 43.6608 21.743C43.6142 21.8003 43.5642 21.8486 43.5123 21.8986C43.4998 21.9058 43.4908 21.9147 43.4801 21.9219C43.4193 21.9809 43.3513 22.0364 43.2779 22.0811C43.269 22.0865 43.26 22.0936 43.2493 22.1008C42.7913 22.4031 42.235 22.5283 41.693 22.5337C41.2333 22.548 40.7699 22.4496 40.3549 22.251C40.3478 22.2475 40.3299 22.2403 40.3227 22.2367C40.253 22.1992 40.1814 22.167 40.117 22.1205C40.1027 22.1133 40.0884 22.1044 40.0723 22.0972C40.0061 22.0579 39.9435 22.0149 39.8844 21.9648C39.8648 21.9469 39.8433 21.9326 39.8218 21.9165C39.7574 21.8647 39.6912 21.8092 39.6358 21.7466C39.6215 21.7305 39.6072 21.7162 39.5929 21.7019C39.3979 21.4997 39.2459 21.2529 39.1654 20.9845C39.0884 20.7717 39.0992 20.5391 39.0903 20.3155C39.0258 20.2171 38.8899 20.1617 38.7826 20.2225C38.7379 20.2547 38.7325 20.3137 38.6985 20.3549C38.643 20.9452 38.8953 21.5337 39.2978 21.9595C39.2978 21.9738 39.3049 21.9827 39.3175 21.9881C39.389 22.0543 39.4588 22.1222 39.5303 22.1866C39.5428 22.1992 39.5572 22.2117 39.5733 22.2224C39.6448 22.2815 39.7217 22.3351 39.7969 22.3906C39.8112 22.4013 39.8255 22.4103 39.8416 22.4192C39.94 22.4764 40.033 22.5444 40.1385 22.5838C40.1457 22.5891 40.1582 22.5981 40.1654 22.6017C40.5052 22.7644 40.872 22.8754 41.2476 22.9111C41.2888 22.9111 41.3299 22.9147 41.371 22.9237C41.5499 22.9344 41.7288 22.929 41.9077 22.9254C42.4604 22.8771 43.0311 22.743 43.4926 22.4174L43.498 22.4246C43.5123 22.412 43.5248 22.4013 43.5391 22.3906C43.6125 22.3369 43.6841 22.2797 43.7556 22.2206C43.7717 22.2081 43.7896 22.1938 43.8057 22.1777C43.8844 22.0918 43.9756 22.0131 44.0418 21.9147L44.0526 21.9201C44.0579 21.9112 44.0669 21.8933 44.0723 21.8843C44.1331 21.802 44.1886 21.7162 44.2422 21.6303C44.2458 21.6249 44.2547 21.616 44.2583 21.6106L44.2512 21.6035C44.2565 21.5963 44.2691 21.582 44.2744 21.5749C44.3728 21.3745 44.4604 21.1652 44.4909 20.9434C44.5034 20.938 44.5106 20.9273 44.5106 20.9148C44.5124 20.8432 44.5374 20.7752 44.5303 20.7037C44.5462 20.616 44.548 20.5266 44.5444 20.4372Z" fill="black" stroke="black" stroke-width="0.00280253"/>
<path d="M8.68203 21.2011C8.94129 21.162 9.23961 21.1375 9.4597 21.2989C9.59663 21.4016 9.64554 21.5874 9.63576 21.7538C9.64554 22.0276 9.51839 22.3211 9.27389 22.463C9.05865 22.5803 8.79947 22.5901 8.55978 22.5656C8.39839 22.5461 8.237 22.4581 8.15385 22.3114C7.96795 21.8858 8.19784 21.2842 8.68203 21.2011ZM0.925048 21.5092C0.939699 21.3625 1.07177 21.2304 1.22337 21.2354C2.35321 21.2354 3.47812 21.2402 4.60304 21.2354C4.7253 21.2256 4.85737 21.2793 4.91603 21.3869C4.99916 21.5337 4.92582 21.6951 4.91603 21.8467C4.88183 22.0521 4.89158 22.326 4.65196 22.4042C3.83027 22.4287 3.00858 22.4042 2.18689 22.414C2.10864 22.9324 2.03528 23.446 1.957 23.9595C1.957 23.9791 1.96192 24.0232 1.96192 24.0427C2.56349 24.0378 3.16507 24.0427 3.76664 24.0378C3.93295 24.028 4.10899 24.1699 4.09432 24.3459C4.07967 24.5269 4.04053 24.703 4.01609 24.8839C3.99649 25.0062 3.89869 25.1187 3.77152 25.1431C3.10145 25.1578 2.4216 25.1285 1.75161 25.1578C1.64397 25.8963 1.5168 26.6348 1.4043 27.3734C1.38967 27.5201 1.27225 27.6473 1.12552 27.6521C0.846772 27.657 0.567955 27.657 0.289202 27.6521C0.108242 27.657 -0.0384988 27.4565 0.0103905 27.2853C0.308825 25.3584 0.616936 23.4363 0.925048 21.5092ZM5.89419 21.2451C6.14855 21.2256 6.40774 21.2402 6.66209 21.2354C6.81862 21.2256 6.97512 21.3478 6.98976 21.5092C6.98976 21.6364 6.95552 21.7636 6.94087 21.8907C6.73544 23.2015 6.52514 24.5123 6.31969 25.823C6.29035 26.0333 6.23656 26.2583 6.30015 26.4735C6.37351 26.6887 6.70116 26.5958 6.77944 26.8207C6.82835 27.0017 6.77452 27.1924 6.75985 27.3783C6.7452 27.6228 6.46641 27.6766 6.2757 27.7305C5.85999 27.8087 5.35618 27.75 5.05783 27.4076C4.84263 27.1582 4.82795 26.8061 4.87201 26.4931C5.13121 24.8302 5.39042 23.1673 5.65456 21.4994C5.66924 21.3772 5.76704 21.2647 5.89419 21.2451ZM15.6027 21.5092C15.6173 21.3625 15.7494 21.2354 15.8961 21.2354H16.6395C16.8254 21.2304 16.977 21.431 16.933 21.607C16.7618 22.6928 16.5858 23.7786 16.4146 24.8643C16.6738 24.8252 16.9673 24.7763 17.1482 24.566C17.4514 24.2236 17.7009 23.8275 17.8867 23.4118C17.9503 23.2504 17.9846 23.0156 18.1949 22.9863C18.4737 22.9765 18.7573 22.9814 19.0361 22.9863C19.2269 22.9814 19.3687 23.1966 19.3051 23.3726C19.2317 23.6319 19.1095 23.8715 18.9823 24.1014C18.6986 24.5612 18.3857 25.016 17.9748 25.3779C18.1557 25.9208 18.3856 26.449 18.5861 26.9822C18.6448 27.1582 18.7867 27.3636 18.6546 27.5349C18.503 27.7402 18.2193 27.6375 18.009 27.6619C17.7889 27.6375 17.471 27.75 17.3487 27.5006C17.1188 26.9674 16.9281 26.4197 16.6933 25.8866C16.5564 25.8914 16.4146 25.8964 16.2776 25.8817C16.2679 25.9013 16.2483 25.9404 16.2385 25.96C16.1651 26.449 16.0869 26.9381 16.0086 27.4272C15.9792 27.5446 15.8863 27.6473 15.7592 27.6571C15.5 27.6669 15.2358 27.6619 14.9717 27.6619C14.8592 27.6619 14.7565 27.5886 14.7076 27.4908C14.6587 27.3929 14.688 27.2805 14.7028 27.1729C15.006 25.285 15.3043 23.3971 15.6027 21.5092ZM29.1945 22.0423C29.2288 21.9054 29.3608 21.8125 29.4978 21.8173C29.6934 21.8222 29.8939 21.8125 30.0944 21.8222C30.2558 21.8271 30.383 21.9885 30.3634 22.145C30.3341 22.4238 30.2656 22.7026 30.246 22.9813C30.4368 22.9813 30.6324 22.9765 30.8232 22.9813C30.9944 22.9813 31.1362 23.1574 31.1068 23.3237C31.0824 23.4754 31.0481 23.6221 31.0237 23.7737C30.9992 23.9009 30.8917 24.0036 30.7694 24.0231C30.5346 24.0378 30.3048 24.0133 30.0749 24.0378C29.9771 24.6931 29.8695 25.3485 29.7667 26.004C29.752 26.1556 29.7423 26.3267 29.8303 26.4588C29.9624 26.6202 30.1922 26.5615 30.3781 26.5811C30.5248 26.6251 30.6178 26.7865 30.5933 26.9333C30.5688 27.0995 30.5639 27.2658 30.5248 27.4272C30.4661 27.6081 30.2558 27.6424 30.0944 27.6864C29.6493 27.8038 29.1358 27.8038 28.7397 27.5446C28.3729 27.2951 28.3141 26.8109 28.3533 26.4001C28.4559 25.6077 28.6174 24.8203 28.7054 24.0231C28.5685 24.028 28.4022 24.0476 28.2995 23.9253C28.1821 23.803 28.2408 23.622 28.2603 23.4704C28.2897 23.309 28.2848 23.0987 28.4609 23.0106C28.6027 22.9568 28.7641 22.996 28.9157 22.9764C29.0087 22.6635 29.0967 22.3505 29.1945 22.0423ZM26.4311 23.627C26.7393 23.3188 27.111 23.0645 27.5365 22.9374C27.7223 22.8542 27.962 23.0107 27.9571 23.2162C27.9229 23.4852 27.8593 23.7492 27.8153 24.0133C27.7957 24.1454 27.6832 24.2579 27.5511 24.2726C27.0718 24.3557 26.6561 24.6442 26.3235 24.9866C26.2404 25.0894 26.1181 25.1872 26.1034 25.329C26.0008 26.0137 25.8931 26.6984 25.7855 27.3832C25.7709 27.5299 25.6437 27.6718 25.4921 27.662H24.7486C24.5775 27.6718 24.4259 27.5006 24.4454 27.3294C24.6606 25.9746 24.8759 24.6247 25.0861 23.2699C25.0959 23.133 25.1938 23.0009 25.3356 22.9862C25.5165 22.9765 25.6975 22.9813 25.8834 22.9813C26.0301 22.9813 26.167 23.1134 26.167 23.265C26.167 23.4753 26.1475 23.6905 26.1426 23.9057C26.26 23.8324 26.3333 23.715 26.4311 23.627ZM8.14891 23.0058C8.41302 22.952 8.68691 22.9961 8.95102 22.9814C9.10266 22.9618 9.26405 23.0596 9.28848 23.2113C9.30809 23.3482 9.2689 23.4803 9.25423 23.6123C9.05373 24.8693 8.85317 26.1263 8.65754 27.3832C8.64287 27.5251 8.52554 27.6669 8.37388 27.662C8.10979 27.662 7.84567 27.6669 7.5767 27.6571C7.41039 27.6375 7.2881 27.4468 7.33214 27.2854C7.54246 25.9796 7.74301 24.6786 7.9533 23.3727C7.96309 23.2308 8.00221 23.0645 8.14891 23.0058ZM23.9759 23.0694C23.2471 22.9325 22.5037 22.8346 21.7652 22.908C21.1049 22.9912 20.4398 23.2895 20.0338 23.8324C19.4714 24.5465 19.2806 25.5051 19.4078 26.3953C19.4763 26.8208 19.6621 27.2512 20.0094 27.5153C20.3322 27.7647 20.7675 27.7989 21.1587 27.7353C21.7065 27.6277 22.1711 27.2757 22.5526 26.8844C22.5722 27.0506 22.5331 27.2169 22.5429 27.3783C22.5526 27.5299 22.6896 27.6718 22.8412 27.662H23.3401C23.4868 27.662 23.6091 27.5251 23.6189 27.3832C23.8292 26.0578 24.0395 24.7372 24.2449 23.4167C24.2742 23.2504 24.1422 23.089 23.9759 23.0694ZM22.6016 25.373C22.4059 25.7399 22.132 26.0724 21.8239 26.3561C21.6478 26.5028 21.4228 26.6544 21.1832 26.6056C20.9484 26.5567 20.8359 26.3121 20.7822 26.1018C20.6599 25.554 20.7724 24.9573 21.0805 24.4829C21.2174 24.2628 21.4375 24.0965 21.6918 24.028C22.0489 23.94 22.4255 23.984 22.7728 24.0818L22.7923 24.1014C22.7483 24.5269 22.6651 24.9475 22.6016 25.373ZM14.3751 24.6394C14.3701 24.1503 14.2381 23.6368 13.8958 23.2699C13.661 23.0107 13.3088 22.8787 12.9665 22.8835C12.3991 22.864 11.866 23.1428 11.4503 23.5145C11.3573 23.5879 11.2938 23.6955 11.1911 23.7541C11.1911 23.5927 11.2058 23.4313 11.2008 23.2651C11.2058 23.1134 11.0639 22.9814 10.9172 22.9814H10.4183C10.2618 22.9814 10.1346 23.1183 10.1248 23.2699C9.81671 25.2263 9.50374 27.1827 9.19559 29.139C9.1516 29.32 9.30813 29.5059 9.49397 29.501C9.76784 29.4961 10.0466 29.5205 10.3156 29.4814C10.5308 29.4227 10.5259 29.1732 10.5602 28.9923C10.6384 28.5619 10.6923 28.1315 10.7411 27.6962C11.7047 27.882 12.8247 27.7549 13.5436 27.0261C14.1305 26.3855 14.4044 25.5002 14.3751 24.6394ZM13.0056 25.1334C12.9763 25.5833 12.8149 26.0382 12.5019 26.3659C12.0959 26.7523 11.4796 26.6984 10.9808 26.5664C10.971 26.5517 10.9563 26.5224 10.9514 26.5077C11.0297 26.0822 11.0688 25.6518 11.1667 25.2312C11.4405 24.7813 11.7731 24.3264 12.2475 24.077C12.4236 23.9938 12.6632 24.0134 12.7904 24.1748C13.0056 24.4438 13.0252 24.8057 13.0056 25.1334Z" fill="black" stroke="black" stroke-width="0.00301123"/>
</svg>
