<svg width="48" height="48" viewBox="0 0 48 48" fill="none" xmlns="http://www.w3.org/2000/svg">
<path d="M24 4.8C34.5968 4.8 43.2 13.4032 43.2 24C43.2 34.5968 34.5968 43.2 24 43.2C13.4032 43.2 4.80002 34.5968 4.80002 24C4.80002 13.4032 13.4032 4.8 24 4.8ZM9.99202 32.8624C11.4866 35.2255 13.5547 37.172 16.004 38.5207C18.4533 39.8694 21.204 40.5765 24 40.576C29.8896 40.576 35.0672 37.4976 38.008 32.8624L24 27.5248L9.99202 32.8624ZM27.0528 22.2368L38.68 31.7008C39.9291 29.3263 40.5799 26.683 40.576 24C40.576 15.0768 33.5088 7.7904 24.672 7.4368L27.0528 22.2368ZM23.328 7.4368C14.4912 7.7904 7.42402 15.0768 7.42402 24C7.42402 26.7792 8.10882 29.3984 9.32002 31.7008L20.9472 22.2368L23.328 7.4368Z" fill="black"/>
</svg>
