<svg width="48" height="48" viewBox="0 0 48 48" fill="none" xmlns="http://www.w3.org/2000/svg">
<path d="M27.846 28.35C27.846 28.442 27.876 28.494 27.928 28.494C27.9702 28.4883 28.0101 28.4718 28.044 28.446L43.004 18.738C43.2567 18.561 43.5596 18.4699 43.868 18.478H47.156C47.66 18.478 48 18.814 48 19.318V25.596C48 26.356 47.832 26.796 47.16 27.198L43.172 29.598C43.1323 29.6255 43.0861 29.6421 43.038 29.646C42.99 29.646 42.942 29.608 42.942 29.47V22.144C42.942 22.058 42.918 22.002 42.86 22.002C42.8176 22.0067 42.7774 22.0234 42.744 22.05L31.812 29.152C31.5645 29.3204 31.2714 29.4091 30.972 29.406H23.724C23.216 29.406 22.88 29.07 22.88 28.562V19.514C22.88 19.448 22.85 19.386 22.792 19.386C22.7504 19.3916 22.7111 19.4081 22.678 19.434L15.464 23.76C15.392 23.808 15.372 23.842 15.372 23.876C15.372 23.904 15.388 23.934 15.436 23.986L20.59 29.136C20.658 29.204 20.706 29.256 20.706 29.314C20.706 29.362 20.628 29.4 20.538 29.4H15.88C15.514 29.4 15.232 29.348 15.034 29.15L11.91 26.03C11.8982 26.0158 11.8835 26.0042 11.867 25.996C11.8505 25.9877 11.8324 25.9829 11.814 25.982C11.78 25.9839 11.747 25.9942 11.718 26.012L6.498 29.152C6.24839 29.3197 5.95256 29.405 5.652 29.396H0.85C0.336 29.4 0 29.06 0 28.558V22.398C0 21.638 0.168 21.198 0.844 20.798L4.86 18.384C4.89117 18.3642 4.92709 18.3531 4.964 18.352C5.028 18.352 5.06 18.412 5.06 18.552V26.8C5.06 26.886 5.08 26.926 5.142 26.926C5.18512 26.9193 5.22615 26.9029 5.262 26.878L18.814 18.72C19.0767 18.5431 19.3897 18.4561 19.706 18.472H27.002C27.506 18.472 27.846 18.808 27.846 19.312L27.842 28.348L27.846 28.35Z" fill="black"/>
</svg>
