<svg width="48" height="48" viewBox="0 0 48 48" fill="none" xmlns="http://www.w3.org/2000/svg">
<path d="M33.626 17.628C33.626 17.628 32.726 17.988 31.68 19.14C30.632 20.294 30.024 21.59 30.474 21.934C30.648 22.066 31.048 22.092 31.774 21.434C32.4421 20.8532 32.9665 20.1255 33.306 19.308C33.774 18.168 33.626 17.642 33.626 17.628ZM39.352 19.704C38.19 19.106 37.34 18.376 36.456 17.924C35.612 17.492 35.066 17.31 34.384 17.402C34.2892 17.4189 34.1956 17.4423 34.104 17.472C34.104 17.472 34.456 18.672 33.058 20.686C31.642 22.73 30.358 22.716 29.992 22.154C29.61 21.562 30.104 20.354 30.928 19.28C31.792 18.156 33.308 17.224 33.308 17.224C33.308 17.224 32.826 16.928 31.638 17.604C30.478 18.256 28.484 19.818 26.634 22.45C24.782 25.082 24.414 26.53 24.15 27.67C23.886 28.81 24.126 30.03 25.39 30.03C26.654 30.03 28.126 28.102 28.542 27.432C29.314 26.184 29.816 24.27 28.766 24.532C28.248 24.662 27.83 25.234 27.566 25.786C27.3993 26.1404 27.2718 26.5119 27.186 26.894C26.8185 27.0451 26.4733 27.2456 26.16 27.49C25.812 27.7483 25.4868 28.0361 25.188 28.35C25.188 28.35 25.192 27.438 25.918 25.962C26.646 24.488 27.978 23.814 28.734 23.75C29.414 23.696 30.3 24.274 29.55 26.404C28.8 28.534 26.584 31.124 24.258 31.156C22.112 31.186 20.706 28.446 23.694 23.666C27.002 18.38 30.882 16.76 32.14 16.58C33.4 16.4 33.81 16.954 33.81 16.954C34.5679 16.6434 35.3865 16.5087 36.204 16.56C37.744 16.664 38.932 17.752 40.504 18.518C40.094 18.908 39.704 19.318 39.354 19.702M46.262 17.922C45.196 18.606 43.722 19.226 42.304 19.094C41.946 19.464 41.562 19.894 41.178 20.362C43.634 20.848 45.788 19.324 46.932 18.028C47.3493 17.5629 47.708 17.0484 48 16.496C47.4787 17.0386 46.8954 17.5159 46.262 17.922ZM42.99 24.848C43.0088 24.8157 43.0243 24.7815 43.036 24.746C43.0288 24.6895 43.0025 24.6372 42.9613 24.5979C42.9202 24.5586 42.8667 24.5346 42.81 24.53C42.576 24.52 42.256 24.564 41.42 25.49C40.7253 26.2558 40.1275 27.1042 39.64 28.016C39.16 28.892 38.966 29.544 39.24 29.712C39.3299 29.7588 39.4344 29.7696 39.532 29.742C39.718 29.698 39.93 29.522 40.252 29.152C40.402 28.976 40.568 28.728 40.768 28.454C41.322 27.702 42.714 25.328 42.99 24.848ZM34.292 25.856C34.432 25.492 34.61 24.774 34.24 24.492C33.842 24.192 32.83 24.894 32.824 25.614C32.818 26.352 33.538 26.684 33.71 26.732C33.81 26.758 33.842 26.752 33.89 26.674C34.0428 26.411 34.1771 26.1377 34.292 25.856ZM33.526 27.196C33.275 27.0801 33.0409 26.9307 32.83 26.752C32.619 26.5746 32.4427 26.3596 32.31 26.118C32.294 26.094 32.28 26.112 32.264 26.134C32.25 26.154 32.186 26.212 31.646 27.002C31.106 27.794 30.278 29.434 31.026 29.712C31.508 29.892 32.308 29.05 32.746 28.492C33.0425 28.1021 33.3112 27.6917 33.55 27.264C33.574 27.218 33.55 27.206 33.526 27.196ZM42.042 29.09C41.838 29.416 41.606 30.042 42.276 29.652C43.096 29.18 44.264 27.406 44.264 27.406H44.794C44.3119 28.1477 43.7751 28.8523 43.188 29.514C42.358 30.434 41.344 31.272 40.628 31.188C39.796 31.092 40.056 29.996 40.056 29.996C40.056 29.996 38.864 31.266 38.036 31.176C36.922 31.052 37.262 29.674 37.262 29.674C37.262 29.674 36.002 31.222 35.142 31.174C33.796 31.094 34.134 29.456 34.51 28.302C34.71 27.686 34.896 27.202 34.896 27.202C34.896 27.202 34.762 27.236 34.476 27.278C34.324 27.3 34.052 27.316 34.052 27.316C34.052 27.316 33.492 28.306 33.042 28.9C32.594 29.494 30.686 31.544 29.562 31.134C28.526 30.754 28.87 29.166 29.474 27.904C30.354 26.064 32.834 23.418 34.266 23.768C35.748 24.128 34.3 26.832 34.3 26.832C34.3 26.832 34.3 26.842 34.314 26.85C34.344 26.86 34.422 26.87 34.6 26.834C34.785 26.7967 34.9664 26.7432 35.142 26.674C35.142 26.674 36.634 23.552 38.28 21.508C39.926 19.468 43.21 15.948 44.5 16.8C44.812 17.01 44.672 17.73 44.248 18.604C44.0568 18.6661 43.8626 18.7182 43.666 18.76C43.95 18.244 44.138 17.81 44.194 17.506C44.388 16.45 41.924 18.676 40.164 21.066C39.1032 22.5075 38.1608 24.0325 37.346 25.626C37.6639 25.4322 37.9673 25.2156 38.254 24.978C39.0396 24.3271 39.7862 23.6306 40.49 22.892C41.1671 22.1985 41.8023 21.4652 42.392 20.696C42.5796 20.6869 42.7665 20.6675 42.952 20.638C42.3086 21.511 41.607 22.3395 40.852 23.118C40.152 23.828 39.392 24.592 38.73 25.148C38.1402 25.6489 37.5182 26.1106 36.868 26.53C36.868 26.53 35.328 29.636 36.166 29.834C36.658 29.954 37.63 28.454 37.63 28.454C37.63 28.454 38.9 26.52 39.664 25.646C40.708 24.46 41.604 23.774 42.504 23.762C43.026 23.752 43.334 24.308 43.334 24.308L43.58 23.928H45.094C45.094 23.928 42.266 28.724 42.04 29.086M46.262 17.926C45.196 18.608 43.722 19.228 42.304 19.096C41.944 19.466 41.562 19.896 41.176 20.364C43.634 20.85 45.786 19.328 46.932 18.03C47.3494 17.5643 47.7081 17.0491 48 16.496C47.4787 17.0386 46.8954 17.5159 46.262 17.922M25.002 20.278H23.562L22.748 21.594H24.188L25.002 20.278ZM18.182 24.832C18.796 23.992 20.486 21.05 20.486 21.05C20.4789 20.9938 20.4528 20.9418 20.4121 20.9025C20.3713 20.8632 20.3184 20.839 20.262 20.834C20.028 20.822 19.638 20.902 18.862 21.872C18.088 22.842 17.486 23.612 17.048 24.416C16.568 25.292 16.356 25.91 16.634 26.078C16.7231 26.1227 16.8255 26.1334 16.922 26.108C17.102 26.064 17.338 25.882 17.66 25.512C17.8433 25.2922 18.0181 25.0653 18.184 24.832M10.458 20.852C10.06 20.552 9.04799 21.254 9.04199 21.972C9.03599 22.71 9.95399 22.936 10.072 22.94C10.1065 22.9431 10.1413 22.9362 10.172 22.92C10.1932 22.9074 10.2099 22.8885 10.22 22.866C10.3283 22.6545 10.4258 22.4375 10.512 22.216C10.652 21.85 10.828 21.134 10.458 20.852ZM9.85799 23.392C9.58364 23.3059 9.32149 23.1849 9.07799 23.032C8.84144 22.878 8.64912 22.665 8.51999 22.414C8.50599 22.39 8.48999 22.408 8.47599 22.43C8.46199 22.45 8.38199 22.552 7.83999 23.346C7.29999 24.142 6.49599 25.766 7.24799 26.046C7.72799 26.226 8.53599 25.378 8.97599 24.822C9.30478 24.3855 9.60859 23.9308 9.88599 23.46C9.90399 23.412 9.88599 23.4 9.85799 23.392ZM21.618 23.88H22.144C22.144 23.88 19.502 27.704 18.008 27.526C17.176 27.428 17.422 26.4 17.422 26.4C17.422 26.4 16.252 27.77 15.176 27.492C14.202 27.242 14.832 25.62 14.832 25.62C14.72 25.664 12.61 28.042 11.126 27.472C9.57399 26.872 10.38 24.88 10.676 24.282C10.926 23.776 11.202 23.284 11.202 23.284C11.202 23.284 10.964 23.352 10.812 23.386L10.44 23.466C10.44 23.466 9.70599 24.658 9.25799 25.254C8.80799 25.848 6.90199 27.894 5.77799 27.488C4.65399 27.08 4.93199 25.508 5.56399 24.258C6.58799 22.234 9.01599 19.746 10.48 20.122C11.958 20.5 10.734 22.898 10.734 22.898C10.734 22.898 11.028 22.936 11.734 22.454C12.748 21.762 14.086 19.9 15.536 20.12C16.22 20.222 16.856 20.92 15.986 22.248C15.708 22.674 15.242 23.054 14.886 22.678C14.664 22.442 14.858 22.018 15.092 21.724C15.1828 21.605 15.3014 21.5102 15.4374 21.4478C15.5734 21.3853 15.7226 21.3573 15.872 21.366C15.872 21.366 16.112 20.82 15.502 20.828C15.008 20.838 13.76 21.988 13.056 23.148C12.41 24.214 11.43 26.03 12.412 26.426C13.314 26.79 15.03 24.754 15.824 23.686C16.618 22.62 18.428 20.202 19.948 20.106C20.47 20.072 20.782 20.548 20.782 20.548L20.958 20.27H22.476C22.476 20.27 19.616 25.044 19.392 25.404C19.216 25.686 18.984 26.324 19.626 25.966C20.27 25.61 21.618 23.88 21.618 23.88ZM20.79 31.528C19.6719 30.7538 18.333 30.3629 16.974 30.414C16.6066 30.4241 16.2467 30.5207 15.9236 30.6958C15.6004 30.8709 15.3231 31.1197 15.114 31.422C14.534 30.412 13.39 29.792 11.62 29.806C8.75999 29.838 5.92199 31.158 3.67599 31.156C1.52199 31.156 -0.0500145 29.802 0.0019855 27.396C0.0959855 23.178 3.66199 19.378 6.32199 17.668C7.85599 16.688 9.13999 16.394 9.97799 16.488C10.59 16.556 11.326 17.264 10.862 18.306C10.18 19.828 9.23799 19.704 9.27199 18.976C9.29199 18.502 9.60799 18.204 9.84399 18.038C10.0151 17.9471 10.2062 17.9004 10.4 17.902C10.536 17.788 10.634 16.954 9.54199 17.228C8.44999 17.502 7.12199 18.58 5.86199 19.97C4.60199 21.362 2.64199 23.992 2.15799 26.754C1.93199 28.034 2.07999 30.37 5.11799 30.344C7.69199 30.324 11.488 28.626 14.976 28.662C16.1904 28.6572 17.3832 28.9836 18.426 29.606C19.328 30.162 20.41 30.974 20.794 31.528" fill="black"/>
</svg>
