<svg width="48" height="48" viewBox="0 0 48 48" fill="none" xmlns="http://www.w3.org/2000/svg">
<path d="M39.634 20.56L39.726 25.948H39.68L38.12 20.562H35.554V27.346H37.25L37.158 21.776H37.204L38.876 27.346H41.33V20.562L39.634 20.56ZM7.334 20.56L6.052 27.416H7.908L8.848 21.18H8.894L9.812 27.416H11.644L10.384 20.562L7.334 20.56ZM17.696 20.56L16.848 25.788H16.802L15.954 20.562H13.16L13.022 27.416H14.742L14.788 21.25H14.81L15.956 27.416H17.698L18.844 21.25H18.89L18.936 27.416H20.656L20.496 20.562L17.696 20.56ZM3.164 25.468C3.21613 25.631 3.22373 25.805 3.186 25.972C3.14 26.2 2.98 26.43 2.522 26.43C2.086 26.43 1.834 26.178 1.834 25.81V25.146H0V25.674C0 27.21 1.214 27.668 2.5 27.668C3.736 27.668 4.768 27.232 4.928 26.108C5.02 25.512 4.952 25.124 4.928 24.986C4.608 23.542 1.994 23.128 1.81 22.326C1.78711 22.2051 1.78711 22.0809 1.81 21.96C1.856 21.73 2.018 21.5 2.43 21.5C2.842 21.5 3.07 21.754 3.07 22.12V22.532H4.79V22.052C4.79 20.562 3.438 20.332 2.476 20.332C1.26 20.332 0.252 20.744 0.068 21.846C0.00780923 22.1493 0.0160082 22.4622 0.092 22.762C0.366 24.182 2.82 24.596 3.164 25.466M25.468 25.466C25.536 25.626 25.512 25.834 25.49 25.972C25.444 26.2 25.284 26.43 24.826 26.43C24.39 26.43 24.138 26.178 24.138 25.81V25.146H22.304V25.674C22.304 27.186 23.496 27.644 24.78 27.644C26.018 27.644 27.026 27.232 27.186 26.086C27.278 25.49 27.21 25.124 27.186 24.962C26.912 23.542 24.32 23.106 24.138 22.326C24.1149 22.2051 24.1149 22.0809 24.138 21.96C24.184 21.73 24.344 21.5 24.758 21.5C25.146 21.5 25.398 21.754 25.398 22.12V22.532H27.094V22.052C27.094 20.562 25.764 20.332 24.802 20.332C23.588 20.332 22.602 20.722 22.418 21.846C22.372 22.144 22.372 22.418 22.442 22.762C22.716 24.182 25.122 24.572 25.468 25.466ZM31.244 26.384C31.724 26.384 31.864 26.064 31.908 25.88C31.932 25.81 31.932 25.696 31.932 25.628V20.56H33.672V25.488C33.672 25.626 33.672 25.878 33.652 25.948C33.536 27.23 32.528 27.642 31.266 27.642C30.006 27.642 28.998 27.23 28.882 25.946C28.882 25.878 28.86 25.626 28.86 25.488V20.56H30.6V25.626C30.6 25.718 30.6 25.808 30.624 25.878C30.624 26.06 30.764 26.382 31.244 26.382M45.548 26.314C46.052 26.314 46.212 25.994 46.258 25.808C46.28 25.74 46.28 25.626 46.28 25.556V24.57H45.57V23.562H48V25.396C48 25.534 48 25.626 47.978 25.856C47.862 27.116 46.784 27.55 45.57 27.55C44.356 27.55 43.278 27.116 43.164 25.854C43.14 25.626 43.14 25.534 43.14 25.396V22.508C43.14 22.394 43.164 22.164 43.164 22.048C43.324 20.766 44.356 20.354 45.57 20.354C46.784 20.354 47.84 20.766 47.976 22.05C48 22.256 48 22.508 48 22.508V22.738H46.28V22.348C46.28 22.348 46.28 22.188 46.258 22.096C46.234 21.936 46.098 21.592 45.57 21.592C45.066 21.592 44.93 21.912 44.882 22.096C44.86 22.186 44.86 22.302 44.86 22.416V25.556C44.86 25.648 44.86 25.74 44.882 25.808C44.882 25.992 45.066 26.314 45.548 26.314Z" fill="black"/>
</svg>
