<svg width="48" height="48" viewBox="0 0 48 48" fill="none" xmlns="http://www.w3.org/2000/svg">
<path d="M0 27.2L0.89 25.844H6.046C6.338 25.844 6.53 25.664 6.53 25.384V24.6H2.096C0.776 24.6 0.19 24.044 0.19 22.81V22.278C0.19 21.358 0.762 20.802 1.664 20.802H1.764V22.786C1.764 23.066 1.956 23.246 2.248 23.246H6.542C7.522 23.246 8.104 23.802 8.104 24.71V25.41C8.104 26.61 7.484 27.202 6.2 27.202L0 27.2ZM30.906 25.82H34.894C35.554 25.82 35.974 25.434 35.974 24.828V23.172C35.974 22.566 35.554 22.18 34.894 22.18H30.906V25.82ZM29.306 27.2V20.8H34.934C36.61 20.8 37.574 21.72 37.574 23.244V24.756C37.574 26.28 36.61 27.2 34.934 27.2H29.306ZM21.548 25.82H24.916C25.524 25.82 25.918 25.458 25.918 24.89V23.11C25.918 22.542 25.524 22.18 24.916 22.18H21.548C20.94 22.18 20.546 22.542 20.546 23.11V24.89C20.546 25.458 20.94 25.82 21.548 25.82ZM24.954 27.2H21.51C19.884 27.2 18.944 26.304 18.944 24.816V23.184C18.944 21.696 19.884 20.8 21.51 20.8H24.954C26.58 20.8 27.52 21.696 27.52 23.184V24.816C27.52 26.304 26.58 27.2 24.954 27.2ZM38.232 27.2L42.004 20.8H44.228L48 27.2H46.17L45.522 26.1H42.308L41.446 24.792L40.022 27.2H38.232ZM41.484 24.72H44.71L43.096 21.998L41.484 24.72ZM3.34 22.13L2.426 20.8H7.952L7.062 22.13H3.34ZM9.866 27.2V20.8H11.466V23.292H13.588L16.344 20.8H18.466L14.96 23.98L18.53 27.2H16.28L13.522 24.672H11.466V27.2H9.866Z" fill="black"/>
</svg>
