<svg width="48" height="48" viewBox="0 0 48 48" fill="none" xmlns="http://www.w3.org/2000/svg">
<g clip-path="url(#clip0_3_499)">
<path d="M47.804 13.74C47.144 7.304 42.864 5.95 39.096 5.332C37.204 5.012 33.836 4.732 31.664 4.652C29.772 4.532 25.328 4.472 23.994 4.472C22.68 4.472 18.214 4.532 16.324 4.652C14.172 4.732 10.784 5.012 8.892 5.332C5.126 5.97 0.840001 7.32 0.184001 13.74C0.0240006 15.494 -0.0159994 17.786 0.00400059 20.236C0.0640006 24.298 0.404001 27.048 0.604001 28.962C0.744001 30.276 1.28 34.202 1.978 36.234C2.934 39.024 3.81 39.84 4.826 40.678C6.7 42.192 9.768 42.67 10.406 42.79C13.872 43.41 20.886 43.526 23.974 43.526C27.062 43.526 34.074 43.426 37.542 42.79C38.2 42.67 41.268 42.21 43.122 40.678C44.138 39.84 45.014 39.024 45.97 36.234C46.67 34.202 47.226 30.276 47.366 28.962C47.566 27.048 47.924 24.298 47.964 20.236C48.044 17.786 47.984 15.494 47.804 13.74ZM45.452 24.54C45.072 29.68 44.616 32.748 43.958 34.98C43.378 36.932 42.684 38.226 41.628 39.164C39.894 40.738 37.502 41.076 36.108 41.276C33.08 41.736 27.998 41.876 23.994 41.876C19.99 41.876 14.908 41.716 11.88 41.276C10.486 41.076 8.094 40.738 6.36 39.164C5.324 38.226 4.608 36.912 4.05 34.978C3.392 32.768 2.934 29.678 2.556 24.538C2.336 21.452 2.376 16.43 2.716 13.738C3.232 9.716 5.226 7.702 9.49 6.946C11.482 6.586 14.17 6.326 16.702 6.206C18.734 6.066 22.102 6.006 23.974 6.026C25.846 6.006 29.214 6.086 31.246 6.206C33.796 6.326 36.466 6.586 38.458 6.946C42.742 7.702 44.736 9.736 45.234 13.74C45.632 16.43 45.69 21.452 45.452 24.54ZM35.05 7.76C33.954 12.684 33.516 14.936 32.618 18.5C31.762 21.93 31.084 25.096 29.948 26.63C28.774 28.184 27.218 28.524 26.162 28.642C25.604 28.702 25.206 28.722 24.03 28.742C23.3119 28.7556 22.5937 28.7222 21.88 28.642C20.824 28.522 19.25 28.184 18.096 26.63C16.94 25.096 16.282 21.93 15.426 18.502C14.486 14.956 14.07 12.682 12.954 7.762C12.954 7.762 11.858 7.802 11.36 7.842C10.702 7.882 10.184 7.942 9.626 8.022C10.312 18.766 11.01 30.18 11.878 40.282C13.464 40.4815 15.0597 40.5943 16.658 40.62C17.318 38.088 18.154 34.58 19.072 33.086C19.828 31.87 21.004 31.732 21.662 31.652C22.698 31.512 23.574 31.492 23.992 31.492C24.392 31.472 25.266 31.492 26.322 31.652C26.982 31.752 28.156 31.872 28.912 33.086C29.852 34.58 30.666 38.086 31.324 40.618C31.324 40.618 32.04 40.598 33.654 40.518C34.474 40.482 35.294 40.402 36.106 40.278C37.022 29.498 37.676 18.822 38.358 8.022C37.798 7.942 37.282 7.882 36.624 7.842C36.164 7.802 35.05 7.76 35.05 7.76Z" fill="black"/>
</g>
<defs>
<clipPath id="clip0_3_499">
<rect width="48" height="48" fill="white"/>
</clipPath>
</defs>
</svg>
