<svg width="48" height="48" viewBox="0 0 48 48" fill="none" xmlns="http://www.w3.org/2000/svg">
<g clip-path="url(#clip0_3_490)">
<path d="M39.696 15.696C37.712 15.696 35.892 16.392 34.464 17.552C32.986 16.3488 31.1378 15.6932 29.232 15.696C27.248 15.696 25.428 16.392 24 17.552C22.522 16.3488 20.6738 15.6932 18.768 15.696C16.784 15.696 14.964 16.392 13.536 17.552C12.3176 16.5633 10.844 15.94 9.28588 15.7543C7.72778 15.5687 6.14897 15.8283 4.73236 16.5031C3.31575 17.1779 2.11931 18.2402 1.28166 19.567C0.444016 20.8939 -0.00056076 22.4309 -0.00056076 24C-0.00056076 25.5691 0.444016 27.1061 1.28166 28.4329C2.11931 29.7598 3.31575 30.8221 4.73236 31.4969C6.14897 32.1717 7.72778 32.4313 9.28588 32.2457C10.844 32.06 12.3176 31.4367 13.536 30.448C14.964 31.608 16.784 32.304 18.768 32.304C20.752 32.304 22.572 31.608 24 30.448C25.428 31.608 27.248 32.304 29.232 32.304C31.216 32.304 33.036 31.608 34.464 30.448C35.4961 31.2856 36.7142 31.8631 38.016 32.1321C39.3177 32.4012 40.6649 32.3538 41.9445 31.9939C43.2241 31.6341 44.3986 30.9724 45.3693 30.0643C46.3401 29.1563 47.0786 28.0285 47.5229 26.7757C47.9672 25.523 48.1043 24.1818 47.9226 22.8651C47.741 21.5483 47.2459 20.2944 46.479 19.2088C45.712 18.1231 44.6957 17.2374 43.5154 16.6262C42.335 16.0149 41.0252 15.6959 39.696 15.696ZM34.464 27.732C33.6847 26.6438 33.2663 25.3385 33.268 24C33.268 22.608 33.712 21.32 34.464 20.268C35.216 21.32 35.66 22.608 35.66 24C35.66 25.392 35.216 26.68 34.464 27.732ZM24 27.732C23.2207 26.6438 22.8023 25.3385 22.804 24C22.804 22.608 23.248 21.32 24 20.268C24.752 21.32 25.196 22.608 25.196 24C25.196 25.392 24.752 26.68 24 27.732ZM13.536 27.732C12.7567 26.6438 12.3383 25.3385 12.34 24C12.34 22.608 12.784 21.32 13.536 20.268C14.288 21.32 14.732 22.608 14.732 24C14.732 25.392 14.288 26.68 13.536 27.732ZM1.876 24C1.87647 22.8006 2.21252 21.6252 2.84615 20.6068C3.47977 19.5884 4.38569 18.7676 5.46147 18.2372C6.53725 17.7068 7.73997 17.488 8.93363 17.6054C10.1273 17.7229 11.2643 18.172 12.216 18.902C11.0789 20.3579 10.4621 22.1527 10.464 24C10.464 25.922 11.12 27.692 12.216 29.098C11.2643 29.8279 10.1273 30.2771 8.93363 30.3945C7.73997 30.512 6.53725 30.2932 5.46147 29.7628C4.38569 29.2324 3.47977 28.4116 2.84615 27.3932C2.21252 26.3748 1.87647 25.1994 1.876 24ZM14.856 29.098C15.9931 27.6421 16.6099 25.8473 16.608 24C16.608 22.078 15.952 20.308 14.856 18.902C15.9773 18.0387 17.3529 17.5711 18.768 17.572C20.24 17.572 21.596 18.068 22.68 18.902C21.5423 20.3576 20.9255 22.1525 20.928 24C20.928 25.922 21.584 27.692 22.68 29.098C21.5587 29.9612 20.1831 30.4289 18.768 30.428C17.3527 30.43 15.9768 29.9622 14.856 29.098ZM25.32 29.098C26.4577 27.6424 27.0745 25.8474 27.072 24C27.072 22.078 26.416 20.308 25.32 18.9C26.404 18.068 27.76 17.57 29.232 17.57C30.704 17.57 32.06 18.066 33.144 18.9C32.0063 20.3556 31.3895 22.1505 31.392 23.998C31.392 25.92 32.048 27.69 33.144 29.096C32.0227 29.9592 30.6471 30.4269 29.232 30.426C27.8168 30.4295 26.4406 29.9623 25.32 29.098ZM39.696 30.428C38.2807 30.43 36.9048 29.9622 35.784 29.098C36.9209 27.642 37.5376 25.8473 37.536 24C37.536 22.078 36.88 20.308 35.784 18.902C36.5944 18.2796 37.5414 17.8594 38.5466 17.6762C39.5518 17.493 40.5862 17.552 41.5641 17.8484C42.5419 18.1448 43.435 18.6701 44.1693 19.3806C44.9035 20.0911 45.4579 20.9665 45.7863 21.934C46.1147 22.9016 46.2077 23.9335 46.0576 24.9442C45.9075 25.9549 45.5186 26.9152 44.9232 27.7456C44.3278 28.576 43.5431 29.2525 42.634 29.719C41.7249 30.1855 40.7178 30.4285 39.696 30.428Z" fill="black"/>
</g>
<defs>
<clipPath id="clip0_3_490">
<rect width="48" height="48" fill="white"/>
</clipPath>
</defs>
</svg>
