<svg width="48" height="48" viewBox="0 0 48 48" fill="none" xmlns="http://www.w3.org/2000/svg">
<path d="M47.808 21.576V19.044H38.496C36.552 19.044 35.676 20.244 35.532 21.408V21.444V19.044H32.796V21.576H35.52H47.808ZM35.52 22.488L32.784 22.332V25.248C32.784 26.16 32.328 26.436 30.744 26.436H28.56C27.252 26.436 26.7 26.064 26.7 25.248V22.056L23.928 21.852V25.476H23.868C23.712 24.42 23.316 23.196 20.676 23.016L12 22.44C12 23.772 12.948 24.564 14.436 24.72L20.484 25.332C20.964 25.368 21.312 25.512 21.312 25.908C21.312 26.34 20.952 26.388 20.4 26.388H11.892V22.44L9.12 22.26V28.956H20.412C22.932 28.956 23.736 27.648 23.856 26.556H23.916C24.228 28.284 25.74 28.956 28.296 28.956H31.116C34.104 28.956 35.52 28.044 35.52 25.908V22.488ZM44.316 23.004L35.64 22.488C35.64 23.82 36.516 24.708 38.004 24.828L44.184 25.308C44.664 25.344 44.952 25.464 44.952 25.86C44.952 26.232 44.616 26.376 43.92 26.376H35.496V28.956H44.1C46.812 28.956 48 28.008 48 25.848C48 23.904 46.932 23.172 44.316 23.004ZM23.928 19.044H26.7V21.576H23.928V19.044ZM7.596 22.14L4.584 21.84L0 28.956H3.372L7.596 22.14ZM23.424 19.044H14.964C12.996 19.044 12.132 20.268 11.928 21.444V19.044H7.236C6.576 19.044 6.264 19.248 5.952 19.704L4.656 21.576H23.424V19.044Z" fill="black"/>
</svg>
