<svg width="48" height="48" viewBox="0 0 48 48" fill="none" xmlns="http://www.w3.org/2000/svg">
<path d="M47.7066 17.6474C47.8823 17.4423 48 17.2085 48 16.9154C48.0022 16.6245 47.8978 16.3429 47.7066 16.1236C47.5006 15.918 47.2383 15.8006 46.9441 15.8006C46.6519 15.8006 46.4178 15.9182 46.1822 16.1236C45.978 16.329 45.8888 16.5927 45.8888 16.9154C45.8888 17.2085 45.978 17.4423 46.1822 17.6474C46.4178 17.8528 46.6519 17.9405 46.9441 17.9405C47.2383 17.9405 47.5006 17.8528 47.7066 17.6474ZM47.7661 28.4352V18.9667H46.1825L46.2124 28.4352H47.7661ZM44.101 19.4361L43.8378 19.3185C43.134 18.9078 42.2835 18.703 41.2581 18.703C40.1439 18.703 39.2353 18.9664 38.5611 19.4942C38.2094 19.7583 37.9747 20.0217 37.7989 20.3741C37.6235 20.6962 37.5346 21.0186 37.5346 21.3994C37.5346 22.0446 37.8286 22.5721 38.3566 23.0409C38.8542 23.4809 39.5868 23.8327 40.5543 24.1255C41.3746 24.3892 41.9318 24.6533 42.2835 24.9173C42.5772 25.2107 42.7532 25.5328 42.7532 25.943C42.7532 26.3827 42.5185 26.7345 42.1075 27.0279C41.6968 27.2626 41.11 27.409 40.3783 27.409C39.5862 27.409 38.7955 27.2036 37.9747 26.8219L37.7693 26.6761L37.0951 27.9068L37.3304 28.0242C38.2387 28.464 39.2359 28.6687 40.3202 28.6687C41.4928 28.6687 42.4601 28.4343 43.222 27.9068C43.6031 27.6721 43.8672 27.3503 44.0725 27.0282C44.2767 26.6471 44.3653 26.236 44.3653 25.8259V25.7957C44.3653 25.0925 44.0725 24.4767 43.5154 23.9788C43.0469 23.5689 42.2844 23.2166 41.2875 22.9238C40.525 22.6589 39.9685 22.3954 39.6457 22.1904C39.294 21.926 39.1476 21.6335 39.1476 21.3111C39.1476 20.9297 39.294 20.6372 39.6173 20.3735C39.9685 20.1385 40.4367 19.9918 41.0528 19.9918C41.903 19.9918 42.6065 20.1385 43.1636 20.4902L43.369 20.6369L44.101 19.4361ZM34.5454 20.1394C33.4608 19.2014 32.1127 18.7033 30.5581 18.7033C29.034 18.7033 27.7736 19.1718 26.748 20.0807C25.6041 21.1072 25.0185 22.5137 25.0185 24.3605V31.7181H26.542V26.9695C27.0114 27.4967 27.5985 27.9074 28.3014 28.2011C29.0049 28.5229 29.7668 28.6693 30.5883 28.6693C32.1417 28.6693 33.4608 28.2011 34.5454 27.2033C35.6596 26.236 36.2156 25.064 36.2156 23.6857C36.2156 22.279 35.6596 21.1069 34.5454 20.1394ZM30.5581 20.0217C31.702 20.0217 32.698 20.3741 33.4599 21.077C34.252 21.7805 34.6624 22.6595 34.6624 23.7159C34.6624 24.7117 34.3101 25.5325 33.6069 26.236C32.845 26.9689 31.819 27.3503 30.588 27.3503C29.3558 27.3503 28.3589 26.9692 27.568 26.236C26.8357 25.5038 26.4842 24.6829 26.4842 23.7159C26.4842 22.7478 26.836 21.8982 27.568 21.1941C28.3308 20.4324 29.3277 20.0217 30.5581 20.0217ZM22.585 20.6088C21.5599 19.3185 20.0939 18.703 18.1294 18.703C16.6637 18.703 15.4025 19.1134 14.3185 19.9924C13.1464 20.9013 12.5602 22.1329 12.5602 23.657C12.5602 24.5069 12.7944 25.3571 13.2925 26.1483C13.7329 26.9102 14.4068 27.5263 15.3156 27.9948C16.2239 28.4349 17.1912 28.6397 18.2465 28.6397C19.2434 28.6397 20.181 28.4349 21.0905 27.9948C21.9982 27.5263 22.6727 26.9102 23.1125 26.1483L23.4058 25.6499H21.706C21.3537 26.1483 20.8546 26.559 20.2109 26.8812C19.5661 27.2033 18.8626 27.3503 18.1881 27.3503C17.2502 27.3503 16.4586 27.115 15.7548 26.6462C15.0513 26.148 14.5828 25.5325 14.2894 24.7117C15.2561 24.3306 16.2239 24.1252 17.2798 24.1252L18.8626 24.3006L21.3246 24.5356C22.0865 24.5356 22.7325 24.4183 23.3178 24.2428C23.5528 24.1545 23.6989 24.0372 23.7582 23.8905C23.8456 23.7734 23.8456 23.5689 23.7878 23.3334C23.6109 22.279 23.2301 21.3707 22.585 20.6088ZM22.1754 23.013L22.2044 23.0711L21.3539 23.1881L19.5074 23.0127L16.9278 22.8068H16.488C15.6671 22.8654 14.9052 23.0127 14.1721 23.2759C14.2888 22.191 14.8172 21.3405 15.6967 20.7255C16.429 20.2558 17.2505 19.9924 18.1294 19.9924C19.5065 19.9924 20.5624 20.4322 21.3539 21.3117C21.7647 21.8398 22.0572 22.3963 22.1754 23.013ZM5.72954 18.703C4.23448 18.703 2.94479 19.1715 1.91885 20.0804C0.77556 21.1069 0.218439 22.5134 0.218439 24.3599L0.189392 31.7175H1.77246L1.74283 26.9689C2.21194 27.4964 2.79811 27.9068 3.47258 28.2005C4.20514 28.5226 4.96763 28.6684 5.78821 28.6684C7.34194 28.6684 8.66096 28.2005 9.74587 27.203C10.8595 26.2358 11.387 25.0631 11.387 23.6851C11.387 22.2781 10.8595 21.106 9.77463 20.1385C8.66096 19.2011 7.34194 18.703 5.72954 18.703ZM2.73972 21.1943C3.53126 20.4324 4.49881 20.0217 5.72954 20.0217C6.90246 20.0217 7.86972 20.3741 8.66038 21.077C9.45279 21.7805 9.83301 22.6595 9.83301 23.7159C9.83301 24.7117 9.48183 25.5325 8.80678 26.236C8.04546 26.9689 7.04856 27.3503 5.75887 27.3503C4.55691 27.3503 3.53126 26.9692 2.73943 26.236C2.03592 25.5038 1.68415 24.6829 1.68415 23.7159C1.68444 22.7481 2.03591 21.8984 2.73972 21.1943Z" fill="black"/>
</svg>
