<svg width="48" height="48" viewBox="0 0 48 48" fill="none" xmlns="http://www.w3.org/2000/svg">
<g clip-path="url(#clip0_3_428)">
<path fill-rule="evenodd" clip-rule="evenodd" d="M24 4.13C25.984 4.13 27.798 5.016 29.356 6.456C32.276 9.154 34.9 13.85 37.042 18.542C39.22 23.312 41.03 28.37 42.242 32.04C43.586 36.106 41.828 40.436 38.234 42.592C36.3718 43.7141 34.1744 44.1458 32.0261 43.8117C29.8778 43.4775 27.9154 42.3987 26.482 40.764C25.6525 39.8145 24.8252 38.8632 24 37.91C23.152 38.89 22.304 39.864 21.516 40.764C20.0827 42.3982 18.1207 43.4767 15.9728 43.8109C13.825 44.145 11.628 43.7136 9.766 42.592C6.172 40.436 4.414 36.106 5.758 32.04C6.97 28.37 8.78 23.312 10.958 18.542C13.1 13.85 15.72 9.154 18.64 6.456C20.2 5.016 22.014 4.13 23.998 4.13H24ZM26.632 34.838C27.892 33.348 28.972 32.036 29.6 31.198C31.48 28.692 31.962 25.498 31.028 22.838C30.056 20.07 27.574 17.998 24 17.998C20.426 17.998 17.944 20.07 16.972 22.838C16.038 25.498 16.518 28.692 18.4 31.198C19.026 32.036 20.106 33.348 21.368 34.838C20.408 35.95 19.424 37.078 18.508 38.13C17.6921 39.0591 16.5755 39.6716 15.3535 39.8602C14.1315 40.0489 12.8821 39.8017 11.824 39.162C9.756 37.922 8.828 35.498 9.556 33.294C10.746 29.694 12.504 24.786 14.596 20.204C16.722 15.544 19.072 11.504 21.356 9.394C22.388 8.442 23.278 8.13 24 8.13C24.72 8.13 25.61 8.442 26.644 9.394C28.928 11.504 31.276 15.546 33.404 20.204C35.496 24.786 37.254 29.694 38.444 33.294C39.172 35.498 38.244 37.92 36.176 39.162C35.1181 39.8012 33.8691 40.0481 32.6476 39.8594C31.4261 39.6707 30.3098 39.0586 29.494 38.13C28.574 37.08 27.592 35.95 26.632 34.838ZM24 31.754C23.1762 30.7889 22.3759 29.804 21.6 28.8C20.48 27.308 20.274 25.502 20.746 24.164C21.18 22.928 22.198 22 24 22C25.8 22 26.82 22.928 27.254 24.164C27.724 25.504 27.518 27.308 26.4 28.8C25.6245 29.8043 24.8243 30.7893 24 31.754Z" fill="black"/>
</g>
<defs>
<clipPath id="clip0_3_428">
<rect width="48" height="48" fill="white"/>
</clipPath>
</defs>
</svg>
