<svg width="48" height="48" viewBox="0 0 48 48" fill="none" xmlns="http://www.w3.org/2000/svg">
<path d="M19.86 25.98C20.06 25.98 24.7 26.18 27.46 25.5H27.48C30.66 24.72 35.08 22.48 36.22 15.16C36.22 15.16 38.76 6 26.16 6H15.34C14.36 6 13.52 6.72 13.36 7.68L8.76 36.8C8.66 37.4 9.14 37.96 9.74 37.96H16.6L18.28 27.32C18.4 26.56 19.06 25.98 19.86 25.98Z" fill="black"/>
<path d="M37.98 16.58C36.36 24.04 31.26 27.98 23.14 27.98H20.2L18.14 41.02C18.06 41.54 18.46 42 18.98 42H22.78C23.46 42 24.06 41.5 24.16 40.82C24.32 40.02 25.2 34.18 25.38 33.18C25.48 32.5 26.08 32 26.76 32H27.64C33.28 32 37.7 29.7 39 23.08C39.52 20.4 39.24 18.2 37.98 16.58Z" fill="black"/>
</svg>
