<svg width="48" height="48" viewBox="0 0 48 48" fill="none" xmlns="http://www.w3.org/2000/svg">
<g clip-path="url(#clip0_3_455)">
<path d="M24 0C10.746 0 0 10.746 0 24C0 37.254 10.746 48 24 48C37.254 48 48 37.254 48 24C48 10.746 37.254 0 24 0ZM24 1.56C36.392 1.56 46.438 11.606 46.438 24C46.438 36.392 36.394 46.438 24 46.438C11.606 46.438 1.562 36.392 1.562 24C1.562 11.608 11.608 1.56 24 1.56ZM22.644 2.82C21.984 2.848 21.324 2.904 20.66 2.976L20.446 8.864C20.9169 8.78431 21.3906 8.72161 21.866 8.676L22.006 4.7L21.98 4.426L22.066 4.686L23.394 7.664H24.606L25.934 4.688L26.014 4.426L25.994 4.7L26.134 8.676C26.598 8.72 27.08 8.784 27.554 8.864L27.336 2.976C26.6766 2.9017 26.0149 2.84967 25.352 2.82L24.046 6.07L24 6.31L23.954 6.07L22.644 2.82ZM36.036 6.468L32.95 11.324C33.34 11.624 33.854 12.066 34.184 12.368L37.09 10.86L37.274 10.722L37.136 10.91L35.632 13.816C35.958 14.166 36.428 14.732 36.692 15.076L41.552 11.988C41.2539 11.6024 40.9472 11.2237 40.632 10.852L37.554 12.88L37.344 13.064L37.5 12.834L38.86 10.122L37.9 9.162L35.188 10.522L34.958 10.678L35.14 10.466L37.176 7.388C36.816 7.084 36.474 6.806 36.036 6.468ZM11 7.57C10.28 7.644 9.724 8.136 8.214 9.82C7.69039 10.4134 7.18548 11.023 6.7 11.648L10.848 15.582C12.222 14.062 12.78 13.498 13.864 12.356C14.63 11.546 15.064 10.616 14.296 9.722C13.88 9.238 13.18 9.132 12.596 9.372L12.54 9.392L12.56 9.34C12.6321 9.07462 12.6245 8.79388 12.5381 8.53281C12.4516 8.27174 12.2902 8.04191 12.074 7.872C11.9237 7.75349 11.7514 7.66596 11.567 7.61447C11.3827 7.56297 11.19 7.54654 11 7.57ZM11.012 8.8C11.284 8.726 11.566 8.92 11.628 9.2C11.692 9.48 11.516 9.744 11.32 9.964C10.88 10.464 9.258 12.16 9.258 12.16L8.454 11.394C9.288 10.374 10.176 9.446 10.578 9.078C10.6986 8.95227 10.8474 8.85699 11.012 8.8ZM24 9.766C20.4768 9.76444 17.0783 11.0701 14.4625 13.4303C11.8467 15.7904 10.1995 19.0372 9.84 22.542V22.546C9.614 24.7696 9.91444 27.0152 10.717 29.1011C11.5196 31.1871 12.8018 33.055 14.4599 34.5536C16.1181 36.0523 18.1056 37.1397 20.2619 37.728C22.4181 38.3163 24.6825 38.3889 26.872 37.94C30.0814 37.2803 32.9646 35.5328 35.0344 32.9929C37.1042 30.453 38.2337 27.2765 38.232 24C38.2283 20.2268 36.7276 16.6092 34.0593 13.9413C31.3911 11.2734 27.7732 9.77318 24 9.77V9.766ZM12.926 10.25C13.02 10.25 13.118 10.276 13.206 10.336C13.382 10.454 13.462 10.656 13.418 10.856C13.366 11.094 13.168 11.318 13.008 11.492L10.918 13.732L10.078 12.932C10.078 12.932 11.652 11.268 12.168 10.734C12.372 10.522 12.504 10.394 12.644 10.324C12.7307 10.279 12.8283 10.2537 12.926 10.25ZM24 11.636C25.6242 11.6342 27.2328 11.9527 28.7337 12.5734C30.2346 13.1941 31.5983 14.1048 32.7468 15.2532C33.8952 16.4017 34.8059 17.7654 35.4266 19.2663C36.0473 20.7672 36.3658 22.3758 36.364 24H24V36.364C22.3758 36.3658 20.7672 36.0473 19.2663 35.4266C17.7654 34.8059 16.4017 33.8952 15.2532 32.7468C14.1048 31.5983 13.1941 30.2346 12.5734 28.7337C11.9527 27.2328 11.6342 25.6242 11.636 24H24V11.636Z" fill="black"/>
</g>
<defs>
<clipPath id="clip0_3_455">
<rect width="48" height="48" fill="white"/>
</clipPath>
</defs>
</svg>
