<svg width="48" height="48" viewBox="0 0 48 48" fill="none" xmlns="http://www.w3.org/2000/svg">
<path d="M20.29 23.2675C20.6117 21.0245 20.57 19.8521 17.3433 20.0337C13.6383 20.244 9.88333 20.4833 4.26167 21.7761C4.08905 22.5046 4.00122 23.2511 4 24.0005C4 26.5794 5.03 29.0735 6.97833 31.2181C8.745 33.1591 11.2383 34.7726 14.1883 35.8873C15.2838 36.2967 16.4052 36.63 17.545 36.8849C17.7617 35.9908 19.1433 30.2561 20.2383 23.6119L20.2883 23.2692M43.7383 21.7761C38.1183 20.4833 34.365 20.2457 30.6617 20.0354C27.4333 19.8538 27.3917 21.0262 27.715 23.2692L27.7917 23.7748C28.875 30.3036 30.2217 35.9229 30.455 36.8731C38.325 35.0424 44 29.9659 44 24.0005C44 23.2488 43.91 22.5074 43.7383 21.7761ZM42.92 19.5298C42.4145 18.5296 41.7751 17.6057 41.02 16.7845C39.2533 14.8436 36.7617 13.23 33.8117 12.1153C30.8383 10.9921 27.445 10.4 24 10.4C20.5533 10.4 17.1617 10.9938 14.1883 12.1136C11.2383 13.23 8.745 14.8453 6.97833 16.7845C6.22384 17.6064 5.58498 18.5309 5.08 19.5314C8.92 18.5864 15.4883 17.3377 21.5867 17.207C22.175 17.1934 22.58 17.3852 22.8467 17.7279C23.1733 18.1487 23.1467 19.6417 23.1383 20.3102L22.965 37.5823C23.6559 37.6059 24.3474 37.6059 25.0383 37.5823L24.865 20.3102C24.8567 19.6417 24.8317 18.1487 25.1567 17.7279C25.4233 17.3852 25.8283 17.1934 26.4167 17.2053C32.5133 17.3377 39.0783 18.5847 42.92 19.5298Z" fill="black"/>
</svg>
