<svg width="48" height="48" viewBox="0 0 48 48" fill="none" xmlns="http://www.w3.org/2000/svg">
<g clip-path="url(#clip0_3_427)">
<path d="M24.014 48H23.3L28.218 34.51H34.978C36.158 34.51 37.45 33.602 37.862 32.476L43.192 17.86C44.072 15.468 42.698 13.518 40.142 13.518H30.746L22.886 35.114L18.436 47.368C13.1832 46.118 8.50573 43.1324 5.16013 38.8944C1.81452 34.6563 -0.00354294 29.4135 5.18353e-06 24.014C5.18353e-06 12.996 7.42001 3.71 17.53 0.88L12.94 13.518L5.30001 34.51H10.384L16.896 16.678H20.716L14.204 34.51H19.286L25.33 17.86C26.21 15.47 24.836 13.52 22.28 13.52H17.996L22.916 0.028C23.27 0 23.628 0 23.984 0C37.256 0 48 10.744 48 24.014C48.028 37.258 37.284 48 24.014 48ZM38.548 16.65H34.728L29.372 31.322H33.192L38.548 16.65Z" fill="black"/>
</g>
<defs>
<clipPath id="clip0_3_427">
<rect width="48" height="48" fill="white"/>
</clipPath>
</defs>
</svg>
