<svg width="48" height="48" viewBox="0 0 48 48" fill="none" xmlns="http://www.w3.org/2000/svg">
<path d="M28.48 21.12C27.86 23.6 24 22.34 22.8 22L23.9 17.64C25.14 18 29.12 18.52 28.48 21.12ZM22.26 24.24L21.06 29.06C22.54 29.44 27.12 30.9 27.8 28.18C28.52 25.34 23.74 24.6 22.26 24.24ZM43.4 28.84C40.72 39.56 29.88 46.08 19.16 43.4C8.44 40.72 1.926 29.88 4.6 19.16C5.23529 16.6122 6.36627 14.2145 7.92834 12.1038C9.49042 9.99312 11.453 8.21086 13.704 6.85879C15.9549 5.50671 18.4502 4.61132 21.0473 4.22376C23.6444 3.83619 26.2923 3.96403 28.84 4.59999C39.54 7.27999 46.06 18.12 43.4 28.84ZM28.42 16.1L29.32 12.5L27.12 12L26.24 15.46C25.66 15.32 25.08 15.18 24.48 15.06L25.36 11.52L23.18 11L22.28 14.58C21.8 14.46 21.32 14.36 20.88 14.24L17.86 13.48L17.26 15.82C17.26 15.82 18.9 16.2 18.86 16.22C19.76 16.44 19.92 17 19.88 17.5L17.42 27.36C17.32 27.64 17 28 16.42 27.9C16.44 27.92 14.82 27.5 14.82 27.5L13.74 30L16.58 30.72C17.12 30.86 17.64 31 18.16 31.12L17.24 34.76L19.44 35.32L20.34 31.7C20.94 31.86 21.52 32 22.08 32.16L21.18 35.74L23.38 36.3L24.3 32.66C28 33.36 30.84 33.08 32 29.7C33 27 32 25.4 30 24.38C31.44 24 32.52 23.1 32.82 21.14C33.22 18.48 31.18 17.06 28.42 16.1Z" fill="black"/>
</svg>
