<svg width="48" height="48" viewBox="0 0 48 48" fill="none" xmlns="http://www.w3.org/2000/svg">
<g clip-path="url(#clip0_3_472)">
<path d="M24 10.724L28.95 4.672C28.95 4.672 37.44 4.852 45.892 8.78C43.728 12.052 39.43 13.656 39.43 13.656C39.138 10.778 37.122 10.076 30.722 10.076L24 48L17.238 10.068C10.878 10.068 8.862 10.776 8.568 13.652C8.568 13.652 4.276 12.062 2.11 8.792C10.56 4.862 19.05 4.68 19.05 4.68L24 10.724ZM24 10.724L23.992 10.728H24V10.724ZM24 2.926C30.83 2.866 38.652 3.982 46.656 7.486C47.726 5.55 48 4.696 48 4.696C39.25 1.224 31.056 0.03 24 0C16.944 0.03 8.75 1.22 0 4.698C0 4.698 0.39 5.748 1.344 7.49C9.348 3.978 17.17 2.87 24 2.92V2.926Z" fill="black"/>
</g>
<defs>
<clipPath id="clip0_3_472">
<rect width="48" height="48" fill="white"/>
</clipPath>
</defs>
</svg>
