<svg width="48" height="48" viewBox="0 0 48 48" fill="none" xmlns="http://www.w3.org/2000/svg">
<g clip-path="url(#clip0_3_489)">
<mask id="mask0_3_489" style="mask-type:luminance" maskUnits="userSpaceOnUse" x="1" y="21" width="12" height="5">
<path d="M1.11551 22.3543C1.11551 22.3543 2.00875 22.1092 2.41189 22.1092C3.44742 22.1092 5.28923 23.6112 6.45123 24.3542C8.19819 25.4767 8.79895 25.8798 9.96095 25.8798C11.5498 25.8798 12.0557 24.9708 12.0557 24.9708C12.0557 24.9708 11.787 25.2949 10.8858 25.2949C9.64476 25.2949 8.712 24.536 7.36028 23.5637C6.01647 22.5993 4.45132 21.6191 3.18656 21.6191C1.66884 21.6191 1.11551 22.3543 1.11551 22.3543Z" fill="white"/>
</mask>
<g mask="url(#mask0_3_489)">
<path d="M12.0557 21.6191H1.11551V25.8719H12.0557V21.6191Z" fill="black"/>
</g>
<g opacity="0.36">
<mask id="mask1_3_489" style="mask-type:luminance" maskUnits="userSpaceOnUse" x="6" y="22" width="3" height="4">
<path d="M8.12719 22.8127H6.24585V25.3896H8.12719V22.8127Z" fill="white"/>
</mask>
<g mask="url(#mask1_3_489)">
<mask id="mask2_3_489" style="mask-type:luminance" maskUnits="userSpaceOnUse" x="6" y="22" width="3" height="4">
<path d="M6.24585 24.2197C6.31699 24.2671 6.38814 24.3146 6.45137 24.3541C7.1628 24.8126 7.68452 25.1446 8.12719 25.3896V24.1249C7.88214 23.951 7.62919 23.7691 7.36042 23.5715C7.00471 23.3107 6.62528 23.0577 6.24585 22.8127V24.2197Z" fill="white"/>
</mask>
<g mask="url(#mask2_3_489)">
<path d="M8.12719 22.8127H6.24585V25.3896H8.12719V22.8127Z" fill="black"/>
</g>
</g>
</g>
<mask id="mask3_3_489" style="mask-type:luminance" maskUnits="userSpaceOnUse" x="6" y="21" width="6" height="8">
<path d="M6.64883 24.2752V27.5477C6.64883 28.6702 7.77131 28.52 7.77131 28.52C7.77131 28.52 7.77922 26.4806 7.77922 25.2712C7.77922 24.0617 7.83455 22.797 9.75541 21.9274C9.92932 21.8484 10.0874 21.8563 10.2534 21.8642C10.3167 21.8642 10.3799 21.8721 10.4431 21.8721C11.2178 21.8484 11.8739 22.1646 11.8739 22.1646C11.8739 22.1646 11.0597 21.2318 9.59732 21.2318C8.13493 21.2318 6.64883 22.4413 6.64883 24.2752Z" fill="white"/>
</mask>
<g mask="url(#mask3_3_489)">
<path d="M11.8739 21.2318H6.64883V28.6623H11.8739V21.2318Z" fill="black"/>
</g>
<mask id="mask4_3_489" style="mask-type:luminance" maskUnits="userSpaceOnUse" x="1" y="19" width="6" height="7">
<path d="M2.92596 19.9037C2.92596 19.9037 4.94958 21.0816 5.10767 21.4373C5.20253 21.6428 5.28158 21.9195 5.28158 22.3621C5.28158 24.4016 3.44767 25.358 2.38053 25.358C1.5031 25.358 1.013 24.8126 1.013 24.8126C1.013 24.8126 1.96157 25.8718 3.43977 25.8718C5.30529 25.8718 6.42777 24.2514 6.42777 23.0657C6.42777 22.125 5.9772 21.4689 5.59777 21.0025C4.77567 19.9907 3.52672 19.8958 3.08405 19.8958C2.98919 19.8958 2.92596 19.9037 2.92596 19.9037Z" fill="white"/>
</mask>
<g mask="url(#mask4_3_489)">
<path d="M6.42777 19.8958H1.013V25.8718H6.42777V19.8958Z" fill="black"/>
</g>
<mask id="mask5_3_489" style="mask-type:luminance" maskUnits="userSpaceOnUse" x="1" y="19" width="5" height="3">
<path d="M1.02084 20.394C1.02084 20.394 1.02875 20.5521 1.14732 20.8999C1.2738 21.2556 1.39237 21.3426 1.47932 21.3426C1.56627 21.3426 2.03265 20.9157 3.06028 20.9157C4.07999 20.9157 5.09971 21.4453 5.10761 21.4453C5.10761 21.4374 4.87047 20.8604 4.31713 20.4256C3.90609 20.1015 3.2737 19.9118 2.91799 19.9118C1.89037 19.9039 1.02084 20.394 1.02084 20.394Z" fill="white"/>
</mask>
<g mask="url(#mask5_3_489)">
<path d="M0.586121 20.0381L4.74403 18.7339L5.55032 21.3029L1.3845 22.6072L0.586121 20.0381Z" fill="black"/>
</g>
<mask id="mask6_3_489" style="mask-type:luminance" maskUnits="userSpaceOnUse" x="0" y="22" width="4" height="4">
<path d="M1.12365 22.3464C0.910218 22.4649 0.570312 23.1052 0.570312 23.6269C0.570312 24.0617 0.783741 25.0182 1.80346 25.279C2.64927 25.5004 3.14727 25.2237 3.14727 25.2237C3.14727 25.2237 1.96155 25.0419 1.96155 23.6269C1.96155 22.7179 2.76784 22.1567 2.76784 22.1567C2.76784 22.1567 2.62555 22.1013 2.13546 22.1013C1.83508 22.1013 1.45565 22.1567 1.12365 22.3464Z" fill="white"/>
</mask>
<g mask="url(#mask6_3_489)">
<path d="M3.14727 22.1013H0.570312V25.5083H3.14727V22.1013Z" fill="black"/>
</g>
<path d="M0.570312 23.6269C0.570312 23.1052 0.910218 22.4649 1.12365 22.3463C1.45565 22.1645 1.82717 22.1013 2.13546 22.1013C2.62555 22.1013 2.75993 22.1645 2.75993 22.1645C2.75993 22.1645 1.95365 22.7258 1.95365 23.6348C1.95365 25.0498 3.13936 25.2316 3.13936 25.2316C3.13936 25.2316 2.88641 25.3739 2.43584 25.3739C2.25403 25.3739 2.0406 25.3501 1.79555 25.2869C0.783741 25.0181 0.570312 24.0617 0.570312 23.6269C0.570312 24.0617 0.783741 25.0182 1.80346 25.279C2.04851 25.3422 2.26193 25.366 2.44374 25.366C2.89432 25.366 3.14727 25.2237 3.14727 25.2237C3.14727 25.2237 1.96155 25.0419 1.96155 23.6269C1.96155 22.7179 2.76784 22.1566 2.76784 22.1566C2.76784 22.1566 2.62555 22.0934 2.14336 22.0934C1.83508 22.0934 1.46355 22.1566 1.13155 22.3384C0.910218 22.4649 0.570312 23.1052 0.570312 23.6269Z" fill="black"/>
<mask id="mask7_3_489" style="mask-type:luminance" maskUnits="userSpaceOnUse" x="9" y="21" width="4" height="5">
<path d="M9.72412 21.9433C9.73203 21.9433 11.147 22.1567 11.147 23.548C11.147 24.8285 10.1589 25.208 10.1589 25.208C10.1589 25.208 10.9336 25.4372 11.7477 25.1764C12.1746 25.042 12.4987 24.3859 12.4987 23.6428C12.4987 23.2318 12.2853 22.5124 11.8979 22.1884C11.5817 21.9275 11.1312 21.801 10.7438 21.801C9.96917 21.7931 9.72412 21.9433 9.72412 21.9433Z" fill="white"/>
</mask>
<g mask="url(#mask7_3_489)">
<path d="M12.4987 21.7929H9.72412V25.437H12.4987V21.7929Z" fill="black"/>
</g>
<path fill-rule="evenodd" clip-rule="evenodd" d="M17.6841 25.1132C17.3916 25.1132 17.107 25.1132 16.8146 25.1132C16.6011 25.0657 16.4905 24.8997 16.4668 24.6389C16.364 24.7891 16.2454 24.9076 16.1031 24.9867C15.7 25.2238 15.0202 25.2476 14.6012 25.042C14.1507 24.8207 13.8819 24.3227 14.04 23.8326C14.1902 23.3504 14.6408 23.1291 15.1071 23.05C15.4787 22.9868 15.9213 22.9868 16.443 22.9947C16.451 22.7496 16.3877 22.5757 16.277 22.4651C16.0241 22.1805 15.4945 22.2121 15.1546 22.2912C14.8858 22.3544 14.6329 22.473 14.4748 22.6074L14.4352 21.8248C14.8068 21.6904 15.2178 21.5876 15.6447 21.5876C16.1269 21.5797 16.7434 21.6825 17.0517 22.0856C17.2098 22.2675 17.2572 22.5204 17.281 22.7813C17.3047 23.137 17.2968 23.5322 17.2968 23.8958C17.2968 24.133 17.2968 24.3701 17.2968 24.6073C17.2968 24.631 17.3047 24.6468 17.3047 24.6705C17.3442 24.9472 17.4707 25.0895 17.6841 25.1132ZM16.443 23.5559C16.443 23.9354 16.3166 24.2516 16.0478 24.4255C15.7158 24.6468 15.0597 24.6547 14.9728 24.1804C14.949 24.0381 14.9965 23.8721 15.1467 23.7536C15.455 23.5164 16.0794 23.5401 16.443 23.5559Z" fill="black"/>
<path fill-rule="evenodd" clip-rule="evenodd" d="M25.8181 25.1132C25.5256 25.1132 25.241 25.1132 24.9485 25.1132C24.7351 25.0657 24.6245 24.8997 24.6007 24.6389C24.498 24.7891 24.3794 24.9076 24.2371 24.9867C23.834 25.2238 23.1542 25.2476 22.7273 25.042C22.2767 24.8207 22.008 24.3227 22.1661 23.8326C22.3163 23.3504 22.7668 23.1291 23.2332 23.05C23.6047 22.9868 24.0474 22.9868 24.5691 22.9947C24.577 22.7496 24.5138 22.5757 24.4031 22.4651C24.1502 22.1805 23.6205 22.2121 23.2806 22.2912C23.0119 22.3544 22.7589 22.473 22.6008 22.6074L22.5771 21.8248C22.9486 21.6904 23.3597 21.5876 23.7865 21.5876C24.2687 21.5797 24.8853 21.6825 25.1936 22.0856C25.3517 22.2675 25.3991 22.5204 25.4228 22.7813C25.4465 23.137 25.4386 23.5322 25.4386 23.8958C25.4386 24.133 25.4386 24.3701 25.4386 24.6073C25.4386 24.631 25.4465 24.6468 25.4465 24.6705C25.4861 24.9472 25.6125 25.0895 25.8181 25.1132ZM24.5849 23.5559C24.5849 23.9354 24.4584 24.2516 24.1897 24.4255C23.8577 24.6468 23.2016 24.6547 23.1146 24.1804C23.0909 24.0381 23.1384 23.8721 23.2885 23.7536C23.5889 23.5164 24.2213 23.5401 24.5849 23.5559Z" fill="black"/>
<path fill-rule="evenodd" clip-rule="evenodd" d="M20.8065 21.6271H21.7629V25.1052C21.178 25.1368 20.7907 24.8522 20.8065 24.3938V21.6271Z" fill="black"/>
<path fill-rule="evenodd" clip-rule="evenodd" d="M20.8538 20.1568C20.8142 20.141 20.7747 20.1252 20.7589 20.1489C20.7431 20.1805 20.7273 20.1884 20.7036 20.2121C20.6799 20.22 20.7273 20.3781 20.7115 20.4572C20.7115 20.4888 20.7352 20.4809 20.7431 20.4888C20.7589 20.5046 20.7589 20.5283 20.751 20.5441C20.7747 20.5599 20.7826 20.5678 20.7589 20.5837C20.7431 20.6074 20.751 20.6232 20.7589 20.6469C20.7668 20.6864 20.7905 20.7101 20.8142 20.7259C20.8696 20.7576 20.8933 20.7418 20.9565 20.7892C20.9802 20.8129 20.9961 20.8445 21.0119 20.8919C20.9961 21.0263 21.1462 21.0184 21.2174 20.9947C21.2411 20.9868 21.2016 20.9631 21.2174 20.9473C21.2253 20.9394 21.249 20.9394 21.2727 20.9315C21.3439 20.8999 21.3439 20.9078 21.3439 20.8524C21.3439 20.8208 21.3439 20.8366 21.3834 20.8287C21.4071 20.8287 21.3834 20.7971 21.4308 20.805C21.4703 20.8208 21.4703 20.8129 21.4703 20.7813C21.4703 20.7418 21.5099 20.7418 21.5494 20.7497C21.6443 20.7734 21.5731 20.718 21.6126 20.718C21.6838 20.718 21.6996 20.7101 21.7628 20.6074C21.7786 20.5837 21.7786 20.552 21.7786 20.5283C21.7865 20.4809 21.8023 20.4967 21.8023 20.4572C21.8103 20.4256 21.7944 20.386 21.7707 20.3544C21.7391 20.307 21.7391 20.3149 21.7154 20.2596C21.6996 20.2042 21.6917 20.1805 21.6443 20.1252C21.6047 20.0699 21.5415 20.0224 21.4941 19.975C21.4466 19.9355 21.4545 19.9355 21.4229 19.8959C21.415 19.888 21.4071 19.8801 21.3992 19.8801C21.3597 19.8643 21.3123 19.8643 21.2806 19.8564C21.2648 19.8485 21.249 19.8564 21.2332 19.8643C21.2016 19.888 21.2253 19.8801 21.1858 19.888C21.17 19.888 21.1463 19.9118 21.1304 19.9276C21.1225 19.9355 21.1146 19.9355 21.0988 19.9434C21.0672 19.975 21.083 19.9908 21.0435 19.9908C21.0119 19.9908 21.0119 19.9908 20.9961 20.0303C20.9882 20.054 20.9802 20.0778 20.9486 20.0778C20.9012 20.0778 20.9328 20.0857 20.9091 20.1015C20.9012 20.1094 20.8854 20.1015 20.8775 20.1094C20.8775 20.1331 20.8775 20.1568 20.8538 20.1568Z" fill="black"/>
<path fill-rule="evenodd" clip-rule="evenodd" d="M17.8107 25.034C17.8186 24.7652 17.953 24.5439 18.1743 24.4727C18.3245 24.4332 18.4273 24.4727 18.5695 24.4885C18.8225 24.5202 19.0754 24.4964 19.2414 24.4174C19.5102 24.2909 19.5023 24.0143 19.2573 23.8641C18.9727 23.6981 18.4114 23.6506 18.0636 23.3424C17.8502 23.1526 17.7554 22.8918 17.7712 22.6309C17.7949 22.1883 18.0953 21.8879 18.4905 21.7377C18.9411 21.5638 19.5576 21.5638 20.2375 21.7377L20.1821 22.4096C19.692 22.2357 19.0834 22.2041 18.8383 22.4254C18.6802 22.5677 18.6881 22.7495 18.8778 22.8602C19.2889 23.0815 19.8027 23.042 20.1742 23.4372C20.522 23.8087 20.4746 24.4411 20.1268 24.7889C19.8896 25.034 19.526 25.1446 19.1466 25.1763C18.7593 25.2079 18.3008 25.1605 17.8107 25.034Z" fill="black"/>
<path fill-rule="evenodd" clip-rule="evenodd" d="M29.2171 21.8485C29.5729 22.1094 29.6282 22.4572 29.6282 22.8761C29.6361 23.635 29.6361 24.3859 29.6361 25.1448C28.9326 25.1922 28.735 24.9077 28.7112 24.6547L28.7033 23.4295C28.7033 23.1844 28.7112 22.884 28.6006 22.6548C28.4741 22.4098 28.229 22.3149 27.9761 22.3307C27.573 22.3544 27.32 22.6232 27.2251 22.9947C27.1856 23.1686 27.1777 23.303 27.1777 23.4848L27.1619 25.1053H26.2133V21.6509H27.1066V22.1884C27.2726 21.9434 27.5334 21.7695 27.8338 21.6746C28.2844 21.5402 28.8377 21.5639 29.2171 21.8485Z" fill="black"/>
<path fill-rule="evenodd" clip-rule="evenodd" d="M37.7148 25.1132C37.4223 25.1132 37.1377 25.1132 36.8453 25.1132C36.6318 25.0657 36.5212 24.8997 36.4974 24.6389C36.3947 24.7891 36.2761 24.9076 36.1338 24.9867C35.7307 25.2238 35.0509 25.2476 34.624 25.042C34.1734 24.8207 33.9047 24.3227 34.0628 23.8326C34.213 23.3504 34.6635 23.1291 35.1299 23.05C35.5014 22.9868 35.9441 22.9868 36.4658 22.9947C36.4737 22.7496 36.4105 22.5757 36.2998 22.4651C36.0469 22.1805 35.5173 22.2121 35.1774 22.2912C34.9086 22.3544 34.6556 22.473 34.4975 22.6074L34.4738 21.8248C34.8454 21.6904 35.2564 21.5876 35.6833 21.5876C36.1654 21.5797 36.782 21.6825 37.0903 22.0856C37.2484 22.2675 37.2958 22.5204 37.3195 22.7813C37.3433 23.137 37.3354 23.5322 37.3354 23.8958C37.3354 24.133 37.3354 24.3701 37.3354 24.6073C37.3354 24.631 37.3433 24.6468 37.3433 24.6705C37.3749 24.9472 37.5093 25.0895 37.7148 25.1132ZM36.4816 23.5559C36.4816 23.9354 36.3552 24.2516 36.0864 24.4255C35.7544 24.6468 35.0983 24.6547 35.0113 24.1804C34.9876 24.0381 35.0351 23.8721 35.1853 23.7536C35.4856 23.5164 36.118 23.5401 36.4816 23.5559Z" fill="black"/>
<path fill-rule="evenodd" clip-rule="evenodd" d="M37.8096 21.6271H38.7661V25.1052C38.1812 25.1368 37.7938 24.8522 37.8096 24.3938V21.6271Z" fill="black"/>
<path fill-rule="evenodd" clip-rule="evenodd" d="M37.8571 20.1568C37.8176 20.141 37.7781 20.1252 37.7623 20.1489C37.7464 20.1805 37.7306 20.1884 37.7069 20.2121C37.6832 20.22 37.7306 20.3781 37.7148 20.4572C37.7148 20.4888 37.7385 20.4809 37.7464 20.4888C37.7623 20.5046 37.7623 20.5283 37.7544 20.5441C37.7702 20.5599 37.786 20.5678 37.7623 20.5837C37.7464 20.6074 37.7544 20.6232 37.7623 20.6469C37.7702 20.6864 37.7939 20.7101 37.8176 20.7259C37.8729 20.7576 37.8966 20.7418 37.9599 20.7892C37.9836 20.8129 37.9994 20.8445 38.0152 20.8919C37.9994 21.0263 38.1496 21.0184 38.2207 20.9947C38.2444 20.9868 38.2049 20.9631 38.2207 20.9473C38.2286 20.9394 38.2524 20.9394 38.2761 20.9315C38.3472 20.8999 38.3472 20.9078 38.3472 20.8524C38.3472 20.8208 38.3472 20.8366 38.3867 20.8287C38.4104 20.8287 38.3867 20.7971 38.4342 20.805C38.4737 20.8208 38.4737 20.8208 38.4737 20.7813C38.4737 20.7418 38.5132 20.7418 38.5527 20.7497C38.6476 20.7734 38.5764 20.718 38.616 20.718C38.6871 20.718 38.7029 20.7101 38.7662 20.6074C38.782 20.5837 38.782 20.552 38.782 20.5283C38.7899 20.4809 38.8057 20.4967 38.8057 20.4572C38.8136 20.4256 38.7978 20.386 38.7741 20.3544C38.7424 20.307 38.7424 20.3149 38.7187 20.2596C38.7029 20.2042 38.695 20.1805 38.6476 20.1252C38.6081 20.0699 38.5448 20.0224 38.4974 19.975C38.45 19.9355 38.4579 19.9355 38.4263 19.8959C38.4184 19.888 38.4104 19.8801 38.4025 19.8801C38.363 19.8643 38.3156 19.8643 38.284 19.8564C38.2682 19.8485 38.2524 19.8564 38.2365 19.8643C38.2049 19.888 38.2286 19.8801 38.1891 19.888C38.1733 19.888 38.1496 19.9118 38.1338 19.9276C38.1259 19.9355 38.118 19.9355 38.1022 19.9434C38.0705 19.975 38.0864 19.9908 38.0468 19.9908C38.0152 19.9908 38.0152 19.9908 37.9994 20.0303C37.9915 20.054 37.9836 20.0778 37.952 20.0778C37.9045 20.0778 37.9362 20.0857 37.9124 20.1015C37.8966 20.1094 37.8887 20.1015 37.8808 20.1094C37.8808 20.1331 37.8808 20.1568 37.8571 20.1568Z" fill="black"/>
<path fill-rule="evenodd" clip-rule="evenodd" d="M45.3981 25.034C45.406 24.7652 45.5404 24.5439 45.7617 24.4727C45.9119 24.4332 46.0147 24.4727 46.157 24.4885C46.4099 24.5202 46.6629 24.4964 46.8289 24.4174C47.0976 24.2909 47.0897 24.0143 46.8447 23.8641C46.5601 23.6981 45.9989 23.6506 45.6511 23.3424C45.4376 23.1526 45.3428 22.8918 45.3586 22.6309C45.3823 22.1883 45.6827 21.8879 46.0779 21.7377C46.5285 21.5638 47.1451 21.5638 47.8249 21.7377L47.7696 22.4096C47.2795 22.2357 46.6708 22.2041 46.4257 22.4254C46.2676 22.5677 46.2755 22.7495 46.4653 22.8602C46.8763 23.0815 47.3901 23.042 47.7616 23.4372C48.1095 23.8087 48.062 24.4411 47.7142 24.7889C47.4771 25.034 47.1135 25.1446 46.734 25.1763C46.3467 25.2079 45.8961 25.1605 45.3981 25.034Z" fill="black"/>
<path fill-rule="evenodd" clip-rule="evenodd" d="M42.3707 21.8089C42.7264 22.0697 42.7817 22.4175 42.7817 22.8365L42.7976 24.4807C42.7976 24.6862 42.8687 24.9708 43.3272 25.0973H42.3865C41.9992 25.034 41.8806 24.8206 41.8648 24.623L41.8569 23.3977C41.8569 23.1527 41.8648 22.8523 41.7541 22.6231C41.6276 22.378 41.3826 22.2832 41.1296 22.299C40.7265 22.3227 40.4736 22.5914 40.3787 22.963C40.3392 23.1369 40.3313 23.2712 40.3313 23.4531L40.3155 25.0735H39.3669V21.6191H40.2601V22.1567C40.4261 21.9116 40.687 21.7377 40.9874 21.6429C41.43 21.5006 41.9913 21.5243 42.3707 21.8089Z" fill="black"/>
<path fill-rule="evenodd" clip-rule="evenodd" d="M44.1255 20.6231C43.5959 20.5915 43.1927 20.8919 43.1927 21.3108L43.1769 23.8403C43.169 24.5834 43.4299 24.9549 43.8962 25.0893C44.1966 25.1762 44.584 25.1841 45.0503 25.0735L45.0266 24.362C44.4812 24.4964 44.1334 24.362 44.1334 23.8403V22.3147H44.9871V21.6349H44.1334V20.6231H44.1255Z" fill="black"/>
<path fill-rule="evenodd" clip-rule="evenodd" d="M32.6004 22.6863C32.8138 23.0736 32.798 23.7534 32.5451 24.117C32.2684 24.5202 31.6756 24.5755 31.3357 24.2198C30.9957 23.872 30.9878 23.1606 31.2171 22.7495C31.5017 22.2278 32.2921 22.1409 32.6004 22.6863ZM31.1143 24.7099C31.1064 25.2158 31.0748 25.777 31.0827 26.3067C31.0827 26.3383 31.0827 26.362 31.0827 26.3778C31.0669 26.449 31.0432 26.4252 31.0037 26.4648C30.972 26.4964 30.9562 26.5517 30.9562 26.5833C30.9799 26.947 30.9167 27.1604 30.9246 27.5161C30.9246 27.6584 30.8297 27.6426 30.8218 27.7216C30.8218 27.7849 30.806 27.8323 30.7823 27.8481C30.7823 27.7295 30.7823 27.611 30.7823 27.4924C30.7586 27.4845 30.7665 27.5714 30.7507 27.6426C30.7428 27.6821 30.7586 27.7374 30.7428 27.777C30.727 27.8323 30.727 27.9113 30.7191 27.9667C30.7112 27.9983 30.6796 28.0062 30.6717 27.9667C30.6717 27.9271 30.6717 27.8797 30.6717 27.8323C30.6479 27.8165 30.6321 27.777 30.6242 27.7058C30.6242 27.5872 30.6242 27.4608 30.6242 27.3422C30.5689 27.3027 30.5689 27.2552 30.5847 27.0576C30.6084 26.8284 30.6084 26.5833 30.6163 26.3462C30.6084 26.3067 30.5926 26.2909 30.5768 26.283C30.561 26.4806 30.5057 26.6229 30.5057 26.8521C30.5294 26.8837 30.5452 26.9153 30.5373 26.9549C30.5294 26.9944 30.5057 27.0181 30.5136 27.0813C30.5136 27.1288 30.4898 27.1604 30.4582 27.1762C30.4424 27.0892 30.4661 26.7968 30.474 26.6782C30.474 26.449 30.474 26.2118 30.474 25.9826C30.4266 25.9668 30.4503 26.0695 30.4266 26.1249C30.4266 26.2118 30.4345 26.2434 30.3871 26.2671C30.3476 25.9035 30.4029 25.6664 30.3792 25.0498C30.3792 25.034 30.3713 24.9866 30.3317 24.9866C30.3159 25.4846 30.3555 25.9589 30.2922 26.4173C30.2922 26.4885 30.3001 26.5675 30.2843 26.6466C30.2764 26.6782 30.308 26.773 30.2527 26.7493C30.229 26.7335 30.2132 26.7098 30.229 26.6861C30.2448 26.6545 30.2606 26.6861 30.2527 26.5991C30.2527 26.5438 30.2685 26.5122 30.2369 26.4727C30.2132 26.441 30.2211 26.4015 30.2448 26.3462C30.2606 26.2988 30.2606 26.2355 30.2369 26.196C30.2211 26.1723 30.2527 26.1723 30.2527 26.117C30.2843 25.8324 30.1816 25.9905 30.2053 25.7059C30.2132 25.6427 30.2132 25.5873 30.2132 25.5162C30.2211 25.1842 30.2132 24.8206 30.2211 24.4807C30.2211 24.4411 30.1974 24.4253 30.1816 24.4569C30.1025 24.5755 30.1262 24.2751 30.1262 24.2435C30.1262 23.7139 30.1183 23.1527 30.1657 23.0736C30.1657 22.7969 30.1578 22.5124 30.1578 22.2357C30.1183 22.2041 30.1104 22.2989 30.1104 22.3227C30.1104 22.3385 30.1104 22.3464 30.1104 22.3543C30.1104 22.3859 30.063 22.3938 30.063 22.3622C30.063 22.3464 30.0551 22.3385 30.0551 22.3227C30.0472 22.1804 30.0472 21.9669 30.0788 21.9748C30.0867 21.7377 30.0946 21.5717 30.1578 21.5322C30.1974 21.5085 30.2685 21.5085 30.2843 21.5638C30.3001 21.5954 30.2764 21.6112 30.3238 21.6112C30.3476 21.6112 30.3713 21.6112 30.3871 21.6033C30.4108 21.5954 30.4029 21.5717 30.4424 21.5796C30.5057 21.5796 30.4345 21.6982 30.5531 21.6982C30.6637 21.6982 30.6479 21.627 30.6558 21.5717C30.6637 21.5401 30.7349 21.5401 30.7507 21.5559C30.7902 21.6033 30.7349 21.6033 30.8297 21.6033C31.0511 21.6112 31.0906 21.7298 31.0827 21.8326V22.125C31.6518 21.4057 32.9087 21.3741 33.462 22.2199C33.881 22.8523 33.8415 24.0064 33.3909 24.615C32.8929 25.279 31.6677 25.4213 31.1143 24.7099Z" fill="black"/>
</g>
<defs>
<clipPath id="clip0_3_489">
<rect width="48" height="9.16031" fill="white" transform="translate(0 19.2)"/>
</clipPath>
</defs>
</svg>
