<svg width="48" height="48" viewBox="0 0 48 48" fill="none" xmlns="http://www.w3.org/2000/svg">
<path d="M38.54 10.66C35.88 9.42 33 8.52 30 8C29.9737 7.99916 29.9475 8.0041 29.9233 8.01446C29.8992 8.02483 29.8775 8.04037 29.86 8.06C29.5 8.72 29.08 9.58 28.8 10.24C25.618 9.76 22.382 9.76 19.2 10.24C18.92 9.56 18.5 8.72 18.12 8.06C18.1 8.02 18.04 8 17.98 8C14.98 8.52 12.12 9.42 9.44 10.66C9.42 10.66 9.4 10.68 9.38 10.7C3.94 18.84 2.44 26.76 3.18 34.6C3.18 34.64 3.2 34.68 3.24 34.7C6.84 37.34 10.3 38.94 13.72 40C13.78 40.02 13.84 40 13.86 39.96C14.66 38.86 15.38 37.7 16 36.48C16.04 36.4 16 36.32 15.92 36.3C14.78 35.86 13.7 35.34 12.64 34.74C12.56 34.7 12.56 34.58 12.62 34.52C12.84 34.36 13.06 34.18 13.28 34.02C13.32 33.98 13.38 33.98 13.42 34C20.3 37.14 27.72 37.14 34.52 34C34.56 33.98 34.62 33.98 34.66 34.02C34.88 34.2 35.1 34.36 35.32 34.54C35.4 34.6 35.4 34.72 35.3 34.76C34.26 35.38 33.16 35.88 32.02 36.32C31.94 36.34 31.92 36.44 31.94 36.5C32.58 37.72 33.3 38.88 34.08 39.98C34.14 40 34.2 40.02 34.26 40C37.7 38.94 41.16 37.34 44.76 34.7C44.8 34.68 44.82 34.64 44.82 34.6C45.7 25.54 43.36 17.68 38.62 10.7C38.6 10.68 38.58 10.66 38.54 10.66ZM17.04 29.82C14.98 29.82 13.26 27.92 13.26 25.58C13.26 23.24 14.94 21.34 17.04 21.34C19.16 21.34 20.84 23.26 20.82 25.58C20.82 27.92 19.14 29.82 17.04 29.82ZM30.98 29.82C28.92 29.82 27.2 27.92 27.2 25.58C27.2 23.24 28.88 21.34 30.98 21.34C33.1 21.34 34.78 23.26 34.76 25.58C34.76 27.92 33.1 29.82 30.98 29.82Z" fill="black"/>
</svg>
