<svg width="48" height="48" viewBox="0 0 48 48" fill="none" xmlns="http://www.w3.org/2000/svg">
<path d="M24 7.69601C10.446 7.69601 0 14.596 0 24C0 33.404 10.448 40.304 24 40.304C37.552 40.304 48 33.404 48 24C48 14.596 37.554 7.69601 24 7.69601ZM38.668 15.374C38.668 17.534 35.218 19.2 29.692 19.866C29.172 14.706 27.682 11.308 25.766 10.04C31.662 10.408 38.668 12.494 38.668 15.374ZM24 32.802C22.08 32.802 20.508 29.802 20.384 24.024C21.538 24.118 22.744 24.168 24 24.168C25.256 24.168 26.46 24.118 27.614 24.024C27.492 29.804 25.92 32.802 24 32.802ZM24 20.186C22.82 20.186 21.69 20.148 20.62 20.078C21.142 16.622 22.46 13.778 24 13.778C25.54 13.778 26.856 16.622 27.378 20.078C26.308 20.146 25.18 20.186 24 20.186ZM22.236 10.036C20.324 11.302 18.824 14.702 18.308 19.866C12.782 19.2 9.33 17.534 9.33 15.374C9.33 12.494 16.338 10.394 22.236 10.036ZM4.074 23.36C4.06895 21.0794 4.80449 18.8587 6.17 17.032C6.71 20.126 11.214 22.794 18.114 23.772V24C18.114 31.544 19.872 36.406 22.288 37.94C12.074 37.298 4.074 30.98 4.074 23.36ZM25.72 37.94C28.134 36.406 29.894 31.544 29.894 24V23.77C36.788 22.794 41.302 20.118 41.838 17.03C43.2053 18.8567 43.9416 21.0783 43.936 23.36C43.928 30.98 35.922 37.298 25.72 37.94Z" fill="black"/>
</svg>
