<svg width="48" height="48" viewBox="0 0 48 48" fill="none" xmlns="http://www.w3.org/2000/svg">
<path d="M40.8 35.0697C40.8 36.3236 40.1195 38.7385 38.5905 40.0649C38.2847 40.3064 37.9789 40.1701 38.1133 39.8182C38.5586 38.7005 39.5768 36.1149 39.0996 35.5199C38.7619 35.0679 37.3673 35.1024 36.1777 35.2059C35.635 35.2767 35.1578 35.3094 34.7882 35.387C34.4454 35.4146 34.3765 35.1059 34.7193 34.8644C35.1657 34.5409 35.659 34.2917 36.1811 34.1262C38.1133 33.5328 40.3463 33.8899 40.6673 34.2693C40.7278 34.3418 40.8 34.547 40.8 35.0697ZM37.5706 37.2999C37.1275 37.6478 36.6621 37.9647 36.1777 38.2486C32.6123 40.4478 27.9933 41.6 23.9826 41.6C17.5255 41.6 11.7506 39.1559 7.36855 35.0662C6.99218 34.7523 7.30303 34.2969 7.74324 34.5436C12.4647 37.3724 18.3085 39.0834 24.3573 39.0834C28.1647 39.0834 32.2678 38.3521 36.1777 36.779C36.4516 36.6738 36.7574 36.5306 37.0245 36.4306C37.6412 36.146 38.1839 36.848 37.5706 37.2999ZM27.2036 18.2747C27.2036 16.4791 27.2742 15.4218 26.6945 14.5145C26.1804 13.7676 25.2949 13.3191 24.0582 13.3899C22.7174 13.4658 21.2775 14.3679 20.9112 16.022C20.8389 16.4015 20.6239 16.774 20.1769 16.8551L16.0856 16.3204C15.7932 16.2514 15.3479 16.022 15.4941 15.4218C16.3729 10.6767 20.3231 9.02251 24.0599 8.8H24.937C26.9869 8.8 29.6215 9.40198 31.3067 10.9802C33.3516 12.9397 33.1331 15.5718 33.1331 18.4316V25.2052C33.1331 27.2371 33.9363 28.1374 34.7428 29.1965C34.9612 29.5743 35.0368 30.0193 34.6689 30.3263C33.6103 31.2951 32.5365 32.2462 31.4479 33.1792C31.1538 33.4086 30.6262 33.4328 30.4229 33.2568C29.1292 32.1443 28.8133 31.5268 28.0118 30.397C26.6172 31.8994 25.4461 32.729 24.0532 33.1792C23.0736 33.4344 22.0663 33.5596 21.0557 33.5518C17.544 33.5518 14.7632 31.3043 14.7632 26.8593C14.7632 23.3251 16.5947 20.9223 19.2998 19.7857C22.005 18.6472 25.9367 18.285 27.2036 18.2781M26.4022 27.2336C27.2759 25.7295 27.2036 24.498 27.2036 21.7399C26.1081 21.7399 25.0092 21.8175 24.0599 22.047C22.3041 22.5696 20.9095 23.7028 20.9095 26.109C20.9095 27.9891 21.8639 29.269 23.4735 29.269C23.6953 29.269 23.8902 29.2414 24.0582 29.1913C25.184 28.8705 25.8863 28.291 26.4022 27.2336Z" fill="black"/>
</svg>
