<svg width="48" height="48" viewBox="0 0 48 48" fill="none" xmlns="http://www.w3.org/2000/svg">
<path d="M12.0018 16.338C13.1911 16.338 14.1553 17.3019 14.1553 18.4913C14.1553 19.6809 13.1911 20.6448 12.0018 20.6448H2.15357C0.964146 20.6448 0 19.6809 0 18.4913C0 17.3019 0.964146 16.338 2.15349 16.338H12.0018Z" fill="black"/>
<path d="M11.0119 21.9808C12.2014 21.9808 13.1656 22.9448 13.1656 24.1342C13.1656 25.3237 12.2014 26.2877 11.0119 26.2877H5.40666C4.92859 26.2894 4.53728 26.6676 4.51898 27.1409V29.9477C4.51898 31.1369 3.55483 32.101 2.36572 32.101C1.1763 32.101 0.212158 31.1369 0.212158 29.9477V25.1711C0.212158 23.4092 1.64042 21.9807 3.40238 21.9807L11.0119 21.9808ZM15.1333 18.0375C15.1333 16.8482 16.0974 15.884 17.2868 15.884C18.4763 15.884 19.4402 16.8482 19.4402 18.0375V29.9627C19.4402 31.1521 18.4763 32.1162 17.2868 32.1162C16.0975 32.1162 15.1333 31.152 15.1333 29.9627V18.0375ZM41.6379 27.8449L42.5033 27.8427C42.5883 27.8426 42.6697 27.8089 42.7298 27.7488C42.7898 27.6887 42.8236 27.6073 42.8236 27.5224C42.8249 27.4803 42.8172 27.4384 42.801 27.3996L39.5831 21.9922L34.556 30.6968C34.1676 31.37 33.4703 31.7538 32.7467 31.7731C32.7251 31.7762 32.7033 31.7777 32.6815 31.7777H24.5003C22.7383 31.7777 21.3099 30.3493 21.3099 28.5874V18.0376C21.3099 16.8483 22.2741 15.8841 23.4634 15.8841C24.6526 15.8841 25.6169 16.8483 25.6169 18.0376V26.5828C25.6184 27.0611 25.9966 27.4527 26.4701 27.4705H31.0467C31.1644 27.4343 31.5244 27.3119 31.634 27.1415L37.3824 17.1907C37.8186 16.4417 38.6299 15.9375 39.5586 15.9375C40.4878 15.9375 41.2994 16.4425 41.7336 17.193L47.335 26.5973C47.7671 27.1591 48.0009 27.8483 47.9999 28.5571C47.9999 30.3358 46.558 31.7775 44.7796 31.7775H38.2504C37.1639 31.7775 36.284 30.8971 36.284 29.8109C36.284 28.7252 37.164 27.8449 38.2504 27.8449H41.6379Z" fill="black"/>
</svg>
