<svg width="48" height="48" viewBox="0 0 48 48" fill="none" xmlns="http://www.w3.org/2000/svg">
<path d="M10.29 22.622H13.56C13.9133 22.6198 14.2532 22.7573 14.5057 23.0046C14.7581 23.2518 14.9027 23.5887 14.908 23.942V26.96H10.018C9.80227 26.9611 9.5949 26.8767 9.44123 26.7252C9.28757 26.5738 9.20011 26.3677 9.198 26.152V25.104C9.20064 24.9031 9.2827 24.7115 9.42624 24.5709C9.56977 24.4304 9.76312 24.3524 9.964 24.354H12.672L12.384 24.966H10.388C10.302 24.966 10.204 25.034 10.204 25.128V25.952C10.204 26.046 10.302 26.116 10.388 26.116H13.848V24.136C13.848 23.754 13.51 23.46 13.134 23.46H9.89L10.29 22.622ZM37.144 21.048V26.966H32.378C32.1626 26.9671 31.9555 26.8829 31.8019 26.732C31.6483 26.581 31.5606 26.3754 31.558 26.16V23.94C31.5638 23.5867 31.7089 23.25 31.9617 23.0031C32.2146 22.7563 32.5547 22.6193 32.908 22.622H35.622L35.222 23.466H33.326C32.95 23.466 32.612 23.76 32.612 24.14V25.96C32.612 26.052 32.71 26.12 32.796 26.12H36.084V21.048H37.144ZM20.4 26.966H21.454V23.946C21.4482 23.593 21.3034 23.2566 21.051 23.0098C20.7986 22.7631 20.459 22.6258 20.106 22.628H17.864L17.464 23.472H19.686C20.062 23.472 20.4 23.766 20.4 24.146V26.966ZM16.01 21.046V26.966H17.064V21.046H16.01ZM7.21 26.966H8.264V23.946C8.25821 23.593 8.11338 23.2566 7.86098 23.0098C7.60858 22.7631 7.26899 22.6258 6.916 22.628H0V26.966H1.052V23.628C1.052 23.534 1.152 23.466 1.238 23.466H3.418C3.504 23.466 3.602 23.534 3.602 23.628V26.966H4.656V23.628C4.656 23.534 4.754 23.466 4.84 23.466H6.496C6.872 23.466 7.21 23.76 7.21 24.14V26.966ZM42.65 22.622H40C39.6467 22.6198 39.3068 22.7573 39.0543 23.0046C38.8019 23.2518 38.6573 23.5887 38.652 23.942V26.96H39.706V24.14C39.706 23.76 40.044 23.466 40.42 23.466H42.248L42.65 22.622ZM29.144 22.622C29.4977 22.6193 29.8381 22.7566 30.091 23.0038C30.3439 23.2511 30.4887 23.5883 30.494 23.942V26.96H29.44V24.14C29.44 23.76 29.1 23.466 28.726 23.466H26.19V26.966H25.136V22.628C26.466 22.628 27.802 22.622 29.144 22.622ZM22.764 22.896L23.818 22.284V26.96H22.766L22.764 22.896ZM23.824 21.678V21.034H22.772V22.284L23.824 21.678ZM43.388 22.622H46.652C47.0053 22.6198 47.3452 22.7573 47.5977 23.0046C47.8501 23.2518 47.9947 23.5887 48 23.942V26.96H43.11C42.8943 26.9611 42.6869 26.8767 42.5332 26.7252C42.3796 26.5738 42.2921 26.3677 42.29 26.152V25.104C42.2926 24.9031 42.3747 24.7115 42.5182 24.5709C42.6618 24.4304 42.8551 24.3524 43.056 24.354H45.764L45.476 24.966H43.48C43.394 24.966 43.296 25.034 43.296 25.128V25.952C43.296 26.046 43.394 26.116 43.48 26.116H46.94V24.136C46.94 23.754 46.602 23.46 46.226 23.46H42.982L43.388 22.622Z" fill="black"/>
</svg>
