<svg width="48" height="48" viewBox="0 0 48 48" fill="none" xmlns="http://www.w3.org/2000/svg">
<path d="M40.84 14.69V33.05H44.142V14.69H40.84ZM0 14.95V18.424H3.474V14.948L0 14.95ZM19.56 15.654V27.76C19.56 28.786 19.648 29.65 19.82 30.344C19.994 31.024 20.29 31.58 20.7 32C21.106 32.42 21.65 32.718 22.306 32.902C22.974 33.088 23.814 33.174 24.816 33.174H25.248V30.108C24.768 30.108 24.358 30.084 24.062 30.034C23.7713 30.0065 23.4975 29.885 23.282 29.688C23.0924 29.4779 22.9716 29.2148 22.936 28.934C22.8807 28.5325 22.8559 28.1273 22.862 27.722V23.358H25.248V20.526H22.862V15.654H19.56ZM12.55 20.278C11.758 20.278 11.03 20.438 10.386 20.76C9.732 21.082 9.186 21.528 8.742 22.096L8.568 22.33V20.526H5.316V33.038H8.594V26.61C8.63 25.434 8.914 24.57 9.46 24.012C10.04 23.418 10.744 23.122 11.548 23.122C12.5 23.122 13.23 23.42 13.712 23.988C14.182 24.556 14.43 25.36 14.43 26.388V33.036H17.756V25.94C17.768 24.16 17.298 22.75 16.384 21.76C15.468 20.77 14.184 20.276 12.55 20.276V20.278ZM32.68 20.29C31.8246 20.2866 30.9769 20.4519 30.1855 20.7766C29.3941 21.1013 28.6746 21.5788 28.068 22.182C27.488 22.762 27.018 23.456 26.684 24.248C26.3395 25.0521 26.1664 25.9192 26.176 26.794C26.176 27.698 26.336 28.55 26.658 29.342C26.98 30.132 27.438 30.826 28.006 31.406C28.574 31.986 29.28 32.458 30.096 32.792C30.912 33.138 31.816 33.312 32.78 33.312C35.574 33.312 37.304 32.038 38.344 30.852L35.97 29.044C35.474 29.638 34.288 30.442 32.804 30.442C31.876 30.442 31.11 30.232 30.528 29.8C29.9456 29.3707 29.5271 28.7555 29.342 28.056L29.304 27.944H39.134V26.77C39.134 25.868 38.974 25.026 38.664 24.236C38.3525 23.4728 37.9045 22.7727 37.342 22.17C36.7646 21.573 36.0701 21.1018 35.302 20.786C34.4702 20.4463 33.5784 20.2776 32.68 20.29ZM0.086 20.526V33.038H3.388V20.526H0.086ZM32.642 23.098C34.906 23.098 35.97 24.692 35.97 25.608L29.33 25.62C29.33 24.704 30.38 23.11 32.642 23.098ZM46.788 30.726C46.4666 30.726 46.1583 30.8537 45.931 31.081C45.7037 31.3083 45.576 31.6166 45.576 31.938C45.576 32.2594 45.7037 32.5677 45.931 32.795C46.1583 33.0223 46.4666 33.15 46.788 33.15C47.1094 33.15 47.4177 33.0223 47.645 32.795C47.8723 32.5677 48 32.2594 48 31.938C48 31.6166 47.8723 31.3083 47.645 31.081C47.4177 30.8537 47.1094 30.726 46.788 30.726ZM46.772 30.936C46.7733 30.936 46.7747 30.936 46.776 30.936C46.9075 30.936 47.0377 30.9619 47.1591 31.0123C47.2806 31.0627 47.3909 31.1365 47.4838 31.2296C47.5767 31.3227 47.6503 31.4331 47.7005 31.5547C47.7506 31.6763 47.7763 31.8065 47.776 31.938C47.776 32.0693 47.7501 32.1994 47.6999 32.3207C47.6496 32.442 47.576 32.5523 47.4831 32.6451C47.3903 32.738 47.28 32.8116 47.1587 32.8619C47.0374 32.9121 46.9073 32.938 46.776 32.938C46.5108 32.938 46.2564 32.8326 46.0689 32.6451C45.8814 32.4576 45.776 32.2032 45.776 31.938C45.776 31.6735 45.8808 31.4197 46.0675 31.2323C46.2542 31.0449 46.5075 30.9371 46.772 30.936ZM46.306 31.246V32.644H46.566V32.074H46.752L47.098 32.644H47.37L47.01 32.05C47.0994 32.0416 47.1829 32.0019 47.246 31.938C47.306 31.878 47.346 31.79 47.346 31.666C47.346 31.53 47.306 31.432 47.22 31.358C47.146 31.282 47.01 31.246 46.85 31.246H46.306ZM46.566 31.444H46.874C46.912 31.444 46.948 31.456 46.986 31.468C47.0178 31.4782 47.0444 31.5005 47.06 31.53C47.086 31.556 47.084 31.592 47.084 31.642C47.0845 31.68 47.0763 31.7177 47.06 31.752C47.0385 31.7762 47.0136 31.7971 46.986 31.814C46.948 31.826 46.912 31.84 46.874 31.84H46.566V31.444Z" fill="black"/>
</svg>
