<svg width="48" height="48" viewBox="0 0 48 48" fill="none" xmlns="http://www.w3.org/2000/svg">
<path d="M5.7 25.572C3.278 25.548 1.716 24.4 1.716 22.642C1.716 20.884 3.278 19.738 5.696 19.712C8.116 19.738 9.68 20.888 9.68 22.642C9.68 24.396 8.116 25.548 5.7 25.572ZM5.768 18.296H5.622C2.312 18.35 0 20.136 0 22.64C0 25.144 2.312 26.934 5.622 26.988H5.768C9.078 26.934 11.39 25.146 11.39 22.64C11.39 20.134 9.078 18.35 5.768 18.296ZM42.308 25.572C39.888 25.548 38.324 24.398 38.324 22.642C38.324 20.886 39.888 19.738 42.306 19.712C44.726 19.738 46.288 20.888 46.288 22.642C46.288 24.396 44.726 25.548 42.308 25.572ZM42.378 18.296H42.232C38.922 18.35 36.61 20.136 36.61 22.642C36.61 25.148 38.922 26.936 42.23 26.99H42.378C45.688 26.936 48 25.148 48 22.64C48 20.132 45.688 18.35 42.378 18.296ZM30.126 25.572C27.706 25.548 26.146 24.398 26.146 22.642C26.146 20.886 27.706 19.738 30.126 19.712C32.546 19.738 34.108 20.888 34.108 22.642C34.108 24.396 32.546 25.548 30.128 25.572H30.126ZM30.198 18.296H30.052C28.474 18.322 27.124 18.74 26.142 19.444V18.704H24.428V29.704H26.142V25.842C27.122 26.544 28.474 26.962 30.05 26.99H30.198C33.508 26.936 35.818 25.148 35.818 22.642C35.818 20.136 33.508 18.35 30.198 18.296ZM17.91 25.572C15.49 25.548 13.93 24.398 13.93 22.642C13.93 20.886 15.49 19.738 17.91 19.712C20.33 19.738 21.892 20.888 21.892 22.642C21.892 24.396 20.33 25.548 17.912 25.572H17.91ZM17.984 18.296H17.84C16.262 18.322 14.912 18.74 13.93 19.444V18.704H12.218V29.704H13.93V25.842C14.912 26.544 16.262 26.962 17.84 26.99C17.8887 26.9905 17.9373 26.9905 17.986 26.99C21.296 26.936 23.608 25.148 23.608 22.642C23.608 20.136 21.296 18.35 17.988 18.296H17.984Z" fill="black"/>
</svg>
