<svg width="48" height="48" viewBox="0 0 48 48" fill="none" xmlns="http://www.w3.org/2000/svg">
<path d="M25.5503 13.3102C25.6279 13.3051 25.7057 13.3172 25.7781 13.3455C25.8504 13.3739 25.9156 13.4179 25.9688 13.4743C26.022 13.5307 26.0619 13.5981 26.0858 13.6717C26.1096 13.7453 26.1167 13.8232 26.1066 13.8998L26.1119 14.3856C26.1137 15.4294 26.1084 16.4715 26.1154 17.5135C26.1225 18.2774 26.2572 18.4235 27.0013 18.5168C28.8581 18.6865 30.7278 18.6593 32.5787 18.4358C33.5378 18.3697 34.4793 18.1473 35.3657 17.7775C35.5841 17.7108 35.7687 17.5639 35.882 17.3667C35.9952 17.1695 36.0285 16.9369 35.9752 16.7161C35.6226 14.2796 34.5257 12.0093 32.8328 10.2119C31.1399 8.41448 28.9325 7.1766 26.5088 6.66544C24.3569 6.20071 22.1167 6.34835 20.0455 7.09141C18.2268 7.7206 16.5889 8.77882 15.2724 10.1753C13.2458 12.1777 12.0738 14.879 12 17.7177C12.0384 21.1328 12.9701 24.4793 14.7037 27.4286C14.9154 27.8599 15.2542 28.2169 15.6752 28.452C16.0961 28.6872 16.5792 28.7895 17.0601 28.7453C18.217 28.7171 19.3757 28.7382 20.5327 28.7382V28.7329H24.225C24.6679 28.7329 25.017 28.8385 25.0134 29.3877C25.0046 30.6656 25.0134 31.94 25.0081 33.2179C25.0046 33.6051 24.8947 33.9783 24.4305 33.9818C23.9628 33.9853 23.8512 33.6139 23.8458 33.2249C23.837 32.6141 23.8458 32.0034 23.8458 31.3926C23.8458 30.5987 23.7165 30.4122 22.9192 30.2661C21.5425 30.0432 20.1395 30.0313 18.7592 30.2309C18.2712 30.2702 17.7928 30.3866 17.3418 30.5758C16.9662 30.7519 16.8174 31.0071 16.9998 31.3979C17.1894 31.8045 17.3648 32.2199 17.5898 32.6089C19.4096 35.6514 21.4377 38.5661 23.6598 41.3324C23.9327 41.6826 24.1435 41.6897 24.4234 41.35C25.0418 40.6001 25.6902 39.8732 26.3015 39.118C28.6987 36.234 30.8204 33.1344 32.639 29.8595C33.853 27.7295 34.7449 25.4337 35.286 23.0458C35.406 22.7399 35.4528 22.4106 35.4226 22.0837C35.3925 21.7568 35.2863 21.4413 35.1124 21.1622C34.9385 20.8831 34.7017 20.648 34.4207 20.4754C34.1396 20.3028 33.822 20.1976 33.493 20.1679C32.5219 19.9543 31.5284 19.8586 30.5342 19.8827C28.9236 19.8721 27.3131 19.8774 25.7026 19.8792C25.2685 19.8792 24.9461 19.756 24.9461 19.249C24.9461 17.4712 24.9425 15.6899 24.9496 13.9104C24.9496 13.5302 25.1339 13.2943 25.5503 13.3102Z" fill="black"/>
</svg>
