<svg width="48" height="48" viewBox="0 0 48 48" fill="none" xmlns="http://www.w3.org/2000/svg">
<path d="M44.444 31.536L43.994 29.286H38.966L38.166 31.52L34.136 31.528C36.726 25.302 38.65 20.692 39.904 17.694C40.232 16.91 40.814 16.51 41.672 16.516C42.328 16.522 43.398 16.522 44.884 16.518L48 31.53L44.444 31.536ZM40.096 26.204H43.338L42.128 20.564L40.096 26.204ZM14.124 16.514L18.176 16.518L11.912 31.538L7.81 31.534C6.7785 27.5666 5.75983 23.596 4.754 19.622C4.554 18.83 4.158 18.276 3.396 18.014C2.26908 17.6376 1.13697 17.2769 0 16.932L0 16.518H6.474C7.594 16.518 8.248 17.06 8.458 18.172C8.67 19.286 9.202 22.124 10.058 26.68L14.124 16.514ZM23.744 16.518L20.542 31.536L16.684 31.53L19.88 16.514L23.744 16.518ZM31.564 16.24C32.718 16.24 34.172 16.6 35.008 16.932L34.332 20.044C33.576 19.74 32.332 19.33 31.286 19.344C29.766 19.37 28.826 20.008 28.826 20.62C28.826 21.616 30.458 22.118 32.138 23.206C34.054 24.446 34.308 25.56 34.284 26.772C34.258 29.282 32.138 31.76 27.666 31.76C25.626 31.73 24.89 31.56 23.226 30.968L23.93 27.72C25.624 28.428 26.342 28.654 27.79 28.654C29.116 28.654 30.254 28.118 30.264 27.184C30.272 26.52 29.864 26.19 28.376 25.37C26.888 24.548 24.8 23.412 24.828 21.126C24.862 18.202 27.632 16.24 31.564 16.24Z" fill="black"/>
</svg>
