<svg width="48" height="48" viewBox="0 0 48 48" fill="none" xmlns="http://www.w3.org/2000/svg">
<path d="M42.088 24.576C42.088 25.576 41.402 26.31 40.458 26.31C39.53 26.31 38.804 25.55 38.804 24.576C38.804 23.556 39.49 22.84 40.434 22.84C41.362 22.84 42.088 23.602 42.088 24.576ZM13.478 22.736C13.2278 22.7274 12.9791 22.7787 12.7527 22.8854C12.5263 22.9922 12.3285 23.1515 12.176 23.35C11.8703 23.777 11.7466 24.3079 11.832 24.826L14.79 23.598C14.6804 23.3413 14.4974 23.1227 14.264 22.9697C14.0305 22.8167 13.7571 22.7361 13.478 22.738V22.736ZM27.404 22.84C26.46 22.84 25.772 23.556 25.772 24.576C25.772 25.548 26.5 26.31 27.428 26.31C28.372 26.31 29.058 25.574 29.058 24.576C29.058 23.602 28.332 22.84 27.404 22.84ZM48 15.994V32.006H0V15.994H48ZM10.02 26.1H6.176V19.65H4.46V27.656H10.02V26.1ZM12.294 25.912L16.62 24.118C16.5427 23.4858 16.2859 22.8889 15.88 22.398C15.312 21.738 14.472 21.388 13.448 21.388C11.586 21.388 10.182 22.76 10.182 24.574C10.182 26.434 11.59 27.76 13.634 27.76C14.778 27.76 15.95 27.216 16.498 26.582L15.428 25.76C14.714 26.288 14.308 26.412 13.658 26.412C13.074 26.412 12.618 26.232 12.294 25.912ZM23.434 23.834C23.434 22.416 22.42 21.388 20.93 21.388C20.542 21.3896 20.1594 21.4794 19.8112 21.6505C19.463 21.8217 19.1583 22.0698 18.92 22.376V21.492H17.228V27.654H18.92V24.148C18.92 23.516 19.41 22.846 20.316 22.846C21.016 22.846 21.74 23.332 21.74 24.148V27.654H23.434V23.834ZM30.728 24.574C30.728 22.766 29.278 21.388 27.428 21.388C25.562 21.388 24.102 22.788 24.102 24.574C24.102 26.38 25.554 27.758 27.404 27.758C29.268 27.758 30.728 26.358 30.728 24.574ZM34.86 27.654L37.396 21.492H35.462L33.932 25.69L32.402 21.49H30.47L33.006 27.652L34.86 27.654ZM43.758 24.574C43.758 22.766 42.308 21.388 40.458 21.388C38.594 21.388 37.134 22.788 37.134 24.574C37.134 26.38 38.584 27.758 40.434 27.758C42.298 27.758 43.758 26.358 43.758 24.574Z" fill="black"/>
</svg>
