<svg width="48" height="48" viewBox="0 0 48 48" fill="none" xmlns="http://www.w3.org/2000/svg">
<path d="M24 16.472C11.744 16.472 1.81 19.86 1.81 24.004C1.81 28.148 11.744 31.534 24 31.534C36.254 31.534 46.188 28.148 46.188 24.004C46.188 19.858 36.254 16.472 24 16.472ZM12.604 28.952C11.292 28.962 10.138 28.152 10.004 26.75C9.92784 26.0195 10.1387 25.2879 10.592 24.71C10.982 24.202 11.642 23.78 12.2 23.676C12.38 23.642 12.626 23.664 12.728 23.784C12.886 23.97 12.84 24.172 12.682 24.252C12.256 24.47 11.742 24.842 11.488 25.352C11.3717 25.5683 11.3165 25.8122 11.3285 26.0575C11.3405 26.3027 11.4191 26.5401 11.556 26.744C12.082 27.538 13.55 27.56 14.914 26.294C15.252 25.982 15.554 25.686 15.86 25.334C16.46 24.646 16.66 24.394 17.46 23.286C17.47 23.274 17.472 23.258 17.468 23.25C17.462 23.236 17.45 23.23 17.428 23.23C16.894 23.244 16.428 23.404 15.978 23.74C15.848 23.836 15.66 23.822 15.578 23.698C15.486 23.558 15.552 23.372 15.702 23.268C16.428 22.762 17.222 22.672 18.034 22.534C18.034 22.534 18.09 22.538 18.136 22.474C18.47 22.048 18.72 21.664 19.076 21.232C19.432 20.792 19.896 20.392 20.248 20.088C20.74 19.664 21.056 19.522 21.376 19.348C21.462 19.304 21.366 19.25 21.34 19.25C19.548 18.914 17.686 18.478 15.906 19.138C14.674 19.598 14.132 20.574 14.392 21.228C14.578 21.69 15.186 21.768 15.758 21.488C16.2554 21.2413 16.6775 20.8656 16.98 20.4C17.154 20.132 17.52 20.324 17.322 20.79C16.802 22.012 15.808 22.984 14.596 23.026C13.564 23.058 12.898 22.3 12.9 21.364C12.904 19.516 14.96 18.3 17.12 18.12C19.722 17.904 22.186 18.598 24.77 18.91C26.748 19.15 28.646 19.156 30.634 18.698C30.87 18.648 31.034 18.798 31.02 19.034C31 19.378 30.734 19.708 30.08 20.066C29.334 20.474 28.554 20.598 27.74 20.606C25.772 20.622 23.938 19.854 22.04 19.442C22.044 19.524 22.064 19.624 21.994 19.676C20.944 20.452 19.994 21.24 19.358 22.344C19.336 22.37 19.348 22.394 19.384 22.392C19.938 22.362 20.434 22.348 20.95 22.308C21.04 22.3 21.044 22.278 21.036 22.212C21.0077 22.0075 21.0294 21.7992 21.099 21.6049C21.1687 21.4106 21.2843 21.236 21.436 21.096C21.78 20.79 22.21 20.756 22.496 20.976C22.816 21.228 22.79 21.682 22.612 22.022C22.5328 22.1713 22.4243 22.3031 22.293 22.4097C22.1618 22.5162 22.0104 22.5952 21.848 22.642C21.848 22.642 21.788 22.654 21.796 22.71C21.808 22.796 22.196 23.012 22.23 23.07C22.264 23.124 22.246 23.21 22.188 23.274C22.1649 23.3021 22.136 23.3248 22.1031 23.3403C22.0702 23.3559 22.0344 23.364 21.998 23.364C21.932 23.364 21.892 23.34 21.806 23.294C21.6001 23.1848 21.4169 23.0376 21.266 22.86C21.218 22.798 21.192 22.796 21.068 22.802C20.51 22.836 19.64 22.92 19.05 22.994C18.908 23.01 18.886 23.038 18.858 23.088C17.918 24.638 16.914 26.308 15.812 27.428C14.628 28.628 13.646 28.944 12.604 28.952ZM38.1 21.42C37.918 21.736 34.402 27.088 34.18 27.64C34.11 27.816 34.1 27.95 34.172 28.048C34.356 28.296 34.766 28.15 35.022 27.972C35.784 27.448 36.312 26.812 36.896 26.256C36.93 26.23 36.988 26.22 37.026 26.256C37.112 26.336 37.238 26.438 37.326 26.53C37.3338 26.5372 37.3401 26.5458 37.3446 26.5555C37.349 26.5651 37.3515 26.5756 37.3519 26.5862C37.3523 26.5968 37.3505 26.6074 37.3468 26.6173C37.343 26.6272 37.3373 26.6363 37.33 26.644C36.7957 27.3156 36.1894 27.9265 35.522 28.466C34.582 29.194 33.644 29.38 33.178 28.914C33.0137 28.7425 32.9146 28.5189 32.898 28.282C32.894 28.168 32.836 28.162 32.782 28.214C32.226 28.764 31.262 29.372 30.386 28.938C29.654 28.578 29.484 27.702 29.62 26.966C29.622 26.95 29.608 26.846 29.518 26.906C29.3333 27.0403 29.1316 27.1492 28.918 27.23C28.6884 27.3349 28.4384 27.3875 28.186 27.384C28.0045 27.3861 27.8256 27.3404 27.6673 27.2516C27.509 27.1628 27.3768 27.034 27.284 26.878C27.166 26.6652 27.1008 26.4272 27.094 26.184C27.092 26.162 27.06 26.12 27.028 26.174C26.428 27.088 25.87 27.972 25.278 28.9C25.246 28.944 25.218 28.972 25.158 28.974L23.984 28.976C23.912 28.976 23.878 28.92 23.916 28.85C24.124 28.45 25.264 26.79 26.036 25.378C26.25 24.99 26.206 24.79 26.074 24.704C25.908 24.596 25.578 24.758 25.3 24.97C24.542 25.544 23.906 26.44 23.582 26.84C23.392 27.074 23.212 27.422 22.716 27.96C21.934 28.81 20.896 29.298 19.9 28.96C19.6369 28.8709 19.3997 28.7185 19.2093 28.5162C19.0189 28.3139 18.8811 28.068 18.808 27.8C18.778 27.696 18.72 27.668 18.662 27.736C18.502 27.936 18.172 28.234 17.896 28.42C17.866 28.442 17.792 28.486 17.728 28.454C17.6076 28.3371 17.5052 28.2029 17.424 28.056C17.4119 28.0293 17.4085 27.9996 17.4143 27.9709C17.42 27.9422 17.4346 27.916 17.456 27.896C17.85 27.55 18.066 27.354 18.238 27.136C18.366 26.976 18.464 26.796 18.578 26.506C18.818 25.902 19.364 24.774 20.454 24.19C20.8567 23.962 21.2993 23.8133 21.758 23.752C21.958 23.732 22.124 23.756 22.184 23.912C22.206 23.978 22.262 24.122 22.296 24.228C22.318 24.292 22.302 24.342 22.226 24.37C21.586 24.614 20.94 24.992 20.496 25.59C19.99 26.266 19.854 27.082 20.192 27.55C20.438 27.89 20.836 27.95 21.22 27.828C21.8 27.644 22.296 27.102 22.552 26.502C22.828 25.844 22.872 25.068 22.668 24.384C22.636 24.266 22.666 24.176 22.742 24.112C22.896 23.986 23.11 23.888 23.172 23.856C23.2331 23.8233 23.3041 23.8145 23.3713 23.8311C23.4385 23.8477 23.4972 23.8886 23.536 23.946C23.748 24.26 23.862 24.702 23.876 25.16C23.888 25.258 23.928 25.26 23.976 25.21C24.356 24.806 24.708 24.374 25.112 24.05C25.482 23.756 25.956 23.516 26.398 23.526C26.97 23.538 27.254 23.926 27.236 24.618C27.234 24.706 27.296 24.698 27.338 24.64C27.4706 24.4409 27.6324 24.2629 27.818 24.112C28.214 23.786 28.618 23.64 29.04 23.668C29.56 23.708 29.976 24.182 29.89 24.722C29.8693 24.8928 29.8072 25.056 29.7093 25.1974C29.6114 25.3389 29.4805 25.4544 29.328 25.534C29.1997 25.6023 29.0539 25.6305 28.9094 25.6148C28.765 25.5991 28.6286 25.5403 28.518 25.446C28.4323 25.365 28.3694 25.2628 28.3357 25.1497C28.302 25.0367 28.2987 24.9168 28.326 24.802C28.336 24.752 28.272 24.706 28.218 24.762C27.71 25.29 27.672 25.974 28.004 26.282C28.37 26.622 28.92 26.394 29.32 26.132C30.052 25.654 30.62 25.006 31.278 24.506C31.714 24.174 32.212 23.878 32.77 23.804C33.0765 23.7571 33.39 23.793 33.678 23.908C34.078 24.07 34.33 24.408 34.362 24.7C34.37 24.786 34.434 24.796 34.488 24.72C34.804 24.228 36.498 21.686 36.638 21.42C36.678 21.338 36.726 21.326 36.816 21.326H38.028C38.098 21.326 38.13 21.366 38.1 21.42ZM33.46 25.828C33.4476 25.8528 33.4454 25.8816 33.454 25.908C33.46 25.948 33.514 25.988 33.566 26.008C33.586 26.014 33.596 26.028 33.574 26.072C33.424 26.392 33.288 26.576 33.1 26.854C32.9339 27.0996 32.7316 27.3188 32.5 27.504C32.144 27.798 31.652 28.118 31.244 27.904C31.064 27.81 30.984 27.556 30.99 27.352C30.998 26.776 31.254 26.184 31.728 25.602C32.304 24.892 32.942 24.524 33.36 24.726C33.792 24.932 33.656 25.436 33.46 25.828ZM21.562 22.066C21.547 21.9382 21.5631 21.8087 21.6091 21.6885C21.6551 21.5683 21.7295 21.4611 21.826 21.376C21.94 21.276 22.092 21.252 22.186 21.332C22.29 21.422 22.24 21.646 22.134 21.8C22.0189 21.9734 21.8448 22.0992 21.644 22.154C21.608 22.162 21.576 22.146 21.562 22.066ZM24 15C10.68 15 0 18.994 0 24C0 28.976 10.766 33 24 33C37.234 33 48 28.96 48 24C48 19.04 37.234 15 24 15ZM24 32.216C11.298 32.216 1 28.54 1 24.004C1 19.466 11.3 15.79 24 15.79C36.7 15.79 46.996 19.466 46.996 24.004C46.996 28.54 36.7 32.216 24 32.216Z" fill="black"/>
</svg>
