<svg width="48" height="48" viewBox="0 0 48 48" fill="none" xmlns="http://www.w3.org/2000/svg">
<path d="M33.18 18.696V29.304H34.772V18.696H33.18ZM16.186 18.516C13.086 18.516 10.682 20.77 10.682 24C10.682 27.374 13.086 29.484 16.186 29.484C19.286 29.484 21.694 27.374 21.688 24C21.6939 23.2767 21.5555 22.5594 21.2808 21.8902C21.0062 21.221 20.6009 20.6133 20.0885 20.1027C19.5762 19.592 18.9672 19.1887 18.2971 18.9162C17.627 18.6438 16.9093 18.5077 16.186 18.516ZM20.1 24C20.1 26.39 18.348 27.974 16.186 27.974C14.022 27.974 12.27 26.39 12.27 24C12.27 21.652 14.022 20.026 16.186 20.026C18.346 20.026 20.1 21.652 20.1 24ZM0 18.352V29.304H1.624V22.066L10.06 29.646V27.376L0 18.352ZM22.884 24L28.788 29.304H31.156L25.244 24L31.156 18.696H28.788L22.884 24ZM48 29.304H46.25L44.97 26.954H39.174L37.894 29.304H36.144L38.264 25.388H44.138L41.208 19.948L42.072 18.352L48 29.304Z" fill="black"/>
</svg>
